{
    "asset" : {
        "generator" : "Khronos glTF Blender I/O v3.2.40",
        "version" : "2.0"
    },
    "scene" : 0,
    "scenes" : [
        {
            "name" : "Scene",
            "nodes" : [
                0
            ]
        }
    ],
    "nodes" : [
        {
            "mesh" : 0,
            "name" : "curved Rail ",
            "rotation" : [
                0.7071068286895752,
                0,
                0,
                0.7071067094802856
            ]
        }
    ],
    "materials" : [
        {
            "doubleSided" : true,
            "name" : "Rails.006",
            "pbrMetallicRoughness" : {
                "baseColorFactor" : [
                    0.2774074077606201,
                    0.0331290103495121,
                    0.0032950665336102247,
                    1
                ],
                "metallicFactor" : 0.4761904776096344,
                "roughnessFactor" : 0.9285714626312256
            }
        },
        {
            "doubleSided" : true,
            "name" : "Concrete.006",
            "pbrMetallicRoughness" : {
                "baseColorFactor" : [
                    0.48514944314956665,
                    0.45641058683395386,
                    0.4072403013706207,
                    1
                ],
                "metallicFactor" : 0,
                "roughnessFactor" : 0.7666666507720947
            }
        },
        {
            "doubleSided" : true,
            "name" : "Screws.006",
            "pbrMetallicRoughness" : {
                "baseColorFactor" : [
                    0.2158603072166443,
                    0.21586033701896667,
                    0.18116426467895508,
                    1
                ],
                "metallicFactor" : 0.7428571581840515,
                "roughnessFactor" : 0.5
            }
        },
        {
            "doubleSided" : true,
            "name" : "Grass.005",
            "pbrMetallicRoughness" : {
                "baseColorFactor" : [
                    0.17788811028003693,
                    0.4178849160671234,
                    0.038204483687877655,
                    1
                ],
                "metallicFactor" : 0,
                "roughnessFactor" : 0.75
            }
        },
        {
            "doubleSided" : true,
            "name" : "Fundament.005",
            "pbrMetallicRoughness" : {
                "baseColorFactor" : [
                    0.13013635575771332,
                    0.1301363855600357,
                    0.13013650476932526,
                    1
                ],
                "metallicFactor" : 0
            }
        }
    ],
    "meshes" : [
        {
            "name" : "uploads_files_841511_rails(formats).006",
            "primitives" : [
                {
                    "attributes" : {
                        "POSITION" : 0,
                        "NORMAL" : 1,
                        "TEXCOORD_0" : 2
                    },
                    "indices" : 3,
                    "material" : 0
                },
                {
                    "attributes" : {
                        "POSITION" : 4,
                        "NORMAL" : 5,
                        "TEXCOORD_0" : 6
                    },
                    "indices" : 7,
                    "material" : 1
                },
                {
                    "attributes" : {
                        "POSITION" : 8,
                        "NORMAL" : 9,
                        "TEXCOORD_0" : 10
                    },
                    "indices" : 11,
                    "material" : 2
                },
                {
                    "attributes" : {
                        "POSITION" : 12,
                        "NORMAL" : 13,
                        "TEXCOORD_0" : 14
                    },
                    "indices" : 15,
                    "material" : 3
                },
                {
                    "attributes" : {
                        "POSITION" : 16,
                        "NORMAL" : 17,
                        "TEXCOORD_0" : 18
                    },
                    "indices" : 19,
                    "material" : 4
                }
            ]
        }
    ],
    "accessors" : [
        {
            "bufferView" : 0,
            "componentType" : 5126,
            "count" : 2352,
            "max" : [
                9.978283882141113,
                9.999995231628418,
                -0.11156710237264633
            ],
            "min" : [
                -1.6810115575790405,
                -1.681012511253357,
                -0.7775691747665405
            ],
            "type" : "VEC3"
        },
        {
            "bufferView" : 1,
            "componentType" : 5126,
            "count" : 2352,
            "type" : "VEC3"
        },
        {
            "bufferView" : 2,
            "componentType" : 5126,
            "count" : 2352,
            "type" : "VEC2"
        },
        {
            "bufferView" : 3,
            "componentType" : 5123,
            "count" : 3672,
            "type" : "SCALAR"
        },
        {
            "bufferView" : 4,
            "componentType" : 5126,
            "count" : 1856,
            "max" : [
                9.776996612548828,
                9.468016624450684,
                -5.9690442867577076e-05
            ],
            "min" : [
                -2.6895647048950195,
                -2.744091510772705,
                -0.11106196790933609
            ],
            "type" : "VEC3"
        },
        {
            "bufferView" : 5,
            "componentType" : 5126,
            "count" : 1856,
            "type" : "VEC3"
        },
        {
            "bufferView" : 6,
            "componentType" : 5126,
            "count" : 1856,
            "type" : "VEC2"
        },
        {
            "bufferView" : 7,
            "componentType" : 5123,
            "count" : 2592,
            "type" : "SCALAR"
        },
        {
            "bufferView" : 8,
            "componentType" : 5126,
            "count" : 1152,
            "max" : [
                9.477027893066406,
                9.08383846282959,
                -0.11156775802373886
            ],
            "min" : [
                -1.7817269563674927,
                -1.8582783937454224,
                -0.17816954851150513
            ],
            "type" : "VEC3"
        },
        {
            "bufferView" : 9,
            "componentType" : 5126,
            "count" : 1152,
            "type" : "VEC3"
        },
        {
            "bufferView" : 10,
            "componentType" : 5126,
            "count" : 1152,
            "type" : "VEC2"
        },
        {
            "bufferView" : 11,
            "componentType" : 5123,
            "count" : 1920,
            "type" : "SCALAR"
        },
        {
            "bufferView" : 12,
            "componentType" : 5126,
            "count" : 4,
            "max" : [
                10,
                10,
                1.6292068494294654e-06
            ],
            "min" : [
                -10,
                -10,
                -1.6292068494294654e-06
            ],
            "type" : "VEC3"
        },
        {
            "bufferView" : 13,
            "componentType" : 5126,
            "count" : 4,
            "type" : "VEC3"
        },
        {
            "bufferView" : 14,
            "componentType" : 5126,
            "count" : 4,
            "type" : "VEC2"
        },
        {
            "bufferView" : 15,
            "componentType" : 5123,
            "count" : 6,
            "type" : "SCALAR"
        },
        {
            "bufferView" : 16,
            "componentType" : 5126,
            "count" : 3288,
            "max" : [
                10.000000953674316,
                9.978277206420898,
                -5.944430085946806e-05
            ],
            "min" : [
                -3.399076461791992,
                -3.3990776538848877,
                -0.03506162390112877
            ],
            "type" : "VEC3"
        },
        {
            "bufferView" : 17,
            "componentType" : 5126,
            "count" : 3288,
            "type" : "VEC3"
        },
        {
            "bufferView" : 18,
            "componentType" : 5126,
            "count" : 3288,
            "type" : "VEC2"
        },
        {
            "bufferView" : 19,
            "componentType" : 5123,
            "count" : 5664,
            "type" : "SCALAR"
        }
    ],
    "bufferViews" : [
        {
            "buffer" : 0,
            "byteLength" : 28224,
            "byteOffset" : 0
        },
        {
            "buffer" : 0,
            "byteLength" : 28224,
            "byteOffset" : 28224
        },
        {
            "buffer" : 0,
            "byteLength" : 18816,
            "byteOffset" : 56448
        },
        {
            "buffer" : 0,
            "byteLength" : 7344,
            "byteOffset" : 75264
        },
        {
            "buffer" : 0,
            "byteLength" : 22272,
            "byteOffset" : 82608
        },
        {
            "buffer" : 0,
            "byteLength" : 22272,
            "byteOffset" : 104880
        },
        {
            "buffer" : 0,
            "byteLength" : 14848,
            "byteOffset" : 127152
        },
        {
            "buffer" : 0,
            "byteLength" : 5184,
            "byteOffset" : 142000
        },
        {
            "buffer" : 0,
            "byteLength" : 13824,
            "byteOffset" : 147184
        },
        {
            "buffer" : 0,
            "byteLength" : 13824,
            "byteOffset" : 161008
        },
        {
            "buffer" : 0,
            "byteLength" : 9216,
            "byteOffset" : 174832
        },
        {
            "buffer" : 0,
            "byteLength" : 3840,
            "byteOffset" : 184048
        },
        {
            "buffer" : 0,
            "byteLength" : 48,
            "byteOffset" : 187888
        },
        {
            "buffer" : 0,
            "byteLength" : 48,
            "byteOffset" : 187936
        },
        {
            "buffer" : 0,
            "byteLength" : 32,
            "byteOffset" : 187984
        },
        {
            "buffer" : 0,
            "byteLength" : 12,
            "byteOffset" : 188016
        },
        {
            "buffer" : 0,
            "byteLength" : 39456,
            "byteOffset" : 188028
        },
        {
            "buffer" : 0,
            "byteLength" : 39456,
            "byteOffset" : 227484
        },
        {
            "buffer" : 0,
            "byteLength" : 26304,
            "byteOffset" : 266940
        },
        {
            "buffer" : 0,
            "byteLength" : 11328,
            "byteOffset" : 293244
        }
    ],
    "buffers" : [
        {
            "byteLength" : 304572,
            "uri" : "data:application/octet-stream;base64,"
        }
    ]
}
