{
    "asset" : {
        "generator" : "Khronos glTF Blender I/O v3.2.40",
        "version" : "2.0"
    },
    "scene" : 0,
    "scenes" : [
        {
            "name" : "Scene",
            "nodes" : [
                0,
                1
            ]
        }
    ],
    "nodes" : [
        {
            "mesh" : 0,
            "name" : "road crossing",
            "scale" : [
                10,
                10,
                10
            ]
        },
        {
            "mesh" : 1,
            "name" : "rail crossing",
            "rotation" : [
                0.7071068286895752,
                0,
                0,
                0.7071067094802856
            ]
        }
    ],
    "materials" : [
        {
            "doubleSided" : true,
            "name" : "Street.002",
            "pbrMetallicRoughness" : {
                "baseColorFactor" : [
                    0.05780218169093132,
                    0.05780218169093132,
                    0.05780218169093132,
                    1
                ],
                "metallicFactor" : 0,
                "roughnessFactor" : 0.9145077466964722
            }
        },
        {
            "doubleSided" : true,
            "name" : "sidewalk.002",
            "pbrMetallicRoughness" : {
                "baseColorFactor" : [
                    0.2581826448440552,
                    0.25818270444869995,
                    0.25818294286727905,
                    1
                ],
                "metallicFactor" : 0,
                "roughnessFactor" : 0.6709844470024109
            }
        },
        {
            "doubleSided" : true,
            "name" : "WhiteStripes.002",
            "pbrMetallicRoughness" : {
                "baseColorFactor" : [
                    0.6500046849250793,
                    0.6500046849250793,
                    0.6500046849250793,
                    1
                ],
                "metallicFactor" : 0,
                "roughnessFactor" : 0.7227979302406311
            }
        },
        {
            "doubleSided" : true,
            "name" : "Rails.001",
            "pbrMetallicRoughness" : {
                "baseColorFactor" : [
                    0.2774074077606201,
                    0.0331290103495121,
                    0.0032950665336102247,
                    1
                ],
                "metallicFactor" : 0.4761904776096344,
                "roughnessFactor" : 0.9285714626312256
            }
        }
    ],
    "meshes" : [
        {
            "name" : "Plane.008",
            "primitives" : [
                {
                    "attributes" : {
                        "POSITION" : 0,
                        "NORMAL" : 1,
                        "TEXCOORD_0" : 2
                    },
                    "indices" : 3,
                    "material" : 0
                },
                {
                    "attributes" : {
                        "POSITION" : 4,
                        "NORMAL" : 5,
                        "TEXCOORD_0" : 6
                    },
                    "indices" : 7,
                    "material" : 1
                },
                {
                    "attributes" : {
                        "POSITION" : 8,
                        "NORMAL" : 9,
                        "TEXCOORD_0" : 10
                    },
                    "indices" : 11,
                    "material" : 2
                }
            ]
        },
        {
            "name" : "uploads_files_841511_rails(formats).001",
            "primitives" : [
                {
                    "attributes" : {
                        "POSITION" : 12,
                        "NORMAL" : 13,
                        "TEXCOORD_0" : 14
                    },
                    "indices" : 15,
                    "material" : 3
                }
            ]
        }
    ],
    "accessors" : [
        {
            "bufferView" : 0,
            "componentType" : 5126,
            "count" : 88,
            "max" : [
                0.4999999403953552,
                0,
                1
            ],
            "min" : [
                -0.4999999403953552,
                0,
                -1
            ],
            "type" : "VEC3"
        },
        {
            "bufferView" : 1,
            "componentType" : 5126,
            "count" : 88,
            "type" : "VEC3"
        },
        {
            "bufferView" : 2,
            "componentType" : 5126,
            "count" : 88,
            "type" : "VEC2"
        },
        {
            "bufferView" : 3,
            "componentType" : 5123,
            "count" : 264,
            "type" : "SCALAR"
        },
        {
            "bufferView" : 4,
            "componentType" : 5126,
            "count" : 78,
            "max" : [
                1,
                0.019999999552965164,
                1
            ],
            "min" : [
                -1,
                0,
                -1
            ],
            "type" : "VEC3"
        },
        {
            "bufferView" : 5,
            "componentType" : 5126,
            "count" : 78,
            "type" : "VEC3"
        },
        {
            "bufferView" : 6,
            "componentType" : 5126,
            "count" : 78,
            "type" : "VEC2"
        },
        {
            "bufferView" : 7,
            "componentType" : 5123,
            "count" : 156,
            "type" : "SCALAR"
        },
        {
            "bufferView" : 8,
            "componentType" : 5126,
            "count" : 20,
            "max" : [
                0.016666635870933533,
                0,
                1
            ],
            "min" : [
                -0.016666635870933533,
                0,
                -1
            ],
            "type" : "VEC3"
        },
        {
            "bufferView" : 9,
            "componentType" : 5126,
            "count" : 20,
            "type" : "VEC3"
        },
        {
            "bufferView" : 10,
            "componentType" : 5126,
            "count" : 20,
            "type" : "VEC2"
        },
        {
            "bufferView" : 11,
            "componentType" : 5123,
            "count" : 36,
            "type" : "SCALAR"
        },
        {
            "bufferView" : 12,
            "componentType" : 5126,
            "count" : 1232,
            "max" : [
                9.874458312988281,
                1.636672019958496,
                -0.11156691610813141
            ],
            "min" : [
                -10.127326011657715,
                -1.722884178161621,
                -0.7775688171386719
            ],
            "type" : "VEC3"
        },
        {
            "bufferView" : 13,
            "componentType" : 5126,
            "count" : 1232,
            "type" : "VEC3"
        },
        {
            "bufferView" : 14,
            "componentType" : 5126,
            "count" : 1232,
            "type" : "VEC2"
        },
        {
            "bufferView" : 15,
            "componentType" : 5123,
            "count" : 2280,
            "type" : "SCALAR"
        }
    ],
    "bufferViews" : [
        {
            "buffer" : 0,
            "byteLength" : 1056,
            "byteOffset" : 0
        },
        {
            "buffer" : 0,
            "byteLength" : 1056,
            "byteOffset" : 1056
        },
        {
            "buffer" : 0,
            "byteLength" : 704,
            "byteOffset" : 2112
        },
        {
            "buffer" : 0,
            "byteLength" : 528,
            "byteOffset" : 2816
        },
        {
            "buffer" : 0,
            "byteLength" : 936,
            "byteOffset" : 3344
        },
        {
            "buffer" : 0,
            "byteLength" : 936,
            "byteOffset" : 4280
        },
        {
            "buffer" : 0,
            "byteLength" : 624,
            "byteOffset" : 5216
        },
        {
            "buffer" : 0,
            "byteLength" : 312,
            "byteOffset" : 5840
        },
        {
            "buffer" : 0,
            "byteLength" : 240,
            "byteOffset" : 6152
        },
        {
            "buffer" : 0,
            "byteLength" : 240,
            "byteOffset" : 6392
        },
        {
            "buffer" : 0,
            "byteLength" : 160,
            "byteOffset" : 6632
        },
        {
            "buffer" : 0,
            "byteLength" : 72,
            "byteOffset" : 6792
        },
        {
            "buffer" : 0,
            "byteLength" : 14784,
            "byteOffset" : 6864
        },
        {
            "buffer" : 0,
            "byteLength" : 14784,
            "byteOffset" : 21648
        },
        {
            "buffer" : 0,
            "byteLength" : 9856,
            "byteOffset" : 36432
        },
        {
            "buffer" : 0,
            "byteLength" : 4560,
            "byteOffset" : 46288
        }
    ],
    "buffers" : [
        {
            "byteLength" : 50848,
            "uri" : "data:application/octet-stream;base64,"
        }
    ]
}
