{
    "asset" : {
        "generator" : "Khronos glTF Blender I/O v3.2.40",
        "version" : "2.0"
    },
    "scene" : 0,
    "scenes" : [
        {
            "name" : "Scene",
            "nodes" : [
                0
            ]
        }
    ],
    "nodes" : [
        {
            "mesh" : 0,
            "name" : "straight Rail",
            "rotation" : [
                0.7071068286895752,
                0,
                0,
                0.7071067094802856
            ]
        }
    ],
    "materials" : [
        {
            "doubleSided" : true,
            "name" : "Rails",
            "pbrMetallicRoughness" : {
                "baseColorFactor" : [
                    0.2774074077606201,
                    0.0331290103495121,
                    0.0032950665336102247,
                    1
                ],
                "metallicFactor" : 0.4761904776096344,
                "roughnessFactor" : 0.9285714626312256
            }
        },
        {
            "doubleSided" : true,
            "name" : "Concrete",
            "pbrMetallicRoughness" : {
                "baseColorFactor" : [
                    0.48514944314956665,
                    0.45641058683395386,
                    0.4072403013706207,
                    1
                ],
                "metallicFactor" : 0,
                "roughnessFactor" : 0.7666666507720947
            }
        },
        {
            "doubleSided" : true,
            "name" : "Screws",
            "pbrMetallicRoughness" : {
                "baseColorFactor" : [
                    0.2158603072166443,
                    0.21586033701896667,
                    0.18116426467895508,
                    1
                ],
                "metallicFactor" : 0.7428571581840515,
                "roughnessFactor" : 0.5
            }
        },
        {
            "doubleSided" : true,
            "name" : "Grass.001",
            "pbrMetallicRoughness" : {
                "baseColorFactor" : [
                    0.17788811028003693,
                    0.4178849160671234,
                    0.038204483687877655,
                    1
                ],
                "metallicFactor" : 0,
                "roughnessFactor" : 0.75
            }
        },
        {
            "doubleSided" : true,
            "name" : "Fundament.001",
            "pbrMetallicRoughness" : {
                "baseColorFactor" : [
                    0.13013635575771332,
                    0.1301363855600357,
                    0.13013650476932526,
                    1
                ],
                "metallicFactor" : 0
            }
        }
    ],
    "meshes" : [
        {
            "name" : "uploads_files_841511_rails(formats)",
            "primitives" : [
                {
                    "attributes" : {
                        "POSITION" : 0,
                        "NORMAL" : 1,
                        "TEXCOORD_0" : 2
                    },
                    "indices" : 3,
                    "material" : 0
                },
                {
                    "attributes" : {
                        "POSITION" : 4,
                        "NORMAL" : 5,
                        "TEXCOORD_0" : 6
                    },
                    "indices" : 7,
                    "material" : 1
                },
                {
                    "attributes" : {
                        "POSITION" : 8,
                        "NORMAL" : 9,
                        "TEXCOORD_0" : 10
                    },
                    "indices" : 11,
                    "material" : 2
                },
                {
                    "attributes" : {
                        "POSITION" : 12,
                        "NORMAL" : 13,
                        "TEXCOORD_0" : 14
                    },
                    "indices" : 15,
                    "material" : 3
                },
                {
                    "attributes" : {
                        "POSITION" : 16,
                        "NORMAL" : 17,
                        "TEXCOORD_0" : 18
                    },
                    "indices" : 19,
                    "material" : 4
                }
            ]
        }
    ],
    "accessors" : [
        {
            "bufferView" : 0,
            "componentType" : 5126,
            "count" : 1204,
            "max" : [
                1.6785434484481812,
                9.999995231628418,
                -0.11156665533781052
            ],
            "min" : [
                -1.6810115575790405,
                -10.001788139343262,
                -0.7775691747665405
            ],
            "type" : "VEC3"
        },
        {
            "bufferView" : 1,
            "componentType" : 5126,
            "count" : 1204,
            "type" : "VEC3"
        },
        {
            "bufferView" : 2,
            "componentType" : 5126,
            "count" : 1204,
            "type" : "VEC2"
        },
        {
            "bufferView" : 3,
            "componentType" : 5123,
            "count" : 2280,
            "type" : "SCALAR"
        },
        {
            "bufferView" : 4,
            "componentType" : 5126,
            "count" : 2088,
            "max" : [
                2.7737674713134766,
                9.200468063354492,
                -5.95971941947937e-05
            ],
            "min" : [
                -2.776235580444336,
                -9.224787712097168,
                -0.11106192320585251
            ],
            "type" : "VEC3"
        },
        {
            "bufferView" : 5,
            "componentType" : 5126,
            "count" : 2088,
            "type" : "VEC3"
        },
        {
            "bufferView" : 6,
            "componentType" : 5126,
            "count" : 2088,
            "type" : "VEC2"
        },
        {
            "bufferView" : 7,
            "componentType" : 5123,
            "count" : 2916,
            "type" : "SCALAR"
        },
        {
            "bufferView" : 8,
            "componentType" : 5126,
            "count" : 1296,
            "max" : [
                1.9015659093856812,
                8.952001571655273,
                -0.11156665533781052
            ],
            "min" : [
                -1.9040340185165405,
                -8.965319633483887,
                -0.1781696081161499
            ],
            "type" : "VEC3"
        },
        {
            "bufferView" : 9,
            "componentType" : 5126,
            "count" : 1296,
            "type" : "VEC3"
        },
        {
            "bufferView" : 10,
            "componentType" : 5126,
            "count" : 1296,
            "type" : "VEC2"
        },
        {
            "bufferView" : 11,
            "componentType" : 5123,
            "count" : 2160,
            "type" : "SCALAR"
        },
        {
            "bufferView" : 12,
            "componentType" : 5126,
            "count" : 4,
            "max" : [
                10,
                10,
                1.6292068494294654e-06
            ],
            "min" : [
                -10,
                -10,
                -1.6292068494294654e-06
            ],
            "type" : "VEC3"
        },
        {
            "bufferView" : 13,
            "componentType" : 5126,
            "count" : 4,
            "type" : "VEC3"
        },
        {
            "bufferView" : 14,
            "componentType" : 5126,
            "count" : 4,
            "type" : "VEC2"
        },
        {
            "bufferView" : 15,
            "componentType" : 5123,
            "count" : 6,
            "type" : "SCALAR"
        },
        {
            "bufferView" : 16,
            "componentType" : 5126,
            "count" : 11221,
            "max" : [
                3.2054309844970703,
                9.978277206420898,
                -5.958515248494223e-05
            ],
            "min" : [
                -3.399076461791992,
                -10.00054931640625,
                -0.03506162390112877
            ],
            "type" : "VEC3"
        },
        {
            "bufferView" : 17,
            "componentType" : 5126,
            "count" : 11221,
            "type" : "VEC3"
        },
        {
            "bufferView" : 18,
            "componentType" : 5126,
            "count" : 11221,
            "type" : "VEC2"
        },
        {
            "bufferView" : 19,
            "componentType" : 5123,
            "count" : 56952,
            "type" : "SCALAR"
        }
    ],
    "bufferViews" : [
        {
            "buffer" : 0,
            "byteLength" : 14448,
            "byteOffset" : 0
        },
        {
            "buffer" : 0,
            "byteLength" : 14448,
            "byteOffset" : 14448
        },
        {
            "buffer" : 0,
            "byteLength" : 9632,
            "byteOffset" : 28896
        },
        {
            "buffer" : 0,
            "byteLength" : 4560,
            "byteOffset" : 38528
        },
        {
            "buffer" : 0,
            "byteLength" : 25056,
            "byteOffset" : 43088
        },
        {
            "buffer" : 0,
            "byteLength" : 25056,
            "byteOffset" : 68144
        },
        {
            "buffer" : 0,
            "byteLength" : 16704,
            "byteOffset" : 93200
        },
        {
            "buffer" : 0,
            "byteLength" : 5832,
            "byteOffset" : 109904
        },
        {
            "buffer" : 0,
            "byteLength" : 15552,
            "byteOffset" : 115736
        },
        {
            "buffer" : 0,
            "byteLength" : 15552,
            "byteOffset" : 131288
        },
        {
            "buffer" : 0,
            "byteLength" : 10368,
            "byteOffset" : 146840
        },
        {
            "buffer" : 0,
            "byteLength" : 4320,
            "byteOffset" : 157208
        },
        {
            "buffer" : 0,
            "byteLength" : 48,
            "byteOffset" : 161528
        },
        {
            "buffer" : 0,
            "byteLength" : 48,
            "byteOffset" : 161576
        },
        {
            "buffer" : 0,
            "byteLength" : 32,
            "byteOffset" : 161624
        },
        {
            "buffer" : 0,
            "byteLength" : 12,
            "byteOffset" : 161656
        },
        {
            "buffer" : 0,
            "byteLength" : 134652,
            "byteOffset" : 161668
        },
        {
            "buffer" : 0,
            "byteLength" : 134652,
            "byteOffset" : 296320
        },
        {
            "buffer" : 0,
            "byteLength" : 89768,
            "byteOffset" : 430972
        },
        {
            "buffer" : 0,
            "byteLength" : 113904,
            "byteOffset" : 520740
        }
    ],
    "buffers" : [
        {
            "byteLength" : 634644,
            "uri" : "data:application/octet-stream;base64,"
        }
    ]
}
