{
    "asset" : {
        "generator" : "Khronos glTF Blender I/O v3.2.40",
        "version" : "2.0"
    },
    "scene" : 0,
    "scenes" : [
        {
            "name" : "Scene",
            "nodes" : [
                0
            ]
        }
    ],
    "nodes" : [
        {
            "mesh" : 0,
            "name" : "Straight Road",
            "scale" : [
                10,
                10,
                10
            ]
        }
    ],
    "materials" : [
        {
            "doubleSided" : true,
            "name" : "Street",
            "pbrMetallicRoughness" : {
                "baseColorFactor" : [
                    0.05780218169093132,
                    0.05780218169093132,
                    0.05780218169093132,
                    1
                ],
                "metallicFactor" : 0,
                "roughnessFactor" : 0.9145077466964722
            }
        },
        {
            "doubleSided" : true,
            "name" : "sidewalk",
            "pbrMetallicRoughness" : {
                "baseColorFactor" : [
                    0.25979799032211304,
                    0.25979799032211304,
                    0.25979799032211304,
                    1
                ],
                "metallicFactor" : 0,
                "roughnessFactor" : 0.6709844470024109
            }
        },
        {
            "doubleSided" : true,
            "name" : "WhiteStripes",
            "pbrMetallicRoughness" : {
                "baseColorFactor" : [
                    0.6500046849250793,
                    0.6500046849250793,
                    0.6500046849250793,
                    1
                ],
                "metallicFactor" : 0,
                "roughnessFactor" : 0.7227979302406311
            }
        }
    ],
    "meshes" : [
        {
            "name" : "Plane.001",
            "primitives" : [
                {
                    "attributes" : {
                        "POSITION" : 0,
                        "NORMAL" : 1,
                        "TEXCOORD_0" : 2
                    },
                    "indices" : 3,
                    "material" : 0
                },
                {
                    "attributes" : {
                        "POSITION" : 4,
                        "NORMAL" : 5,
                        "TEXCOORD_0" : 6
                    },
                    "indices" : 7,
                    "material" : 1
                },
                {
                    "attributes" : {
                        "POSITION" : 8,
                        "NORMAL" : 9,
                        "TEXCOORD_0" : 10
                    },
                    "indices" : 11,
                    "material" : 2
                }
            ]
        }
    ],
    "accessors" : [
        {
            "bufferView" : 0,
            "componentType" : 5126,
            "count" : 88,
            "max" : [
                0.4999999403953552,
                0,
                1
            ],
            "min" : [
                -0.4999999403953552,
                0,
                -1
            ],
            "type" : "VEC3"
        },
        {
            "bufferView" : 1,
            "componentType" : 5126,
            "count" : 88,
            "type" : "VEC3"
        },
        {
            "bufferView" : 2,
            "componentType" : 5126,
            "count" : 88,
            "type" : "VEC2"
        },
        {
            "bufferView" : 3,
            "componentType" : 5123,
            "count" : 264,
            "type" : "SCALAR"
        },
        {
            "bufferView" : 4,
            "componentType" : 5126,
            "count" : 68,
            "max" : [
                1,
                0.019999999552965164,
                1
            ],
            "min" : [
                -1,
                0,
                -1
            ],
            "type" : "VEC3"
        },
        {
            "bufferView" : 5,
            "componentType" : 5126,
            "count" : 68,
            "type" : "VEC3"
        },
        {
            "bufferView" : 6,
            "componentType" : 5126,
            "count" : 68,
            "type" : "VEC2"
        },
        {
            "bufferView" : 7,
            "componentType" : 5123,
            "count" : 120,
            "type" : "SCALAR"
        },
        {
            "bufferView" : 8,
            "componentType" : 5126,
            "count" : 20,
            "max" : [
                0.016666635870933533,
                0,
                1
            ],
            "min" : [
                -0.016666635870933533,
                0,
                -1
            ],
            "type" : "VEC3"
        },
        {
            "bufferView" : 9,
            "componentType" : 5126,
            "count" : 20,
            "type" : "VEC3"
        },
        {
            "bufferView" : 10,
            "componentType" : 5126,
            "count" : 20,
            "type" : "VEC2"
        },
        {
            "bufferView" : 11,
            "componentType" : 5123,
            "count" : 36,
            "type" : "SCALAR"
        }
    ],
    "bufferViews" : [
        {
            "buffer" : 0,
            "byteLength" : 1056,
            "byteOffset" : 0
        },
        {
            "buffer" : 0,
            "byteLength" : 1056,
            "byteOffset" : 1056
        },
        {
            "buffer" : 0,
            "byteLength" : 704,
            "byteOffset" : 2112
        },
        {
            "buffer" : 0,
            "byteLength" : 528,
            "byteOffset" : 2816
        },
        {
            "buffer" : 0,
            "byteLength" : 816,
            "byteOffset" : 3344
        },
        {
            "buffer" : 0,
            "byteLength" : 816,
            "byteOffset" : 4160
        },
        {
            "buffer" : 0,
            "byteLength" : 544,
            "byteOffset" : 4976
        },
        {
            "buffer" : 0,
            "byteLength" : 240,
            "byteOffset" : 5520
        },
        {
            "buffer" : 0,
            "byteLength" : 240,
            "byteOffset" : 5760
        },
        {
            "buffer" : 0,
            "byteLength" : 240,
            "byteOffset" : 6000
        },
        {
            "buffer" : 0,
            "byteLength" : 160,
            "byteOffset" : 6240
        },
        {
            "buffer" : 0,
            "byteLength" : 72,
            "byteOffset" : 6400
        }
    ],
    "buffers" : [
        {
            "byteLength" : 6472,
            "uri" : "data:application/octet-stream;base64,"
        }
    ]
}
