{
    "asset" : {
        "generator" : "Khronos glTF Blender I/O v3.3.32",
        "version" : "2.0"
    },
    "scene" : 0,
    "scenes" : [
        {
            "name" : "Scene",
            "nodes" : [
                0
            ]
        }
    ],
    "nodes" : [
        {
            "mesh" : 0,
            "name" : "pedestrian red",
            "scale" : [
                0.28250306844711304,
                0.3558880686759949,
                0.2602856755256653
            ],
            "translation" : [
                0.0008945465087890625,
                0.014369775541126728,
                0
            ]
        }
    ],
    "animations" : [
        {
            "channels" : [
                {
                    "sampler" : 0,
                    "target" : {
                        "node" : 0,
                        "path" : "translation"
                    }
                },
                {
                    "sampler" : 1,
                    "target" : {
                        "node" : 0,
                        "path" : "rotation"
                    }
                },
                {
                    "sampler" : 2,
                    "target" : {
                        "node" : 0,
                        "path" : "scale"
                    }
                }
            ],
            "name" : "Action",
            "samplers" : [
                {
                    "input" : 4,
                    "interpolation" : "LINEAR",
                    "output" : 5
                },
                {
                    "input" : 4,
                    "interpolation" : "LINEAR",
                    "output" : 6
                },
                {
                    "input" : 4,
                    "interpolation" : "LINEAR",
                    "output" : 7
                }
            ]
        }
    ],
    "materials" : [
        {
            "doubleSided" : true,
            "name" : "Material.001",
            "pbrMetallicRoughness" : {
                "baseColorTexture" : {
                    "index" : 0
                },
                "metallicFactor" : 0,
                "roughnessFactor" : 0.5
            }
        }
    ],
    "meshes" : [
        {
            "name" : "Cube.003",
            "primitives" : [
                {
                    "attributes" : {
                        "POSITION" : 0,
                        "NORMAL" : 1,
                        "TEXCOORD_0" : 2
                    },
                    "indices" : 3,
                    "material" : 0
                }
            ]
        }
    ],
    "textures" : [
        {
            "sampler" : 0,
            "source" : 0
        }
    ],
    "images" : [
        {
            "bufferView" : 4,
            "mimeType" : "image/png",
            "name" : "ImphenziaPalette01"
        }
    ],
    "accessors" : [
        {
            "bufferView" : 0,
            "componentType" : 5126,
            "count" : 920,
            "max" : [
                2.3008599281311035,
                4.207275867462158,
                0.8071430921554565
            ],
            "min" : [
                -2.3008599281311035,
                -0.035631269216537476,
                -0.8448878526687622
            ],
            "type" : "VEC3"
        },
        {
            "bufferView" : 1,
            "componentType" : 5126,
            "count" : 920,
            "type" : "VEC3"
        },
        {
            "bufferView" : 2,
            "componentType" : 5126,
            "count" : 920,
            "type" : "VEC2"
        },
        {
            "bufferView" : 3,
            "componentType" : 5123,
            "count" : 1464,
            "type" : "SCALAR"
        },
        {
            "bufferView" : 5,
            "componentType" : 5126,
            "count" : 41,
            "max" : [
                1.3333333333333333
            ],
            "min" : [
                0
            ],
            "type" : "SCALAR"
        },
        {
            "bufferView" : 6,
            "componentType" : 5126,
            "count" : 41,
            "type" : "VEC3"
        },
        {
            "bufferView" : 7,
            "componentType" : 5126,
            "count" : 41,
            "type" : "VEC4"
        },
        {
            "bufferView" : 8,
            "componentType" : 5126,
            "count" : 41,
            "type" : "VEC3"
        }
    ],
    "bufferViews" : [
        {
            "buffer" : 0,
            "byteLength" : 11040,
            "byteOffset" : 0,
            "target" : 34962
        },
        {
            "buffer" : 0,
            "byteLength" : 11040,
            "byteOffset" : 11040,
            "target" : 34962
        },
        {
            "buffer" : 0,
            "byteLength" : 7360,
            "byteOffset" : 22080,
            "target" : 34962
        },
        {
            "buffer" : 0,
            "byteLength" : 2928,
            "byteOffset" : 29440,
            "target" : 34963
        },
        {
            "buffer" : 0,
            "byteLength" : 1126,
            "byteOffset" : 32368
        },
        {
            "buffer" : 0,
            "byteLength" : 164,
            "byteOffset" : 33496
        },
        {
            "buffer" : 0,
            "byteLength" : 492,
            "byteOffset" : 33660
        },
        {
            "buffer" : 0,
            "byteLength" : 656,
            "byteOffset" : 34152
        },
        {
            "buffer" : 0,
            "byteLength" : 492,
            "byteOffset" : 34808
        }
    ],
    "samplers" : [
        {
            "magFilter" : 9728,
            "minFilter" : 9984
        }
    ],
    "buffers" : [
        {
            "byteLength" : 35300,
            "uri" : "data:application/octet-stream;base64,"
        }
    ]
}
