{
    "asset" : {
        "generator" : "Khronos glTF Blender I/O v3.3.32",
        "version" : "2.0"
    },
    "scene" : 0,
    "scenes" : [
        {
            "name" : "Scene",
            "nodes" : [
                0,
                1
            ]
        }
    ],
    "nodes" : [
        {
            "mesh" : 0,
            "name" : "PoliceHat",
            "rotation" : [
                0.060893673449754715,
                -0.03810747340321541,
                0.05367013067007065,
                0.9959715604782104
            ],
            "translation" : [
                0.054755643010139465,
                -0.06923139095306396,
                0.089350625872612
            ]
        },
        {
            "mesh" : 1,
            "name" : "Police"
        }
    ],
    "animations" : [
        {
            "channels" : [
                {
                    "sampler" : 0,
                    "target" : {
                        "node" : 0,
                        "path" : "translation"
                    }
                },
                {
                    "sampler" : 1,
                    "target" : {
                        "node" : 0,
                        "path" : "rotation"
                    }
                },
                {
                    "sampler" : 2,
                    "target" : {
                        "node" : 0,
                        "path" : "scale"
                    }
                }
            ],
            "name" : "PoliceHat",
            "samplers" : [
                {
                    "input" : 8,
                    "interpolation" : "LINEAR",
                    "output" : 9
                },
                {
                    "input" : 8,
                    "interpolation" : "LINEAR",
                    "output" : 10
                },
                {
                    "input" : 8,
                    "interpolation" : "LINEAR",
                    "output" : 11
                }
            ]
        },
        {
            "channels" : [
                {
                    "sampler" : 0,
                    "target" : {
                        "node" : 1,
                        "path" : "translation"
                    }
                },
                {
                    "sampler" : 1,
                    "target" : {
                        "node" : 1,
                        "path" : "rotation"
                    }
                },
                {
                    "sampler" : 2,
                    "target" : {
                        "node" : 1,
                        "path" : "scale"
                    }
                }
            ],
            "name" : "Police",
            "samplers" : [
                {
                    "input" : 8,
                    "interpolation" : "LINEAR",
                    "output" : 12
                },
                {
                    "input" : 8,
                    "interpolation" : "LINEAR",
                    "output" : 13
                },
                {
                    "input" : 8,
                    "interpolation" : "LINEAR",
                    "output" : 14
                }
            ]
        }
    ],
    "materials" : [
        {
            "doubleSided" : true,
            "name" : "Material",
            "pbrMetallicRoughness" : {
                "baseColorTexture" : {
                    "index" : 0
                },
                "metallicFactor" : 0,
                "roughnessFactor" : 0.4000000059604645
            }
        }
    ],
    "meshes" : [
        {
            "name" : "Cube.001",
            "primitives" : [
                {
                    "attributes" : {
                        "POSITION" : 0,
                        "NORMAL" : 1,
                        "TEXCOORD_0" : 2
                    },
                    "indices" : 3,
                    "material" : 0
                }
            ]
        },
        {
            "name" : "Cube",
            "primitives" : [
                {
                    "attributes" : {
                        "POSITION" : 4,
                        "NORMAL" : 5,
                        "TEXCOORD_0" : 6
                    },
                    "indices" : 7,
                    "material" : 0
                }
            ]
        }
    ],
    "textures" : [
        {
            "sampler" : 0,
            "source" : 0
        }
    ],
    "images" : [
        {
            "bufferView" : 4,
            "mimeType" : "image/png",
            "name" : "ImphenziaPalette01"
        }
    ],
    "accessors" : [
        {
            "bufferView" : 0,
            "componentType" : 5126,
            "count" : 112,
            "max" : [
                0.33706870675086975,
                1.7119888067245483,
                0.4121396541595459
            ],
            "min" : [
                -0.33706870675086975,
                1.3383711576461792,
                -0.2504361569881439
            ],
            "type" : "VEC3"
        },
        {
            "bufferView" : 1,
            "componentType" : 5126,
            "count" : 112,
            "type" : "VEC3"
        },
        {
            "bufferView" : 2,
            "componentType" : 5126,
            "count" : 112,
            "type" : "VEC2"
        },
        {
            "bufferView" : 3,
            "componentType" : 5123,
            "count" : 168,
            "type" : "SCALAR"
        },
        {
            "bufferView" : 5,
            "componentType" : 5126,
            "count" : 928,
            "max" : [
                0.65101557970047,
                1.510682225227356,
                0.2256895750761032
            ],
            "min" : [
                -0.65101557970047,
                0.00226038321852684,
                -0.2113465964794159
            ],
            "type" : "VEC3"
        },
        {
            "bufferView" : 6,
            "componentType" : 5126,
            "count" : 928,
            "type" : "VEC3"
        },
        {
            "bufferView" : 7,
            "componentType" : 5126,
            "count" : 928,
            "type" : "VEC2"
        },
        {
            "bufferView" : 8,
            "componentType" : 5123,
            "count" : 1488,
            "type" : "SCALAR"
        },
        {
            "bufferView" : 9,
            "componentType" : 5126,
            "count" : 40,
            "max" : [
                1.3333333333333333
            ],
            "min" : [
                0.03333333333333333
            ],
            "type" : "SCALAR"
        },
        {
            "bufferView" : 10,
            "componentType" : 5126,
            "count" : 40,
            "type" : "VEC3"
        },
        {
            "bufferView" : 11,
            "componentType" : 5126,
            "count" : 40,
            "type" : "VEC4"
        },
        {
            "bufferView" : 12,
            "componentType" : 5126,
            "count" : 40,
            "type" : "VEC3"
        },
        {
            "bufferView" : 13,
            "componentType" : 5126,
            "count" : 40,
            "type" : "VEC3"
        },
        {
            "bufferView" : 14,
            "componentType" : 5126,
            "count" : 40,
            "type" : "VEC4"
        },
        {
            "bufferView" : 15,
            "componentType" : 5126,
            "count" : 40,
            "type" : "VEC3"
        }
    ],
    "bufferViews" : [
        {
            "buffer" : 0,
            "byteLength" : 1344,
            "byteOffset" : 0,
            "target" : 34962
        },
        {
            "buffer" : 0,
            "byteLength" : 1344,
            "byteOffset" : 1344,
            "target" : 34962
        },
        {
            "buffer" : 0,
            "byteLength" : 896,
            "byteOffset" : 2688,
            "target" : 34962
        },
        {
            "buffer" : 0,
            "byteLength" : 336,
            "byteOffset" : 3584,
            "target" : 34963
        },
        {
            "buffer" : 0,
            "byteLength" : 1140,
            "byteOffset" : 3920
        },
        {
            "buffer" : 0,
            "byteLength" : 11136,
            "byteOffset" : 5060,
            "target" : 34962
        },
        {
            "buffer" : 0,
            "byteLength" : 11136,
            "byteOffset" : 16196,
            "target" : 34962
        },
        {
            "buffer" : 0,
            "byteLength" : 7424,
            "byteOffset" : 27332,
            "target" : 34962
        },
        {
            "buffer" : 0,
            "byteLength" : 2976,
            "byteOffset" : 34756,
            "target" : 34963
        },
        {
            "buffer" : 0,
            "byteLength" : 160,
            "byteOffset" : 37732
        },
        {
            "buffer" : 0,
            "byteLength" : 480,
            "byteOffset" : 37892
        },
        {
            "buffer" : 0,
            "byteLength" : 640,
            "byteOffset" : 38372
        },
        {
            "buffer" : 0,
            "byteLength" : 480,
            "byteOffset" : 39012
        },
        {
            "buffer" : 0,
            "byteLength" : 480,
            "byteOffset" : 39492
        },
        {
            "buffer" : 0,
            "byteLength" : 640,
            "byteOffset" : 39972
        },
        {
            "buffer" : 0,
            "byteLength" : 480,
            "byteOffset" : 40612
        }
    ],
    "samplers" : [
        {
            "magFilter" : 9728,
            "minFilter" : 9984
        }
    ],
    "buffers" : [
        {
            "byteLength" : 41092,
            "uri" : "data:application/octet-stream;base64,"
        }
    ]
}
