{
    "asset" : {
        "generator" : "Khronos glTF Blender I/O v3.2.40",
        "version" : "2.0"
    },
    "extensionsUsed" : [
        "KHR_materials_transmission"
    ],
    "scene" : 0,
    "scenes" : [
        {
            "name" : "Scene",
            "nodes" : [
                0,
                1,
                2
            ]
        }
    ],
    "nodes" : [
        {
            "mesh" : 0,
            "name" : "Plane",
            "translation" : [
                0,
                1.4879176616668701,
                0
            ]
        },
        {
            "mesh" : 1,
            "name" : "Cylinder",
            "rotation" : [
                0,
                0,
                -0.7071067094802856,
                0.7071068286895752
            ],
            "translation" : [
                0,
                0.022013604640960693,
                0
            ]
        },
        {
            "name" : "Empty",
            "translation" : [
                0,
                0.45498520135879517,
                0.08274699002504349
            ]
        }
    ],
    "materials" : [
        {
            "doubleSided" : true,
            "name" : "Car Paint",
            "pbrMetallicRoughness" : {
                "baseColorFactor" : [
                    0.19113658368587494,
                    1,
                    0.15988463163375854,
                    1
                ],
                "metallicFactor" : 0.5803108811378479,
                "roughnessFactor" : 0.06735751777887344
            }
        },
        {
            "doubleSided" : true,
            "extensions" : {
                "KHR_materials_transmission" : {
                    "transmissionFactor" : 1
                }
            },
            "name" : "Glass",
            "pbrMetallicRoughness" : {
                "baseColorFactor" : [
                    0.23571431636810303,
                    0.23571431636810303,
                    0.23571431636810303,
                    1
                ],
                "metallicFactor" : 0,
                "roughnessFactor" : 0.08549222350120544
            }
        },
        {
            "doubleSided" : true,
            "name" : "Bumber",
            "pbrMetallicRoughness" : {
                "baseColorFactor" : [
                    0.03740966320037842,
                    0.03740966320037842,
                    0.03740966320037842,
                    1
                ],
                "metallicFactor" : 0,
                "roughnessFactor" : 0.9689119458198547
            }
        },
        {
            "doubleSided" : true,
            "name" : "License Plate",
            "pbrMetallicRoughness" : {
                "baseColorFactor" : [
                    0.1328631192445755,
                    0.1328631192445755,
                    0.1328631192445755,
                    1
                ],
                "metallicFactor" : 0,
                "roughnessFactor" : 0.5
            }
        },
        {
            "doubleSided" : true,
            "name" : "Headlight",
            "pbrMetallicRoughness" : {
                "baseColorFactor" : [
                    0.8000000715255737,
                    0.48830267786979675,
                    0.05359501391649246,
                    1
                ],
                "metallicFactor" : 0,
                "roughnessFactor" : 0.020725388079881668
            }
        },
        {
            "doubleSided" : true,
            "name" : "Backlight",
            "pbrMetallicRoughness" : {
                "baseColorFactor" : [
                    0.8000000715255737,
                    0.05635111778974533,
                    0.042737849056720734,
                    1
                ],
                "metallicFactor" : 0,
                "roughnessFactor" : 0.02331605553627014
            }
        },
        {
            "doubleSided" : true,
            "name" : "Tires",
            "pbrMetallicRoughness" : {
                "baseColorFactor" : [
                    0,
                    0,
                    0,
                    1
                ],
                "metallicFactor" : 0,
                "roughnessFactor" : 0.8056994676589966
            }
        },
        {
            "doubleSided" : true,
            "name" : "Hub Cap",
            "pbrMetallicRoughness" : {
                "baseColorFactor" : [
                    0.3672373592853546,
                    0.3672373592853546,
                    0.3672373592853546,
                    1
                ],
                "roughnessFactor" : 0.43264248967170715
            }
        }
    ],
    "meshes" : [
        {
            "name" : "Plane",
            "primitives" : [
                {
                    "attributes" : {
                        "POSITION" : 0,
                        "NORMAL" : 1,
                        "TEXCOORD_0" : 2
                    },
                    "indices" : 3,
                    "material" : 0
                },
                {
                    "attributes" : {
                        "POSITION" : 4,
                        "NORMAL" : 5,
                        "TEXCOORD_0" : 6
                    },
                    "indices" : 7,
                    "material" : 1
                },
                {
                    "attributes" : {
                        "POSITION" : 8,
                        "NORMAL" : 9,
                        "TEXCOORD_0" : 10
                    },
                    "indices" : 11,
                    "material" : 2
                },
                {
                    "attributes" : {
                        "POSITION" : 12,
                        "NORMAL" : 13,
                        "TEXCOORD_0" : 14
                    },
                    "indices" : 15,
                    "material" : 3
                },
                {
                    "attributes" : {
                        "POSITION" : 16,
                        "NORMAL" : 17,
                        "TEXCOORD_0" : 18
                    },
                    "indices" : 19,
                    "material" : 4
                },
                {
                    "attributes" : {
                        "POSITION" : 20,
                        "NORMAL" : 21,
                        "TEXCOORD_0" : 22
                    },
                    "indices" : 23,
                    "material" : 5
                }
            ]
        },
        {
            "name" : "Cylinder",
            "primitives" : [
                {
                    "attributes" : {
                        "POSITION" : 24,
                        "NORMAL" : 25,
                        "TEXCOORD_0" : 26
                    },
                    "indices" : 27,
                    "material" : 6
                },
                {
                    "attributes" : {
                        "POSITION" : 28,
                        "NORMAL" : 29,
                        "TEXCOORD_0" : 30
                    },
                    "indices" : 31,
                    "material" : 7
                }
            ]
        }
    ],
    "accessors" : [
        {
            "bufferView" : 0,
            "componentType" : 5126,
            "count" : 876,
            "max" : [
                1.1141643524169922,
                1,
                2.195721387863159
            ],
            "min" : [
                -1.1141643524169922,
                -1.0281002521514893,
                -1.8696740865707397
            ],
            "type" : "VEC3"
        },
        {
            "bufferView" : 1,
            "componentType" : 5126,
            "count" : 876,
            "type" : "VEC3"
        },
        {
            "bufferView" : 2,
            "componentType" : 5126,
            "count" : 876,
            "type" : "VEC2"
        },
        {
            "bufferView" : 3,
            "componentType" : 5123,
            "count" : 1674,
            "type" : "SCALAR"
        },
        {
            "bufferView" : 4,
            "componentType" : 5126,
            "count" : 50,
            "max" : [
                1.098122000694275,
                0.9386571049690247,
                0.9466464519500732
            ],
            "min" : [
                -1.098122000694275,
                -0.18168620765209198,
                -1.7918052673339844
            ],
            "type" : "VEC3"
        },
        {
            "bufferView" : 5,
            "componentType" : 5126,
            "count" : 50,
            "type" : "VEC3"
        },
        {
            "bufferView" : 6,
            "componentType" : 5126,
            "count" : 50,
            "type" : "VEC2"
        },
        {
            "bufferView" : 7,
            "componentType" : 5123,
            "count" : 96,
            "type" : "SCALAR"
        },
        {
            "bufferView" : 8,
            "componentType" : 5126,
            "count" : 250,
            "max" : [
                0.8314595818519592,
                -0.31238797307014465,
                2.2341651916503906
            ],
            "min" : [
                -0.8314595818519592,
                -1.0281002521514893,
                -1.8696740865707397
            ],
            "type" : "VEC3"
        },
        {
            "bufferView" : 9,
            "componentType" : 5126,
            "count" : 250,
            "type" : "VEC3"
        },
        {
            "bufferView" : 10,
            "componentType" : 5126,
            "count" : 250,
            "type" : "VEC2"
        },
        {
            "bufferView" : 11,
            "componentType" : 5123,
            "count" : 468,
            "type" : "SCALAR"
        },
        {
            "bufferView" : 12,
            "componentType" : 5126,
            "count" : 96,
            "max" : [
                0.41194602847099304,
                -0.5078380703926086,
                2.258460521697998
            ],
            "min" : [
                -0.41194602847099304,
                -1.0370755195617676,
                -1.8951729536056519
            ],
            "type" : "VEC3"
        },
        {
            "bufferView" : 13,
            "componentType" : 5126,
            "count" : 96,
            "type" : "VEC3"
        },
        {
            "bufferView" : 14,
            "componentType" : 5126,
            "count" : 96,
            "type" : "VEC2"
        },
        {
            "bufferView" : 15,
            "componentType" : 5123,
            "count" : 180,
            "type" : "SCALAR"
        },
        {
            "bufferView" : 16,
            "componentType" : 5126,
            "count" : 208,
            "max" : [
                0.7093412280082703,
                -0.47094327211380005,
                2.267789125442505
            ],
            "min" : [
                -0.7093412280082703,
                -0.7223376631736755,
                2.184157609939575
            ],
            "type" : "VEC3"
        },
        {
            "bufferView" : 17,
            "componentType" : 5126,
            "count" : 208,
            "type" : "VEC3"
        },
        {
            "bufferView" : 18,
            "componentType" : 5126,
            "count" : 208,
            "type" : "VEC2"
        },
        {
            "bufferView" : 19,
            "componentType" : 5123,
            "count" : 324,
            "type" : "SCALAR"
        },
        {
            "bufferView" : 20,
            "componentType" : 5126,
            "count" : 48,
            "max" : [
                0.6964707970619202,
                -0.2647218704223633,
                -1.8209915161132812
            ],
            "min" : [
                -0.6964707970619202,
                -0.4681779146194458,
                -1.8621128797531128
            ],
            "type" : "VEC3"
        },
        {
            "bufferView" : 21,
            "componentType" : 5126,
            "count" : 48,
            "type" : "VEC3"
        },
        {
            "bufferView" : 22,
            "componentType" : 5126,
            "count" : 48,
            "type" : "VEC2"
        },
        {
            "bufferView" : 23,
            "componentType" : 5123,
            "count" : 72,
            "type" : "SCALAR"
        },
        {
            "bufferView" : 24,
            "componentType" : 5126,
            "count" : 1101,
            "max" : [
                0.02118772827088833,
                0.8608021140098572,
                1.7130789756774902
            ],
            "min" : [
                -0.952436625957489,
                -0.8608021140098572,
                -1.5475850105285645
            ],
            "type" : "VEC3"
        },
        {
            "bufferView" : 25,
            "componentType" : 5126,
            "count" : 1101,
            "type" : "VEC3"
        },
        {
            "bufferView" : 26,
            "componentType" : 5126,
            "count" : 1101,
            "type" : "VEC2"
        },
        {
            "bufferView" : 27,
            "componentType" : 5123,
            "count" : 1680,
            "type" : "SCALAR"
        },
        {
            "bufferView" : 28,
            "componentType" : 5126,
            "count" : 1616,
            "max" : [
                -0.123353973031044,
                0.8804733753204346,
                1.5648201704025269
            ],
            "min" : [
                -0.8078950047492981,
                -0.8804733753204346,
                -1.399326205253601
            ],
            "type" : "VEC3"
        },
        {
            "bufferView" : 29,
            "componentType" : 5126,
            "count" : 1616,
            "type" : "VEC3"
        },
        {
            "bufferView" : 30,
            "componentType" : 5126,
            "count" : 1616,
            "type" : "VEC2"
        },
        {
            "bufferView" : 31,
            "componentType" : 5123,
            "count" : 2496,
            "type" : "SCALAR"
        }
    ],
    "bufferViews" : [
        {
            "buffer" : 0,
            "byteLength" : 10512,
            "byteOffset" : 0
        },
        {
            "buffer" : 0,
            "byteLength" : 10512,
            "byteOffset" : 10512
        },
        {
            "buffer" : 0,
            "byteLength" : 7008,
            "byteOffset" : 21024
        },
        {
            "buffer" : 0,
            "byteLength" : 3348,
            "byteOffset" : 28032
        },
        {
            "buffer" : 0,
            "byteLength" : 600,
            "byteOffset" : 31380
        },
        {
            "buffer" : 0,
            "byteLength" : 600,
            "byteOffset" : 31980
        },
        {
            "buffer" : 0,
            "byteLength" : 400,
            "byteOffset" : 32580
        },
        {
            "buffer" : 0,
            "byteLength" : 192,
            "byteOffset" : 32980
        },
        {
            "buffer" : 0,
            "byteLength" : 3000,
            "byteOffset" : 33172
        },
        {
            "buffer" : 0,
            "byteLength" : 3000,
            "byteOffset" : 36172
        },
        {
            "buffer" : 0,
            "byteLength" : 2000,
            "byteOffset" : 39172
        },
        {
            "buffer" : 0,
            "byteLength" : 936,
            "byteOffset" : 41172
        },
        {
            "buffer" : 0,
            "byteLength" : 1152,
            "byteOffset" : 42108
        },
        {
            "buffer" : 0,
            "byteLength" : 1152,
            "byteOffset" : 43260
        },
        {
            "buffer" : 0,
            "byteLength" : 768,
            "byteOffset" : 44412
        },
        {
            "buffer" : 0,
            "byteLength" : 360,
            "byteOffset" : 45180
        },
        {
            "buffer" : 0,
            "byteLength" : 2496,
            "byteOffset" : 45540
        },
        {
            "buffer" : 0,
            "byteLength" : 2496,
            "byteOffset" : 48036
        },
        {
            "buffer" : 0,
            "byteLength" : 1664,
            "byteOffset" : 50532
        },
        {
            "buffer" : 0,
            "byteLength" : 648,
            "byteOffset" : 52196
        },
        {
            "buffer" : 0,
            "byteLength" : 576,
            "byteOffset" : 52844
        },
        {
            "buffer" : 0,
            "byteLength" : 576,
            "byteOffset" : 53420
        },
        {
            "buffer" : 0,
            "byteLength" : 384,
            "byteOffset" : 53996
        },
        {
            "buffer" : 0,
            "byteLength" : 144,
            "byteOffset" : 54380
        },
        {
            "buffer" : 0,
            "byteLength" : 13212,
            "byteOffset" : 54524
        },
        {
            "buffer" : 0,
            "byteLength" : 13212,
            "byteOffset" : 67736
        },
        {
            "buffer" : 0,
            "byteLength" : 8808,
            "byteOffset" : 80948
        },
        {
            "buffer" : 0,
            "byteLength" : 3360,
            "byteOffset" : 89756
        },
        {
            "buffer" : 0,
            "byteLength" : 19392,
            "byteOffset" : 93116
        },
        {
            "buffer" : 0,
            "byteLength" : 19392,
            "byteOffset" : 112508
        },
        {
            "buffer" : 0,
            "byteLength" : 12928,
            "byteOffset" : 131900
        },
        {
            "buffer" : 0,
            "byteLength" : 4992,
            "byteOffset" : 144828
        }
    ],
    "buffers" : [
        {
            "byteLength" : 149820,
            "uri" : "data:application/octet-stream;base64,"
        }
    ]
}
