{
    "asset" : {
        "generator" : "Khronos glTF Blender I/O v3.2.40",
        "version" : "2.0"
    },
    "extensionsUsed" : [
        "KHR_materials_transmission"
    ],
    "scene" : 0,
    "scenes" : [
        {
            "name" : "Scene",
            "nodes" : [
                0,
                1,
                2
            ]
        }
    ],
    "nodes" : [
        {
            "mesh" : 0,
            "name" : "Plane",
            "translation" : [
                0,
                1.4956384897232056,
                0
            ]
        },
        {
            "mesh" : 1,
            "name" : "Cylinder",
            "rotation" : [
                0,
                0,
                -0.7071067094802856,
                0.7071068286895752
            ],
            "translation" : [
                0,
                0.029734492301940918,
                0
            ]
        },
        {
            "name" : "Empty",
            "translation" : [
                0,
                0.4627060890197754,
                0.08274699002504349
            ]
        }
    ],
    "materials" : [
        {
            "doubleSided" : true,
            "name" : "Car Paint",
            "pbrMetallicRoughness" : {
                "baseColorFactor" : [
                    0.03700000047683716,
                    0.13330036401748657,
                    1,
                    1
                ],
                "metallicFactor" : 0.5803108811378479,
                "roughnessFactor" : 0.06735751777887344
            }
        },
        {
            "doubleSided" : true,
            "extensions" : {
                "KHR_materials_transmission" : {
                    "transmissionFactor" : 1
                }
            },
            "name" : "Glass",
            "pbrMetallicRoughness" : {
                "baseColorFactor" : [
                    0.23571431636810303,
                    0.23571431636810303,
                    0.23571431636810303,
                    1
                ],
                "metallicFactor" : 0,
                "roughnessFactor" : 0.08549222350120544
            }
        },
        {
            "doubleSided" : true,
            "name" : "Bumber",
            "pbrMetallicRoughness" : {
                "baseColorFactor" : [
                    0.03740966320037842,
                    0.03740966320037842,
                    0.03740966320037842,
                    1
                ],
                "metallicFactor" : 0,
                "roughnessFactor" : 0.9689119458198547
            }
        },
        {
            "doubleSided" : true,
            "name" : "License Plate",
            "pbrMetallicRoughness" : {
                "baseColorFactor" : [
                    0.1328631192445755,
                    0.1328631192445755,
                    0.1328631192445755,
                    1
                ],
                "metallicFactor" : 0,
                "roughnessFactor" : 0.5
            }
        },
        {
            "doubleSided" : true,
            "name" : "Headlight",
            "pbrMetallicRoughness" : {
                "baseColorFactor" : [
                    0.8000000715255737,
                    0.48830267786979675,
                    0.05359501391649246,
                    1
                ],
                "metallicFactor" : 0,
                "roughnessFactor" : 0.020725388079881668
            }
        },
        {
            "doubleSided" : true,
            "name" : "Backlight",
            "pbrMetallicRoughness" : {
                "baseColorFactor" : [
                    0.8000000715255737,
                    0.05635111778974533,
                    0.042737849056720734,
                    1
                ],
                "metallicFactor" : 0,
                "roughnessFactor" : 0.02331605553627014
            }
        },
        {
            "doubleSided" : true,
            "name" : "Tires",
            "pbrMetallicRoughness" : {
                "baseColorFactor" : [
                    0,
                    0,
                    0,
                    1
                ],
                "metallicFactor" : 0,
                "roughnessFactor" : 0.8056994676589966
            }
        },
        {
            "doubleSided" : true,
            "name" : "Hub Cap",
            "pbrMetallicRoughness" : {
                "baseColorFactor" : [
                    0.3672373592853546,
                    0.3672373592853546,
                    0.3672373592853546,
                    1
                ],
                "roughnessFactor" : 0.43264248967170715
            }
        }
    ],
    "meshes" : [
        {
            "name" : "Plane",
            "primitives" : [
                {
                    "attributes" : {
                        "POSITION" : 0,
                        "NORMAL" : 1,
                        "TEXCOORD_0" : 2
                    },
                    "indices" : 3,
                    "material" : 0
                },
                {
                    "attributes" : {
                        "POSITION" : 4,
                        "NORMAL" : 5,
                        "TEXCOORD_0" : 6
                    },
                    "indices" : 7,
                    "material" : 1
                },
                {
                    "attributes" : {
                        "POSITION" : 8,
                        "NORMAL" : 9,
                        "TEXCOORD_0" : 10
                    },
                    "indices" : 11,
                    "material" : 2
                },
                {
                    "attributes" : {
                        "POSITION" : 12,
                        "NORMAL" : 13,
                        "TEXCOORD_0" : 14
                    },
                    "indices" : 15,
                    "material" : 3
                },
                {
                    "attributes" : {
                        "POSITION" : 16,
                        "NORMAL" : 17,
                        "TEXCOORD_0" : 18
                    },
                    "indices" : 19,
                    "material" : 4
                },
                {
                    "attributes" : {
                        "POSITION" : 20,
                        "NORMAL" : 21,
                        "TEXCOORD_0" : 22
                    },
                    "indices" : 23,
                    "material" : 5
                }
            ]
        },
        {
            "name" : "Cylinder",
            "primitives" : [
                {
                    "attributes" : {
                        "POSITION" : 24,
                        "NORMAL" : 25,
                        "TEXCOORD_0" : 26
                    },
                    "indices" : 27,
                    "material" : 6
                },
                {
                    "attributes" : {
                        "POSITION" : 28,
                        "NORMAL" : 29,
                        "TEXCOORD_0" : 30
                    },
                    "indices" : 31,
                    "material" : 7
                }
            ]
        }
    ],
    "accessors" : [
        {
            "bufferView" : 0,
            "componentType" : 5126,
            "count" : 468,
            "max" : [
                1.1141643524169922,
                1,
                2.195721387863159
            ],
            "min" : [
                0,
                -1.0281002521514893,
                -1.8696740865707397
            ],
            "type" : "VEC3"
        },
        {
            "bufferView" : 1,
            "componentType" : 5126,
            "count" : 468,
            "type" : "VEC3"
        },
        {
            "bufferView" : 2,
            "componentType" : 5126,
            "count" : 468,
            "type" : "VEC2"
        },
        {
            "bufferView" : 3,
            "componentType" : 5123,
            "count" : 837,
            "type" : "SCALAR"
        },
        {
            "bufferView" : 4,
            "componentType" : 5126,
            "count" : 28,
            "max" : [
                1.098122000694275,
                0.9386571049690247,
                0.9466464519500732
            ],
            "min" : [
                0,
                -0.18168620765209198,
                -1.7918052673339844
            ],
            "type" : "VEC3"
        },
        {
            "bufferView" : 5,
            "componentType" : 5126,
            "count" : 28,
            "type" : "VEC3"
        },
        {
            "bufferView" : 6,
            "componentType" : 5126,
            "count" : 28,
            "type" : "VEC2"
        },
        {
            "bufferView" : 7,
            "componentType" : 5123,
            "count" : 48,
            "type" : "SCALAR"
        },
        {
            "bufferView" : 8,
            "componentType" : 5126,
            "count" : 138,
            "max" : [
                0.8314595818519592,
                -0.31238797307014465,
                2.2341651916503906
            ],
            "min" : [
                0,
                -1.0281002521514893,
                -1.8696740865707397
            ],
            "type" : "VEC3"
        },
        {
            "bufferView" : 9,
            "componentType" : 5126,
            "count" : 138,
            "type" : "VEC3"
        },
        {
            "bufferView" : 10,
            "componentType" : 5126,
            "count" : 138,
            "type" : "VEC2"
        },
        {
            "bufferView" : 11,
            "componentType" : 5123,
            "count" : 234,
            "type" : "SCALAR"
        },
        {
            "bufferView" : 12,
            "componentType" : 5126,
            "count" : 60,
            "max" : [
                0.41194602847099304,
                -0.5078380703926086,
                2.258460521697998
            ],
            "min" : [
                0,
                -1.0370755195617676,
                -1.8951729536056519
            ],
            "type" : "VEC3"
        },
        {
            "bufferView" : 13,
            "componentType" : 5126,
            "count" : 60,
            "type" : "VEC3"
        },
        {
            "bufferView" : 14,
            "componentType" : 5126,
            "count" : 60,
            "type" : "VEC2"
        },
        {
            "bufferView" : 15,
            "componentType" : 5123,
            "count" : 90,
            "type" : "SCALAR"
        },
        {
            "bufferView" : 16,
            "componentType" : 5126,
            "count" : 104,
            "max" : [
                0.7093412280082703,
                -0.47094327211380005,
                2.267789125442505
            ],
            "min" : [
                0.45794692635536194,
                -0.7223376631736755,
                2.184157609939575
            ],
            "type" : "VEC3"
        },
        {
            "bufferView" : 17,
            "componentType" : 5126,
            "count" : 104,
            "type" : "VEC3"
        },
        {
            "bufferView" : 18,
            "componentType" : 5126,
            "count" : 104,
            "type" : "VEC2"
        },
        {
            "bufferView" : 19,
            "componentType" : 5123,
            "count" : 162,
            "type" : "SCALAR"
        },
        {
            "bufferView" : 20,
            "componentType" : 5126,
            "count" : 24,
            "max" : [
                0.6964707970619202,
                -0.2647218704223633,
                -1.8209915161132812
            ],
            "min" : [
                0.35086026787757874,
                -0.4681779146194458,
                -1.8621128797531128
            ],
            "type" : "VEC3"
        },
        {
            "bufferView" : 21,
            "componentType" : 5126,
            "count" : 24,
            "type" : "VEC3"
        },
        {
            "bufferView" : 22,
            "componentType" : 5126,
            "count" : 24,
            "type" : "VEC2"
        },
        {
            "bufferView" : 23,
            "componentType" : 5123,
            "count" : 36,
            "type" : "SCALAR"
        },
        {
            "bufferView" : 24,
            "componentType" : 5126,
            "count" : 274,
            "max" : [
                0.02118772827088833,
                0.8608021140098572,
                1.7130789756774902
            ],
            "min" : [
                -0.9524365067481995,
                0.5646003484725952,
                0.7144162654876709
            ],
            "type" : "VEC3"
        },
        {
            "bufferView" : 25,
            "componentType" : 5126,
            "count" : 274,
            "type" : "VEC3"
        },
        {
            "bufferView" : 26,
            "componentType" : 5126,
            "count" : 274,
            "type" : "VEC2"
        },
        {
            "bufferView" : 27,
            "componentType" : 5123,
            "count" : 420,
            "type" : "SCALAR"
        },
        {
            "bufferView" : 28,
            "componentType" : 5126,
            "count" : 404,
            "max" : [
                -0.123353973031044,
                0.8804733753204346,
                1.5648201704025269
            ],
            "min" : [
                -0.8078948855400085,
                0,
                0.862675130367279
            ],
            "type" : "VEC3"
        },
        {
            "bufferView" : 29,
            "componentType" : 5126,
            "count" : 404,
            "type" : "VEC3"
        },
        {
            "bufferView" : 30,
            "componentType" : 5126,
            "count" : 404,
            "type" : "VEC2"
        },
        {
            "bufferView" : 31,
            "componentType" : 5123,
            "count" : 624,
            "type" : "SCALAR"
        }
    ],
    "bufferViews" : [
        {
            "buffer" : 0,
            "byteLength" : 5616,
            "byteOffset" : 0
        },
        {
            "buffer" : 0,
            "byteLength" : 5616,
            "byteOffset" : 5616
        },
        {
            "buffer" : 0,
            "byteLength" : 3744,
            "byteOffset" : 11232
        },
        {
            "buffer" : 0,
            "byteLength" : 1674,
            "byteOffset" : 14976
        },
        {
            "buffer" : 0,
            "byteLength" : 336,
            "byteOffset" : 16652
        },
        {
            "buffer" : 0,
            "byteLength" : 336,
            "byteOffset" : 16988
        },
        {
            "buffer" : 0,
            "byteLength" : 224,
            "byteOffset" : 17324
        },
        {
            "buffer" : 0,
            "byteLength" : 96,
            "byteOffset" : 17548
        },
        {
            "buffer" : 0,
            "byteLength" : 1656,
            "byteOffset" : 17644
        },
        {
            "buffer" : 0,
            "byteLength" : 1656,
            "byteOffset" : 19300
        },
        {
            "buffer" : 0,
            "byteLength" : 1104,
            "byteOffset" : 20956
        },
        {
            "buffer" : 0,
            "byteLength" : 468,
            "byteOffset" : 22060
        },
        {
            "buffer" : 0,
            "byteLength" : 720,
            "byteOffset" : 22528
        },
        {
            "buffer" : 0,
            "byteLength" : 720,
            "byteOffset" : 23248
        },
        {
            "buffer" : 0,
            "byteLength" : 480,
            "byteOffset" : 23968
        },
        {
            "buffer" : 0,
            "byteLength" : 180,
            "byteOffset" : 24448
        },
        {
            "buffer" : 0,
            "byteLength" : 1248,
            "byteOffset" : 24628
        },
        {
            "buffer" : 0,
            "byteLength" : 1248,
            "byteOffset" : 25876
        },
        {
            "buffer" : 0,
            "byteLength" : 832,
            "byteOffset" : 27124
        },
        {
            "buffer" : 0,
            "byteLength" : 324,
            "byteOffset" : 27956
        },
        {
            "buffer" : 0,
            "byteLength" : 288,
            "byteOffset" : 28280
        },
        {
            "buffer" : 0,
            "byteLength" : 288,
            "byteOffset" : 28568
        },
        {
            "buffer" : 0,
            "byteLength" : 192,
            "byteOffset" : 28856
        },
        {
            "buffer" : 0,
            "byteLength" : 72,
            "byteOffset" : 29048
        },
        {
            "buffer" : 0,
            "byteLength" : 3288,
            "byteOffset" : 29120
        },
        {
            "buffer" : 0,
            "byteLength" : 3288,
            "byteOffset" : 32408
        },
        {
            "buffer" : 0,
            "byteLength" : 2192,
            "byteOffset" : 35696
        },
        {
            "buffer" : 0,
            "byteLength" : 840,
            "byteOffset" : 37888
        },
        {
            "buffer" : 0,
            "byteLength" : 4848,
            "byteOffset" : 38728
        },
        {
            "buffer" : 0,
            "byteLength" : 4848,
            "byteOffset" : 43576
        },
        {
            "buffer" : 0,
            "byteLength" : 3232,
            "byteOffset" : 48424
        },
        {
            "buffer" : 0,
            "byteLength" : 1248,
            "byteOffset" : 51656
        }
    ],
    "buffers" : [
        {
            "byteLength" : 52904,
            "uri" : "data:application/octet-stream;base64,"
        }
    ]
}
