{
    "asset": {
        "generator": "Khronos glTF Blender I/O v3.2.40",
        "version": "2.0"
    },
    "scene": 0,
    "scenes": [
        {
            "name": "Scene",
            "nodes": [0]
        }
    ],
    "nodes": [
        {
            "mesh": 0,
            "name": "Intersection",
            "scale": [10, 10, 10]
        }
    ],
    "materials": [
        {
            "doubleSided": true,
            "name": "Street",
            "pbrMetallicRoughness": {
                "baseColorFactor": [
                    0.05780218169093132, 0.05780218169093132,
                    0.05780218169093132, 1
                ],
                "metallicFactor": 0,
                "roughnessFactor": 0.9145077466964722
            }
        },
        {
            "doubleSided": true,
            "name": "sidewalk",
            "pbrMetallicRoughness": {
                "baseColorFactor": [
                    0.25979799032211304, 0.25979799032211304,
                    0.25979799032211304, 1
                ],
                "metallicFactor": 0,
                "roughnessFactor": 0.6709844470024109
            }
        },
        {
            "doubleSided": true,
            "name": "WhiteStripes",
            "pbrMetallicRoughness": {
                "baseColorFactor": [
                    0.6500046849250793, 0.6500046849250793, 0.6500046849250793,
                    1
                ],
                "metallicFactor": 0,
                "roughnessFactor": 0.7227979302406311
            }
        }
    ],
    "meshes": [
        {
            "name": "Plane",
            "primitives": [
                {
                    "attributes": {
                        "POSITION": 0,
                        "NORMAL": 1,
                        "TEXCOORD_0": 2
                    },
                    "indices": 3,
                    "material": 0
                },
                {
                    "attributes": {
                        "POSITION": 4,
                        "NORMAL": 5,
                        "TEXCOORD_0": 6
                    },
                    "indices": 7,
                    "material": 1
                },
                {
                    "attributes": {
                        "POSITION": 8,
                        "NORMAL": 9,
                        "TEXCOORD_0": 10
                    },
                    "indices": 11,
                    "material": 2
                }
            ]
        }
    ],
    "accessors": [
        {
            "bufferView": 0,
            "componentType": 5126,
            "count": 257,
            "max": [1, 0.019999999552965164, 1],
            "min": [-1, 0, -1],
            "type": "VEC3"
        },
        {
            "bufferView": 1,
            "componentType": 5126,
            "count": 257,
            "type": "VEC3"
        },
        {
            "bufferView": 2,
            "componentType": 5126,
            "count": 257,
            "type": "VEC2"
        },
        {
            "bufferView": 3,
            "componentType": 5123,
            "count": 732,
            "type": "SCALAR"
        },
        {
            "bufferView": 4,
            "componentType": 5126,
            "count": 258,
            "max": [1, 0.019999999552965164, 1],
            "min": [-1, 0, -1],
            "type": "VEC3"
        },
        {
            "bufferView": 5,
            "componentType": 5126,
            "count": 258,
            "type": "VEC3"
        },
        {
            "bufferView": 6,
            "componentType": 5126,
            "count": 258,
            "type": "VEC2"
        },
        {
            "bufferView": 7,
            "componentType": 5123,
            "count": 468,
            "type": "SCALAR"
        },
        {
            "bufferView": 8,
            "componentType": 5126,
            "count": 1560,
            "max": [1, 0.0028830119408667088, 1],
            "min": [-1, -0.0002535394160076976, -1],
            "type": "VEC3"
        },
        {
            "bufferView": 9,
            "componentType": 5126,
            "count": 1560,
            "type": "VEC3"
        },
        {
            "bufferView": 10,
            "componentType": 5126,
            "count": 1560,
            "type": "VEC2"
        },
        {
            "bufferView": 11,
            "componentType": 5123,
            "count": 2736,
            "type": "SCALAR"
        }
    ],
    "bufferViews": [
        {
            "buffer": 0,
            "byteLength": 3084,
            "byteOffset": 0
        },
        {
            "buffer": 0,
            "byteLength": 3084,
            "byteOffset": 3084
        },
        {
            "buffer": 0,
            "byteLength": 2056,
            "byteOffset": 6168
        },
        {
            "buffer": 0,
            "byteLength": 1464,
            "byteOffset": 8224
        },
        {
            "buffer": 0,
            "byteLength": 3096,
            "byteOffset": 9688
        },
        {
            "buffer": 0,
            "byteLength": 3096,
            "byteOffset": 12784
        },
        {
            "buffer": 0,
            "byteLength": 2064,
            "byteOffset": 15880
        },
        {
            "buffer": 0,
            "byteLength": 936,
            "byteOffset": 17944
        },
        {
            "buffer": 0,
            "byteLength": 18720,
            "byteOffset": 18880
        },
        {
            "buffer": 0,
            "byteLength": 18720,
            "byteOffset": 37600
        },
        {
            "buffer": 0,
            "byteLength": 12480,
            "byteOffset": 56320
        },
        {
            "buffer": 0,
            "byteLength": 5472,
            "byteOffset": 68800
        }
    ],
    "buffers": [
        {
            "byteLength": 74272,
            "uri": "data:application/octet-stream;base64,"
        }
    ]
}
