{
    "asset" : {
        "generator" : "Khronos glTF Blender I/O v3.2.40",
        "version" : "2.0"
    },
    "scene" : 0,
    "scenes" : [
        {
            "name" : "Scene",
            "nodes" : [
                0
            ]
        }
    ],
    "nodes" : [
        {
            "mesh" : 0,
            "name" : "Intersection",
            "scale" : [
                10,
                10,
                10
            ]
        }
    ],
    "materials" : [
        {
            "doubleSided" : true,
            "name" : "Street",
            "pbrMetallicRoughness" : {
                "baseColorFactor" : [
                    0.05780218169093132,
                    0.05780218169093132,
                    0.05780218169093132,
                    1
                ],
                "metallicFactor" : 0,
                "roughnessFactor" : 0.9145077466964722
            }
        },
        {
            "doubleSided" : true,
            "name" : "sidewalk",
            "pbrMetallicRoughness" : {
                "baseColorFactor" : [
                    0.25979799032211304,
                    0.25979799032211304,
                    0.25979799032211304,
                    1
                ],
                "metallicFactor" : 0,
                "roughnessFactor" : 0.6709844470024109
            }
        },
        {
            "doubleSided" : true,
            "name" : "WhiteStripes",
            "pbrMetallicRoughness" : {
                "baseColorFactor" : [
                    0.6500046849250793,
                    0.6500046849250793,
                    0.6500046849250793,
                    1
                ],
                "metallicFactor" : 0,
                "roughnessFactor" : 0.7227979302406311
            }
        }
    ],
    "meshes" : [
        {
            "name" : "Plane",
            "primitives" : [
                {
                    "attributes" : {
                        "POSITION" : 0,
                        "NORMAL" : 1,
                        "TEXCOORD_0" : 2
                    },
                    "indices" : 3,
                    "material" : 0
                },
                {
                    "attributes" : {
                        "POSITION" : 4,
                        "NORMAL" : 5,
                        "TEXCOORD_0" : 6
                    },
                    "indices" : 7,
                    "material" : 1
                },
                {
                    "attributes" : {
                        "POSITION" : 8,
                        "NORMAL" : 9,
                        "TEXCOORD_0" : 10
                    },
                    "indices" : 11,
                    "material" : 2
                }
            ]
        }
    ],
    "accessors" : [
        {
            "bufferView" : 0,
            "componentType" : 5126,
            "count" : 63,
            "max" : [
                2.4835268064293814e-08,
                0.019999999552965164,
                1
            ],
            "min" : [
                -1,
                0,
                -2.9802322387695312e-08
            ],
            "type" : "VEC3"
        },
        {
            "bufferView" : 1,
            "componentType" : 5126,
            "count" : 63,
            "type" : "VEC3"
        },
        {
            "bufferView" : 2,
            "componentType" : 5126,
            "count" : 63,
            "type" : "VEC2"
        },
        {
            "bufferView" : 3,
            "componentType" : 5123,
            "count" : 183,
            "type" : "SCALAR"
        },
        {
            "bufferView" : 4,
            "componentType" : 5126,
            "count" : 65,
            "max" : [
                -0.4999999403953552,
                0.019999999552965164,
                1
            ],
            "min" : [
                -1,
                0,
                0.4999999403953552
            ],
            "type" : "VEC3"
        },
        {
            "bufferView" : 5,
            "componentType" : 5126,
            "count" : 65,
            "type" : "VEC3"
        },
        {
            "bufferView" : 6,
            "componentType" : 5126,
            "count" : 65,
            "type" : "VEC2"
        },
        {
            "bufferView" : 7,
            "componentType" : 5123,
            "count" : 117,
            "type" : "SCALAR"
        },
        {
            "bufferView" : 8,
            "componentType" : 5126,
            "count" : 392,
            "max" : [
                2.9802322387695312e-08,
                0.0028830119408667088,
                1
            ],
            "min" : [
                -1,
                -0.0002535394160076976,
                0
            ],
            "type" : "VEC3"
        },
        {
            "bufferView" : 9,
            "componentType" : 5126,
            "count" : 392,
            "type" : "VEC3"
        },
        {
            "bufferView" : 10,
            "componentType" : 5126,
            "count" : 392,
            "type" : "VEC2"
        },
        {
            "bufferView" : 11,
            "componentType" : 5123,
            "count" : 684,
            "type" : "SCALAR"
        }
    ],
    "bufferViews" : [
        {
            "buffer" : 0,
            "byteLength" : 756,
            "byteOffset" : 0
        },
        {
            "buffer" : 0,
            "byteLength" : 756,
            "byteOffset" : 756
        },
        {
            "buffer" : 0,
            "byteLength" : 504,
            "byteOffset" : 1512
        },
        {
            "buffer" : 0,
            "byteLength" : 366,
            "byteOffset" : 2016
        },
        {
            "buffer" : 0,
            "byteLength" : 780,
            "byteOffset" : 2384
        },
        {
            "buffer" : 0,
            "byteLength" : 780,
            "byteOffset" : 3164
        },
        {
            "buffer" : 0,
            "byteLength" : 520,
            "byteOffset" : 3944
        },
        {
            "buffer" : 0,
            "byteLength" : 234,
            "byteOffset" : 4464
        },
        {
            "buffer" : 0,
            "byteLength" : 4704,
            "byteOffset" : 4700
        },
        {
            "buffer" : 0,
            "byteLength" : 4704,
            "byteOffset" : 9404
        },
        {
            "buffer" : 0,
            "byteLength" : 3136,
            "byteOffset" : 14108
        },
        {
            "buffer" : 0,
            "byteLength" : 1368,
            "byteOffset" : 17244
        }
    ],
    "buffers" : [
        {
            "byteLength" : 18612,
            "uri" : "data:application/octet-stream;base64,"
        }
    ]
}
