{
    "asset" : {
        "generator" : "Khronos glTF Blender I/O v3.2.40",
        "version" : "2.0"
    },
    "scene" : 0,
    "scenes" : [
        {
            "name" : "Scene",
            "nodes" : [
                0,
                1
            ]
        }
    ],
    "nodes" : [
        {
            "mesh" : 0,
            "name" : "Straight Road crossing",
            "scale" : [
                10,
                10,
                10
            ]
        },
        {
            "mesh" : 1,
            "name" : "neuro_pedestrian_obj",
            "rotation" : [
                0.7071068286895752,
                0,
                0,
                0.7071067094802856
            ]
        }
    ],
    "materials" : [
        {
            "doubleSided" : true,
            "name" : "Street.001",
            "pbrMetallicRoughness" : {
                "baseColorFactor" : [
                    0.05780218169093132,
                    0.05780218169093132,
                    0.05780218169093132,
                    1
                ],
                "metallicFactor" : 0,
                "roughnessFactor" : 0.9145077466964722
            }
        },
        {
            "doubleSided" : true,
            "name" : "sidewalk.001",
            "pbrMetallicRoughness" : {
                "baseColorFactor" : [
                    0.2581826448440552,
                    0.25818270444869995,
                    0.25818294286727905,
                    1
                ],
                "metallicFactor" : 0,
                "roughnessFactor" : 0.6709844470024109
            }
        },
        {
            "doubleSided" : true,
            "name" : "WhiteStripes.001",
            "pbrMetallicRoughness" : {
                "baseColorFactor" : [
                    0.6500046849250793,
                    0.6500046849250793,
                    0.6500046849250793,
                    1
                ],
                "metallicFactor" : 0,
                "roughnessFactor" : 0.7227979302406311
            }
        },
        {
            "doubleSided" : true,
            "name" : "Default OBJ",
            "pbrMetallicRoughness" : {
                "baseColorTexture" : {
                    "index" : 0
                },
                "metallicFactor" : 0,
                "roughnessFactor" : 0.5
            }
        }
    ],
    "meshes" : [
        {
            "name" : "Plane.007",
            "primitives" : [
                {
                    "attributes" : {
                        "POSITION" : 0,
                        "NORMAL" : 1,
                        "TEXCOORD_0" : 2
                    },
                    "indices" : 3,
                    "material" : 0
                },
                {
                    "attributes" : {
                        "POSITION" : 4,
                        "NORMAL" : 5,
                        "TEXCOORD_0" : 6
                    },
                    "indices" : 7,
                    "material" : 1
                },
                {
                    "attributes" : {
                        "POSITION" : 8,
                        "NORMAL" : 9,
                        "TEXCOORD_0" : 10
                    },
                    "indices" : 11,
                    "material" : 2
                }
            ]
        },
        {
            "name" : "neuro_pedestrian_obj",
            "primitives" : [
                {
                    "attributes" : {
                        "POSITION" : 12,
                        "NORMAL" : 13,
                        "TEXCOORD_0" : 14
                    },
                    "indices" : 15,
                    "material" : 3
                }
            ]
        }
    ],
    "textures" : [
        {
            "sampler" : 0,
            "source" : 0
        }
    ],
    "images" : [
        {
            "bufferView" : 16,
            "mimeType" : "image/jpeg",
            "name" : "neuro_pedestrian_diffuse"
        }
    ],
    "accessors" : [
        {
            "bufferView" : 0,
            "componentType" : 5126,
            "count" : 88,
            "max" : [
                0.4999999403953552,
                0,
                1
            ],
            "min" : [
                -0.4999999403953552,
                0,
                -1
            ],
            "type" : "VEC3"
        },
        {
            "bufferView" : 1,
            "componentType" : 5126,
            "count" : 88,
            "type" : "VEC3"
        },
        {
            "bufferView" : 2,
            "componentType" : 5126,
            "count" : 88,
            "type" : "VEC2"
        },
        {
            "bufferView" : 3,
            "componentType" : 5123,
            "count" : 264,
            "type" : "SCALAR"
        },
        {
            "bufferView" : 4,
            "componentType" : 5126,
            "count" : 78,
            "max" : [
                1,
                0.019999999552965164,
                1
            ],
            "min" : [
                -1,
                0,
                -1
            ],
            "type" : "VEC3"
        },
        {
            "bufferView" : 5,
            "componentType" : 5126,
            "count" : 78,
            "type" : "VEC3"
        },
        {
            "bufferView" : 6,
            "componentType" : 5126,
            "count" : 78,
            "type" : "VEC2"
        },
        {
            "bufferView" : 7,
            "componentType" : 5123,
            "count" : 156,
            "type" : "SCALAR"
        },
        {
            "bufferView" : 8,
            "componentType" : 5126,
            "count" : 276,
            "max" : [
                0.42717018723487854,
                0.002896230900660157,
                1
            ],
            "min" : [
                -0.42891037464141846,
                -0.0018145700450986624,
                -1
            ],
            "type" : "VEC3"
        },
        {
            "bufferView" : 9,
            "componentType" : 5126,
            "count" : 276,
            "type" : "VEC3"
        },
        {
            "bufferView" : 10,
            "componentType" : 5126,
            "count" : 276,
            "type" : "VEC2"
        },
        {
            "bufferView" : 11,
            "componentType" : 5123,
            "count" : 516,
            "type" : "SCALAR"
        },
        {
            "bufferView" : 12,
            "componentType" : 5126,
            "count" : 300,
            "max" : [
                6.861217498779297,
                9.148780822753906,
                -0.14796820282936096
            ],
            "min" : [
                -6.894125938415527,
                -9.106283187866211,
                -5.786444664001465
            ],
            "type" : "VEC3"
        },
        {
            "bufferView" : 13,
            "componentType" : 5126,
            "count" : 300,
            "type" : "VEC3"
        },
        {
            "bufferView" : 14,
            "componentType" : 5126,
            "count" : 300,
            "type" : "VEC2"
        },
        {
            "bufferView" : 15,
            "componentType" : 5123,
            "count" : 792,
            "type" : "SCALAR"
        }
    ],
    "bufferViews" : [
        {
            "buffer" : 0,
            "byteLength" : 1056,
            "byteOffset" : 0
        },
        {
            "buffer" : 0,
            "byteLength" : 1056,
            "byteOffset" : 1056
        },
        {
            "buffer" : 0,
            "byteLength" : 704,
            "byteOffset" : 2112
        },
        {
            "buffer" : 0,
            "byteLength" : 528,
            "byteOffset" : 2816
        },
        {
            "buffer" : 0,
            "byteLength" : 936,
            "byteOffset" : 3344
        },
        {
            "buffer" : 0,
            "byteLength" : 936,
            "byteOffset" : 4280
        },
        {
            "buffer" : 0,
            "byteLength" : 624,
            "byteOffset" : 5216
        },
        {
            "buffer" : 0,
            "byteLength" : 312,
            "byteOffset" : 5840
        },
        {
            "buffer" : 0,
            "byteLength" : 3312,
            "byteOffset" : 6152
        },
        {
            "buffer" : 0,
            "byteLength" : 3312,
            "byteOffset" : 9464
        },
        {
            "buffer" : 0,
            "byteLength" : 2208,
            "byteOffset" : 12776
        },
        {
            "buffer" : 0,
            "byteLength" : 1032,
            "byteOffset" : 14984
        },
        {
            "buffer" : 0,
            "byteLength" : 3600,
            "byteOffset" : 16016
        },
        {
            "buffer" : 0,
            "byteLength" : 3600,
            "byteOffset" : 19616
        },
        {
            "buffer" : 0,
            "byteLength" : 2400,
            "byteOffset" : 23216
        },
        {
            "buffer" : 0,
            "byteLength" : 1584,
            "byteOffset" : 25616
        },
        {
            "buffer" : 0,
            "byteLength" : 575575,
            "byteOffset" : 27200
        }
    ],
    "samplers" : [
        {
            "magFilter" : 9729,
            "minFilter" : 9987
        }
    ],
    "buffers" : [
        {
            "byteLength" : 602776,
            "uri" : "data:application/octet-stream;base64,"
        }
    ]
}
