{
    "asset" : {
        "generator" : "Khronos glTF Blender I/O v3.2.40",
        "version" : "2.0"
    },
    "scene" : 0,
    "scenes" : [
        {
            "name" : "Scene",
            "nodes" : [
                0
            ]
        }
    ],
    "nodes" : [
        {
            "mesh" : 0,
            "name" : "Thomas",
            "rotation" : [
                0.7071068286895752,
                0,
                0,
                0.7071067094802856
            ]
        }
    ],
    "materials" : [
        {
            "doubleSided" : true,
            "name" : "Axel1Mtl",
            "pbrMetallicRoughness" : {
                "baseColorTexture" : {
                    "index" : 0
                },
                "metallicFactor" : 0
            }
        },
        {
            "doubleSided" : true,
            "name" : "Wheel1Mtl",
            "pbrMetallicRoughness" : {
                "baseColorTexture" : {
                    "index" : 1
                },
                "metallicFactor" : 0
            }
        }
    ],
    "meshes" : [
        {
            "name" : "Thomas",
            "primitives" : [
                {
                    "attributes" : {
                        "POSITION" : 0,
                        "NORMAL" : 1,
                        "TANGENT" : 2,
                        "TEXCOORD_0" : 3
                    },
                    "indices" : 4,
                    "material" : 0
                },
                {
                    "attributes" : {
                        "POSITION" : 5,
                        "NORMAL" : 6,
                        "TANGENT" : 7,
                        "TEXCOORD_0" : 8
                    },
                    "indices" : 9,
                    "material" : 1
                }
            ]
        }
    ],
    "textures" : [
        {
            "sampler" : 0,
            "source" : 0
        },
        {
            "sampler" : 0,
            "source" : 0
        }
    ],
    "images" : [
        {
            "bufferView" : 5,
            "mimeType" : "image/png",
            "name" : "Thomas"
        }
    ],
    "accessors" : [
        {
            "bufferView" : 0,
            "componentType" : 5126,
            "count" : 5510,
            "max" : [
                1.6595300436019897,
                5.443202018737793,
                -0.6845952272415161
            ],
            "min" : [
                -1.5829648971557617,
                -4.910518169403076,
                -3.2982022762298584
            ],
            "type" : "VEC3"
        },
        {
            "bufferView" : 1,
            "componentType" : 5126,
            "count" : 5510,
            "type" : "VEC3"
        },
        {
            "bufferView" : 2,
            "componentType" : 5126,
            "count" : 5510,
            "type" : "VEC4"
        },
        {
            "bufferView" : 3,
            "componentType" : 5126,
            "count" : 5510,
            "type" : "VEC2"
        },
        {
            "bufferView" : 4,
            "componentType" : 5123,
            "count" : 9168,
            "type" : "SCALAR"
        },
        {
            "bufferView" : 6,
            "componentType" : 5126,
            "count" : 14093,
            "max" : [
                2.1511340141296387,
                6.354998588562012,
                -0.6698814630508423
            ],
            "min" : [
                -2.0729832649230957,
                -5.747564792633057,
                -6.578864097595215
            ],
            "type" : "VEC3"
        },
        {
            "bufferView" : 7,
            "componentType" : 5126,
            "count" : 14093,
            "type" : "VEC3"
        },
        {
            "bufferView" : 8,
            "componentType" : 5126,
            "count" : 14093,
            "type" : "VEC4"
        },
        {
            "bufferView" : 9,
            "componentType" : 5126,
            "count" : 14093,
            "type" : "VEC2"
        },
        {
            "bufferView" : 10,
            "componentType" : 5123,
            "count" : 20523,
            "type" : "SCALAR"
        }
    ],
    "bufferViews" : [
        {
            "buffer" : 0,
            "byteLength" : 66120,
            "byteOffset" : 0
        },
        {
            "buffer" : 0,
            "byteLength" : 66120,
            "byteOffset" : 66120
        },
        {
            "buffer" : 0,
            "byteLength" : 88160,
            "byteOffset" : 132240
        },
        {
            "buffer" : 0,
            "byteLength" : 44080,
            "byteOffset" : 220400
        },
        {
            "buffer" : 0,
            "byteLength" : 18336,
            "byteOffset" : 264480
        },
        {
            "buffer" : 0,
            "byteLength" : 415208,
            "byteOffset" : 282816
        },
        {
            "buffer" : 0,
            "byteLength" : 169116,
            "byteOffset" : 698024
        },
        {
            "buffer" : 0,
            "byteLength" : 169116,
            "byteOffset" : 867140
        },
        {
            "buffer" : 0,
            "byteLength" : 225488,
            "byteOffset" : 1036256
        },
        {
            "buffer" : 0,
            "byteLength" : 112744,
            "byteOffset" : 1261744
        },
        {
            "buffer" : 0,
            "byteLength" : 41046,
            "byteOffset" : 1374488
        }
    ],
    "samplers" : [
        {
            "magFilter" : 9729,
            "minFilter" : 9987
        }
    ],
    "buffers" : [
        {
            "byteLength" : 1415536,
            "uri" : "data:application/octet-stream;base64,"
        }
    ]
}
