{
    "asset": {
        "generator": "Khronos glTF Blender I/O v3.2.40",
        "version": "2.0"
    },
    "scene": 0,
    "scenes": [
        {
            "name": "Scene",
            "nodes": [0, 1]
        }
    ],
    "nodes": [
        {
            "mesh": 0,
            "name": "Markt",
            "scale": [3.143298864364624, 3.143298864364624, 3.143298864364624],
            "translation": [-3.347423553466797, 2.732541561126709, -5.876943588256836]
        },
        {
            "mesh": 1,
            "name": "Markt Text",
            "rotation": [0.5000000596046448, -0.4999999403953552, 0.4999999403953552, 0.5000000596046448],
            "scale": [1.0962845087051392, 1.0962845087051392, 1.0962845087051392],
            "translation": [-9.297481536865234, 6.789957523345947, -4.214428901672363]
        }
    ],
    "materials": [
        {
            "doubleSided": true,
            "name": "Building.004",
            "pbrMetallicRoughness": {
                "baseColorFactor": [0.8000000715255737, 0.5100448131561279, 0.2224000245332718, 1],
                "metallicFactor": 0,
                "roughnessFactor": 0.5
            }
        },
        {
            "doubleSided": true,
            "name": "Window.004",
            "pbrMetallicRoughness": {
                "baseColorFactor": [0.5277180075645447, 0.5277180075645447, 0.5277180075645447, 1],
                "metallicFactor": 0,
                "roughnessFactor": 0.20000000298023224
            }
        },
        {
            "doubleSided": true,
            "name": "Concrete.004",
            "pbrMetallicRoughness": {
                "baseColorFactor": [0.09083760529756546, 0.09083760529756546, 0.09083760529756546, 1],
                "metallicFactor": 0,
                "roughnessFactor": 0.681347131729126
            }
        },
        {
            "doubleSided": true,
            "name": "Door Frame.004",
            "pbrMetallicRoughness": {
                "baseColorFactor": [0.19017738103866577, 0.11594973504543304, 0.03465213254094124, 1],
                "metallicFactor": 0,
                "roughnessFactor": 0.5
            }
        },
        {
            "doubleSided": true,
            "name": "Door.004",
            "pbrMetallicRoughness": {
                "baseColorFactor": [0.6151763200759888, 0.365796834230423, 0.20403751730918884, 1],
                "metallicFactor": 0,
                "roughnessFactor": 0.5
            }
        },
        {
            "doubleSided": true,
            "name": "Door Handle.004",
            "pbrMetallicRoughness": {
                "baseColorFactor": [0.035217709839344025, 0.035217709839344025, 0.035217709839344025, 1],
                "metallicFactor": 0,
                "roughnessFactor": 0.3601036071777344
            }
        },
        {
            "doubleSided": true,
            "name": "Material",
            "pbrMetallicRoughness": {
                "baseColorFactor": [0.14731365442276, 0.14731365442276, 0.14731365442276, 1],
                "metallicFactor": 0,
                "roughnessFactor": 0.5
            }
        }
    ],
    "meshes": [
        {
            "name": "Cube.006",
            "primitives": [
                {
                    "attributes": {
                        "POSITION": 0,
                        "NORMAL": 1,
                        "TEXCOORD_0": 2
                    },
                    "indices": 3,
                    "material": 0
                },
                {
                    "attributes": {
                        "POSITION": 4,
                        "NORMAL": 5,
                        "TEXCOORD_0": 6
                    },
                    "indices": 7,
                    "material": 1
                },
                {
                    "attributes": {
                        "POSITION": 8,
                        "NORMAL": 9,
                        "TEXCOORD_0": 10
                    },
                    "indices": 11,
                    "material": 2
                },
                {
                    "attributes": {
                        "POSITION": 12,
                        "NORMAL": 13,
                        "TEXCOORD_0": 14
                    },
                    "indices": 15,
                    "material": 3
                },
                {
                    "attributes": {
                        "POSITION": 16,
                        "NORMAL": 17,
                        "TEXCOORD_0": 18
                    },
                    "indices": 19,
                    "material": 4
                },
                {
                    "attributes": {
                        "POSITION": 20,
                        "NORMAL": 21,
                        "TEXCOORD_0": 22
                    },
                    "indices": 23,
                    "material": 5
                },
                {
                    "attributes": {
                        "POSITION": 24,
                        "NORMAL": 25,
                        "TEXCOORD_0": 26
                    },
                    "indices": 27,
                    "material": 6
                }
            ]
        },
        {
            "name": "Garage.001",
            "primitives": [
                {
                    "attributes": {
                        "POSITION": 28,
                        "NORMAL": 29,
                        "TEXCOORD_0": 30
                    },
                    "indices": 31
                }
            ]
        }
    ],
    "accessors": [
        {
            "bufferView": 0,
            "componentType": 5126,
            "count": 259,
            "max": [4.046367645263672, 2.2061007022857666, 5.021211624145508],
            "min": [-1.9076762199401855, -0.8593655824661255, -1.2687945365905762],
            "type": "VEC3"
        },
        {
            "bufferView": 1,
            "componentType": 5126,
            "count": 259,
            "type": "VEC3"
        },
        {
            "bufferView": 2,
            "componentType": 5126,
            "count": 259,
            "type": "VEC2"
        },
        {
            "bufferView": 3,
            "componentType": 5123,
            "count": 384,
            "type": "SCALAR"
        },
        {
            "bufferView": 4,
            "componentType": 5126,
            "count": 12,
            "max": [-1.109567642211914, 1.2868139743804932, 4.791357040405273],
            "min": [-1.109567642211914, -0.6106405854225159, -1.022278070449829],
            "type": "VEC3"
        },
        {
            "bufferView": 5,
            "componentType": 5126,
            "count": 12,
            "type": "VEC3"
        },
        {
            "bufferView": 6,
            "componentType": 5126,
            "count": 12,
            "type": "VEC2"
        },
        {
            "bufferView": 7,
            "componentType": 5123,
            "count": 12,
            "type": "SCALAR"
        },
        {
            "bufferView": 8,
            "componentType": 5126,
            "count": 338,
            "max": [4.213239669799805, 2.332777738571167, 5.021211624145508],
            "min": [-1.360058307647705, -0.8738791346549988, -1.2687945365905762],
            "type": "VEC3"
        },
        {
            "bufferView": 9,
            "componentType": 5126,
            "count": 338,
            "type": "VEC3"
        },
        {
            "bufferView": 10,
            "componentType": 5126,
            "count": 338,
            "type": "VEC2"
        },
        {
            "bufferView": 11,
            "componentType": 5123,
            "count": 501,
            "type": "SCALAR"
        },
        {
            "bufferView": 12,
            "componentType": 5126,
            "count": 112,
            "max": [-1.0070850849151611, 1.287048101425171, 4.8780517578125],
            "min": [-2.097064256668091, -0.6106407046318054, -1.1540849208831787],
            "type": "VEC3"
        },
        {
            "bufferView": 13,
            "componentType": 5126,
            "count": 112,
            "type": "VEC3"
        },
        {
            "bufferView": 14,
            "componentType": 5126,
            "count": 112,
            "type": "VEC2"
        },
        {
            "bufferView": 15,
            "componentType": 5123,
            "count": 162,
            "type": "SCALAR"
        },
        {
            "bufferView": 16,
            "componentType": 5126,
            "count": 10,
            "max": [-1.1715213060379028, 0.6906588077545166, 2.582141160964966],
            "min": [-1.1715213060379028, -0.610640287399292, 1.1735066175460815],
            "type": "VEC3"
        },
        {
            "bufferView": 17,
            "componentType": 5126,
            "count": 10,
            "type": "VEC3"
        },
        {
            "bufferView": 18,
            "componentType": 5126,
            "count": 10,
            "type": "VEC2"
        },
        {
            "bufferView": 19,
            "componentType": 5123,
            "count": 12,
            "type": "SCALAR"
        },
        {
            "bufferView": 20,
            "componentType": 5126,
            "count": 298,
            "max": [-1.151330590248108, -0.12920068204402924, 2.062412977218628],
            "min": [-1.2017022371292114, -0.17132626473903656, 1.7023531198501587],
            "type": "VEC3"
        },
        {
            "bufferView": 21,
            "componentType": 5126,
            "count": 298,
            "type": "VEC3"
        },
        {
            "bufferView": 22,
            "componentType": 5126,
            "count": 298,
            "type": "VEC2"
        },
        {
            "bufferView": 23,
            "componentType": 5123,
            "count": 324,
            "type": "SCALAR"
        },
        {
            "bufferView": 24,
            "componentType": 5126,
            "count": 4,
            "max": [4.246310710906982, -0.8693228960037231, 5.051046371459961],
            "min": [-2.1164329051971436, -0.8693228960037231, -1.311697244644165],
            "type": "VEC3"
        },
        {
            "bufferView": 25,
            "componentType": 5126,
            "count": 4,
            "type": "VEC3"
        },
        {
            "bufferView": 26,
            "componentType": 5126,
            "count": 4,
            "type": "VEC2"
        },
        {
            "bufferView": 27,
            "componentType": 5123,
            "count": 6,
            "type": "SCALAR"
        },
        {
            "bufferView": 28,
            "componentType": 5126,
            "count": 6022,
            "max": [7.8105010986328125, 0.09999997913837433, 0.013500001281499863],
            "min": [0.07199999690055847, -0.09999997913837433, -1.036500096321106],
            "type": "VEC3"
        },
        {
            "bufferView": 29,
            "componentType": 5126,
            "count": 6022,
            "type": "VEC3"
        },
        {
            "bufferView": 30,
            "componentType": 5126,
            "count": 6022,
            "type": "VEC2"
        },
        {
            "bufferView": 31,
            "componentType": 5123,
            "count": 10836,
            "type": "SCALAR"
        }
    ],
    "bufferViews": [
        {
            "buffer": 0,
            "byteLength": 3108,
            "byteOffset": 0
        },
        {
            "buffer": 0,
            "byteLength": 3108,
            "byteOffset": 3108
        },
        {
            "buffer": 0,
            "byteLength": 2072,
            "byteOffset": 6216
        },
        {
            "buffer": 0,
            "byteLength": 768,
            "byteOffset": 8288
        },
        {
            "buffer": 0,
            "byteLength": 144,
            "byteOffset": 9056
        },
        {
            "buffer": 0,
            "byteLength": 144,
            "byteOffset": 9200
        },
        {
            "buffer": 0,
            "byteLength": 96,
            "byteOffset": 9344
        },
        {
            "buffer": 0,
            "byteLength": 24,
            "byteOffset": 9440
        },
        {
            "buffer": 0,
            "byteLength": 4056,
            "byteOffset": 9464
        },
        {
            "buffer": 0,
            "byteLength": 4056,
            "byteOffset": 13520
        },
        {
            "buffer": 0,
            "byteLength": 2704,
            "byteOffset": 17576
        },
        {
            "buffer": 0,
            "byteLength": 1002,
            "byteOffset": 20280
        },
        {
            "buffer": 0,
            "byteLength": 1344,
            "byteOffset": 21284
        },
        {
            "buffer": 0,
            "byteLength": 1344,
            "byteOffset": 22628
        },
        {
            "buffer": 0,
            "byteLength": 896,
            "byteOffset": 23972
        },
        {
            "buffer": 0,
            "byteLength": 324,
            "byteOffset": 24868
        },
        {
            "buffer": 0,
            "byteLength": 120,
            "byteOffset": 25192
        },
        {
            "buffer": 0,
            "byteLength": 120,
            "byteOffset": 25312
        },
        {
            "buffer": 0,
            "byteLength": 80,
            "byteOffset": 25432
        },
        {
            "buffer": 0,
            "byteLength": 24,
            "byteOffset": 25512
        },
        {
            "buffer": 0,
            "byteLength": 3576,
            "byteOffset": 25536
        },
        {
            "buffer": 0,
            "byteLength": 3576,
            "byteOffset": 29112
        },
        {
            "buffer": 0,
            "byteLength": 2384,
            "byteOffset": 32688
        },
        {
            "buffer": 0,
            "byteLength": 648,
            "byteOffset": 35072
        },
        {
            "buffer": 0,
            "byteLength": 48,
            "byteOffset": 35720
        },
        {
            "buffer": 0,
            "byteLength": 48,
            "byteOffset": 35768
        },
        {
            "buffer": 0,
            "byteLength": 32,
            "byteOffset": 35816
        },
        {
            "buffer": 0,
            "byteLength": 12,
            "byteOffset": 35848
        },
        {
            "buffer": 0,
            "byteLength": 72264,
            "byteOffset": 35860
        },
        {
            "buffer": 0,
            "byteLength": 72264,
            "byteOffset": 108124
        },
        {
            "buffer": 0,
            "byteLength": 48176,
            "byteOffset": 180388
        },
        {
            "buffer": 0,
            "byteLength": 21672,
            "byteOffset": 228564
        }
    ],
    "buffers": [
        {
            "byteLength": 250236,
            "uri": "data:application/octet-stream;base64,"
        }
    ]
}
