{
    "asset" : {
        "generator" : "Khronos glTF Blender I/O v3.2.40",
        "version" : "2.0"
    },
    "scene" : 0,
    "scenes" : [
        {
            "name" : "Scene",
            "nodes" : [
                0,
                1,
                2,
                3,
                4
            ]
        }
    ],
    "nodes" : [
        {
            "mesh" : 0,
            "name" : "Plane.001",
            "rotation" : [
                0,
                -0.7071068286895752,
                0,
                0.7071067094802856
            ]
        },
        {
            "mesh" : 1,
            "name" : "Floor_3.001",
            "rotation" : [
                0.5,
                -0.4999999403953552,
                0.5000000596046448,
                0.5
            ],
            "scale" : [
                0.02499999850988388,
                0.02499999850988388,
                0.02499999850988388
            ],
            "translation" : [
                2.3960258960723877,
                1.1855870485305786,
                0.07947921752929688
            ]
        },
        {
            "mesh" : 2,
            "name" : "Bed_9.001",
            "rotation" : [
                0.5000000596046448,
                0.4999999403953552,
                -0.5000000596046448,
                0.5000000596046448
            ],
            "scale" : [
                0.02499999850988388,
                0.02499999850988388,
                0.02499999850988388
            ],
            "translation" : [
                -0.2802271842956543,
                0.11702971905469894,
                -5.336456298828125
            ]
        },
        {
            "mesh" : 3,
            "name" : "Bushes_3_8.001",
            "rotation" : [
                -0.3916776776313782,
                -0.5917424559593201,
                0.5123058557510376,
                0.4837067425251007
            ],
            "scale" : [
                0.02500000409781933,
                0.02500000223517418,
                0.02500000223517418
            ],
            "translation" : [
                3.256545066833496,
                0.8624077439308167,
                -5.441131591796875
            ]
        },
        {
            "mesh" : 4,
            "name" : "Skyscraper.001",
            "rotation" : [
                0.7071068286895752,
                0,
                -0.7071068286895752,
                5.338508302088485e-08
            ],
            "scale" : [
                0.02500000223517418,
                0.02500000409781933,
                0.02500000223517418
            ],
            "translation" : [
                1.832321047782898,
                -4.274541854858398,
                2.273590087890625
            ]
        }
    ],
    "materials" : [
        {
            "doubleSided" : true,
            "name" : "asphalt.008",
            "pbrMetallicRoughness" : {
                "baseColorFactor" : [
                    0.05780535936355591,
                    0.057805370539426804,
                    0.05780542641878128,
                    1
                ],
                "metallicFactor" : 0,
                "roughnessFactor" : 0.800000011920929
            }
        },
        {
            "doubleSided" : true,
            "name" : "World ap.008",
            "pbrMetallicRoughness" : {
                "baseColorTexture" : {
                    "index" : 0
                },
                "metallicFactor" : 0
            }
        }
    ],
    "meshes" : [
        {
            "name" : "Plane.009",
            "primitives" : [
                {
                    "attributes" : {
                        "POSITION" : 0,
                        "NORMAL" : 1,
                        "TEXCOORD_0" : 2
                    },
                    "indices" : 3,
                    "material" : 0
                }
            ]
        },
        {
            "name" : "Mesh.2773",
            "primitives" : [
                {
                    "attributes" : {
                        "POSITION" : 4,
                        "NORMAL" : 5,
                        "TEXCOORD_0" : 6
                    },
                    "indices" : 7,
                    "material" : 1
                }
            ]
        },
        {
            "name" : "Mesh.2774",
            "primitives" : [
                {
                    "attributes" : {
                        "POSITION" : 8,
                        "NORMAL" : 9,
                        "TEXCOORD_0" : 10
                    },
                    "indices" : 11,
                    "material" : 1
                }
            ]
        },
        {
            "name" : "Mesh.2775",
            "primitives" : [
                {
                    "attributes" : {
                        "POSITION" : 12,
                        "NORMAL" : 13,
                        "TEXCOORD_0" : 14
                    },
                    "indices" : 15,
                    "material" : 1
                }
            ]
        },
        {
            "name" : "Mesh.2772",
            "primitives" : [
                {
                    "attributes" : {
                        "POSITION" : 16,
                        "NORMAL" : 17,
                        "TEXCOORD_0" : 18
                    },
                    "indices" : 19,
                    "material" : 1
                }
            ]
        }
    ],
    "textures" : [
        {
            "sampler" : 0,
            "source" : 0
        }
    ],
    "images" : [
        {
            "bufferView" : 8,
            "mimeType" : "image/jpeg",
            "name" : "Image_0"
        }
    ],
    "accessors" : [
        {
            "bufferView" : 0,
            "componentType" : 5126,
            "count" : 4,
            "max" : [
                10,
                0,
                10
            ],
            "min" : [
                -10,
                0,
                -10
            ],
            "type" : "VEC3"
        },
        {
            "bufferView" : 1,
            "componentType" : 5126,
            "count" : 4,
            "type" : "VEC3"
        },
        {
            "bufferView" : 2,
            "componentType" : 5126,
            "count" : 4,
            "type" : "VEC2"
        },
        {
            "bufferView" : 3,
            "componentType" : 5123,
            "count" : 6,
            "type" : "SCALAR"
        },
        {
            "bufferView" : 4,
            "componentType" : 5126,
            "count" : 64,
            "max" : [
                276.8949279785156,
                240.8009796142578,
                52.44081497192383
            ],
            "min" : [
                -276.8949279785156,
                -240.8009796142578,
                31.087312698364258
            ],
            "type" : "VEC3"
        },
        {
            "bufferView" : 5,
            "componentType" : 5126,
            "count" : 64,
            "type" : "VEC3"
        },
        {
            "bufferView" : 6,
            "componentType" : 5126,
            "count" : 64,
            "type" : "VEC2"
        },
        {
            "bufferView" : 7,
            "componentType" : 5123,
            "count" : 84,
            "type" : "SCALAR"
        },
        {
            "bufferView" : 9,
            "componentType" : 5126,
            "count" : 154,
            "max" : [
                68.66214752197266,
                278.3833312988281,
                4.194338798522949
            ],
            "min" : [
                -14.328450202941895,
                -278.08538818359375,
                -13.572908401489258
            ],
            "type" : "VEC3"
        },
        {
            "bufferView" : 10,
            "componentType" : 5126,
            "count" : 154,
            "type" : "VEC3"
        },
        {
            "bufferView" : 11,
            "componentType" : 5126,
            "count" : 154,
            "type" : "VEC2"
        },
        {
            "bufferView" : 12,
            "componentType" : 5123,
            "count" : 180,
            "type" : "SCALAR"
        },
        {
            "bufferView" : 13,
            "componentType" : 5126,
            "count" : 4686,
            "max" : [
                101.65433502197266,
                65.54824829101562,
                393.3777770996094
            ],
            "min" : [
                -58.30091094970703,
                -13.17324447631836,
                -126.25851440429688
            ],
            "type" : "VEC3"
        },
        {
            "bufferView" : 14,
            "componentType" : 5126,
            "count" : 4686,
            "type" : "VEC3"
        },
        {
            "bufferView" : 15,
            "componentType" : 5126,
            "count" : 4686,
            "type" : "VEC2"
        },
        {
            "bufferView" : 16,
            "componentType" : 5123,
            "count" : 4800,
            "type" : "SCALAR"
        },
        {
            "bufferView" : 17,
            "componentType" : 5126,
            "count" : 678,
            "max" : [
                166.37599182128906,
                -157.04666137695312,
                301.29022216796875
            ],
            "min" : [
                -161.97581481933594,
                -1116.83740234375,
                -133.66403198242188
            ],
            "type" : "VEC3"
        },
        {
            "bufferView" : 18,
            "componentType" : 5126,
            "count" : 678,
            "type" : "VEC3"
        },
        {
            "bufferView" : 19,
            "componentType" : 5126,
            "count" : 678,
            "type" : "VEC2"
        },
        {
            "bufferView" : 20,
            "componentType" : 5123,
            "count" : 888,
            "type" : "SCALAR"
        }
    ],
    "bufferViews" : [
        {
            "buffer" : 0,
            "byteLength" : 48,
            "byteOffset" : 0
        },
        {
            "buffer" : 0,
            "byteLength" : 48,
            "byteOffset" : 48
        },
        {
            "buffer" : 0,
            "byteLength" : 32,
            "byteOffset" : 96
        },
        {
            "buffer" : 0,
            "byteLength" : 12,
            "byteOffset" : 128
        },
        {
            "buffer" : 0,
            "byteLength" : 768,
            "byteOffset" : 140
        },
        {
            "buffer" : 0,
            "byteLength" : 768,
            "byteOffset" : 908
        },
        {
            "buffer" : 0,
            "byteLength" : 512,
            "byteOffset" : 1676
        },
        {
            "buffer" : 0,
            "byteLength" : 168,
            "byteOffset" : 2188
        },
        {
            "buffer" : 0,
            "byteLength" : 283479,
            "byteOffset" : 2356
        },
        {
            "buffer" : 0,
            "byteLength" : 1848,
            "byteOffset" : 285836
        },
        {
            "buffer" : 0,
            "byteLength" : 1848,
            "byteOffset" : 287684
        },
        {
            "buffer" : 0,
            "byteLength" : 1232,
            "byteOffset" : 289532
        },
        {
            "buffer" : 0,
            "byteLength" : 360,
            "byteOffset" : 290764
        },
        {
            "buffer" : 0,
            "byteLength" : 56232,
            "byteOffset" : 291124
        },
        {
            "buffer" : 0,
            "byteLength" : 56232,
            "byteOffset" : 347356
        },
        {
            "buffer" : 0,
            "byteLength" : 37488,
            "byteOffset" : 403588
        },
        {
            "buffer" : 0,
            "byteLength" : 9600,
            "byteOffset" : 441076
        },
        {
            "buffer" : 0,
            "byteLength" : 8136,
            "byteOffset" : 450676
        },
        {
            "buffer" : 0,
            "byteLength" : 8136,
            "byteOffset" : 458812
        },
        {
            "buffer" : 0,
            "byteLength" : 5424,
            "byteOffset" : 466948
        },
        {
            "buffer" : 0,
            "byteLength" : 1776,
            "byteOffset" : 472372
        }
    ],
    "samplers" : [
        {
            "magFilter" : 9729,
            "minFilter" : 9987
        }
    ],
    "buffers" : [
        {
            "byteLength" : 474148,
            "uri" : "data:application/octet-stream;base64,"
        }
    ]
}
