{
    "asset": {
        "generator": "Khronos glTF Blender I/O v3.3.32",
        "version": "2.0"
    },
    "extensionsUsed": ["KHR_materials_emissive_strength"],
    "scene": 0,
    "scenes": [
        {
            "name": "Scene",
            "nodes": [0]
        }
    ],
    "nodes": [
        {
            "mesh": 0,
            "name": "traffic light"
        }
    ],
    "materials": [
        {
            "doubleSided": true,
            "emissiveFactor": [1, 1, 1],
            "emissiveTexture": {
                "index": 0
            },
            "extensions": {
                "KHR_materials_emissive_strength": {
                    "emissiveStrength": 2.3999998569488525
                }
            },
            "name": "traffic lamb",
            "normalTexture": {
                "index": 1
            },
            "pbrMetallicRoughness": {
                "baseColorTexture": {
                    "index": 2
                },
                "metallicRoughnessTexture": {
                    "index": 3
                }
            }
        }
    ],
    "meshes": [
        {
            "name": "Circle.077",
            "primitives": [
                {
                    "attributes": {
                        "POSITION": 0,
                        "NORMAL": 1,
                        "TEXCOORD_0": 2
                    },
                    "indices": 3,
                    "material": 0
                }
            ]
        }
    ],
    "textures": [
        {
            "sampler": 0,
            "source": 0
        },
        {
            "sampler": 0,
            "source": 1
        },
        {
            "sampler": 0,
            "source": 2
        },
        {
            "sampler": 0,
            "source": 3
        }
    ],
    "images": [
        {
            "bufferView": 4,
            "mimeType": "image/png",
            "name": "traffic light_DefaultMaterial_Emissive"
        },
        {
            "bufferView": 5,
            "mimeType": "image/png",
            "name": "traffic light_DefaultMaterial_Normal"
        },
        {
            "bufferView": 6,
            "mimeType": "image/png",
            "name": "traffic light_DefaultMaterial_BaseColor"
        },
        {
            "bufferView": 7,
            "mimeType": "image/png",
            "name": "traffic light_DefaultMaterial_Metallic-traffic light_DefaultMaterial_Roughness"
        }
    ],
    "accessors": [
        {
            "bufferView": 0,
            "componentType": 5126,
            "count": 2547,
            "max": [0.40311190485954285, 4.58042049407959, 0.3084201216697693],
            "min": [-0.40038785338401794, 0.03800320625305176, -0.537830114364624],
            "type": "VEC3"
        },
        {
            "bufferView": 1,
            "componentType": 5126,
            "count": 2547,
            "type": "VEC3"
        },
        {
            "bufferView": 2,
            "componentType": 5126,
            "count": 2547,
            "type": "VEC2"
        },
        {
            "bufferView": 3,
            "componentType": 5123,
            "count": 7380,
            "type": "SCALAR"
        }
    ],
    "bufferViews": [
        {
            "buffer": 0,
            "byteLength": 30564,
            "byteOffset": 0,
            "target": 34962
        },
        {
            "buffer": 0,
            "byteLength": 30564,
            "byteOffset": 30564,
            "target": 34962
        },
        {
            "buffer": 0,
            "byteLength": 20376,
            "byteOffset": 61128,
            "target": 34962
        },
        {
            "buffer": 0,
            "byteLength": 14760,
            "byteOffset": 81504,
            "target": 34963
        },
        {
            "buffer": 0,
            "byteLength": 53185,
            "byteOffset": 96264
        },
        {
            "buffer": 0,
            "byteLength": 876557,
            "byteOffset": 149452
        },
        {
            "buffer": 0,
            "byteLength": 587201,
            "byteOffset": 1026012
        },
        {
            "buffer": 0,
            "byteLength": 500125,
            "byteOffset": 1613216
        }
    ],
    "samplers": [
        {
            "magFilter": 9729,
            "minFilter": 9987
        }
    ],
    "buffers": [
        {
            "byteLength": 2113344,
            "uri": "data:application/octet-stream;base64,"
        }
    ]
}
