{
    "asset": {
        "generator": "Khronos glTF Blender I/O v3.2.40",
        "version": "2.0"
    },
    "scene": 0,
    "scenes": [
        {
            "name": "Scene",
            "nodes": [0, 1, 2, 3, 4, 5, 6, 7, 8, 9]
        }
    ],
    "nodes": [
        {
            "mesh": 0,
            "name": "Tree_average_bare",
            "scale": [0.41963839530944824, 0.41963839530944824, 0.41963839530944824],
            "translation": [0, 0, -1]
        },
        {
            "mesh": 1,
            "name": "SimpleGround.003",
            "scale": [0.41963839530944824, 0.41963839530944824, 0.41963839530944824]
        },
        {
            "mesh": 2,
            "name": "Tree_Spruce_tiny_02.001",
            "scale": [0.41963839530944824, 0.41963839530944824, 0.41963839530944824],
            "translation": [-6.158336639404297, 0, 7.970840930938721]
        },
        {
            "mesh": 3,
            "name": "Bush_group_big.001",
            "rotation": [0, -0.5454455614089966, 0, 0.8381462693214417],
            "scale": [0.41963839530944824, 0.41963839530944824, 0.41963839530944824],
            "translation": [3.374998092651367, 0, 2.9429874420166016]
        },
        {
            "mesh": 4,
            "name": "Tree_Spruce_small_01.003",
            "scale": [0.41963839530944824, 0.41963839530944824, 0.41963839530944824],
            "translation": [7.161823272705078, 0, -4.842245578765869]
        },
        {
            "mesh": 5,
            "name": "Grass_bush_high_01.004",
            "rotation": [-0.0641755759716034, -0.9971315860748291, -0.025813160464167595, 0.030720628798007965],
            "scale": [0.41963842511177063, 0.41963839530944824, 0.41963839530944824],
            "translation": [-4.923130035400391, 0, -3.9720940589904785]
        },
        {
            "mesh": 6,
            "name": "Grass_bush_high_01.005",
            "rotation": [-0.0641755759716034, -0.9971315860748291, -0.025813160464167595, 0.030720628798007965],
            "scale": [0.41963842511177063, 0.41963839530944824, 0.41963839530944824],
            "translation": [-0.1930694580078125, 0, -0.27803587913513184]
        },
        {
            "mesh": 7,
            "name": "Stump_average_high",
            "scale": [0.41963839530944824, 0.41963839530944824, 0.41963839530944824],
            "translation": [1.6545639038085938, 0, 9.264421463012695]
        },
        {
            "mesh": 8,
            "name": "Log_big_regular",
            "rotation": [0, 0.16823385655879974, 0, 0.9857470989227295],
            "scale": [0.41963836550712585, 0.41963839530944824, 0.41963836550712585],
            "translation": [-6.299289703369141, 0, -4.477486610412598]
        },
        {
            "mesh": 9,
            "name": "Branch_average_bare",
            "rotation": [0, -0.2862221896648407, 0, 0.9581632614135742],
            "scale": [0.41963839530944824, 0.41963839530944824, 0.41963839530944824],
            "translation": [-1.6369247436523438, 0, 3]
        }
    ],
    "materials": [
        {
            "doubleSided": true,
            "name": "AllColors_Material",
            "pbrMetallicRoughness": {
                "baseColorTexture": {
                    "index": 0
                },
                "metallicFactor": 0,
                "roughnessFactor": 0.4000000059604645
            }
        },
        {
            "doubleSided": true,
            "name": "Grass.002",
            "pbrMetallicRoughness": {
                "baseColorFactor": [0.17788811028003693, 0.4178849160671234, 0.038204483687877655, 1],
                "metallicFactor": 0,
                "roughnessFactor": 0.75
            }
        },
        {
            "doubleSided": true,
            "name": "AllColors_Material.012",
            "pbrMetallicRoughness": {
                "baseColorTexture": {
                    "index": 1
                },
                "metallicFactor": 0,
                "roughnessFactor": 0.4000000059604645
            }
        },
        {
            "doubleSided": true,
            "name": "AllColors_Material.013",
            "pbrMetallicRoughness": {
                "baseColorTexture": {
                    "index": 2
                },
                "metallicFactor": 0,
                "roughnessFactor": 0.4000000059604645
            }
        },
        {
            "doubleSided": true,
            "name": "AllColors_Material.014",
            "pbrMetallicRoughness": {
                "baseColorTexture": {
                    "index": 3
                },
                "metallicFactor": 0,
                "roughnessFactor": 0.4000000059604645
            }
        },
        {
            "doubleSided": true,
            "name": "AllColors_Material.018",
            "pbrMetallicRoughness": {
                "baseColorTexture": {
                    "index": 4
                },
                "metallicFactor": 0,
                "roughnessFactor": 0.4000000059604645
            }
        },
        {
            "doubleSided": true,
            "name": "AllColors_Material.019",
            "pbrMetallicRoughness": {
                "baseColorTexture": {
                    "index": 5
                },
                "metallicFactor": 0,
                "roughnessFactor": 0.4000000059604645
            }
        }
    ],
    "meshes": [
        {
            "name": "Cube",
            "primitives": [
                {
                    "attributes": {
                        "POSITION": 0,
                        "NORMAL": 1,
                        "TEXCOORD_0": 2
                    },
                    "indices": 3,
                    "material": 0
                }
            ]
        },
        {
            "name": "Plane.010",
            "primitives": [
                {
                    "attributes": {
                        "POSITION": 4,
                        "NORMAL": 5,
                        "TEXCOORD_0": 6
                    },
                    "indices": 7,
                    "material": 1
                }
            ]
        },
        {
            "name": "Cylinder.004",
            "primitives": [
                {
                    "attributes": {
                        "POSITION": 8,
                        "NORMAL": 9,
                        "TEXCOORD_0": 10
                    },
                    "indices": 11,
                    "material": 2
                }
            ]
        },
        {
            "name": "Plane.011",
            "primitives": [
                {
                    "attributes": {
                        "POSITION": 12,
                        "NORMAL": 13,
                        "TEXCOORD_0": 14
                    },
                    "indices": 15,
                    "material": 3
                }
            ]
        },
        {
            "name": "Cylinder.005",
            "primitives": [
                {
                    "attributes": {
                        "POSITION": 16,
                        "NORMAL": 17,
                        "TEXCOORD_0": 18
                    },
                    "indices": 19,
                    "material": 4
                }
            ]
        },
        {
            "name": "Plane.015",
            "primitives": [
                {
                    "attributes": {
                        "POSITION": 20,
                        "NORMAL": 21,
                        "TEXCOORD_0": 22
                    },
                    "indices": 23,
                    "material": 5
                }
            ]
        },
        {
            "name": "Plane.017",
            "primitives": [
                {
                    "attributes": {
                        "POSITION": 24,
                        "NORMAL": 25,
                        "TEXCOORD_0": 26
                    },
                    "indices": 23,
                    "material": 6
                }
            ]
        },
        {
            "name": "Cube.015",
            "primitives": [
                {
                    "attributes": {
                        "POSITION": 27,
                        "NORMAL": 28,
                        "TEXCOORD_0": 29
                    },
                    "indices": 30,
                    "material": 0
                }
            ]
        },
        {
            "name": "Cylinder.015",
            "primitives": [
                {
                    "attributes": {
                        "POSITION": 31,
                        "NORMAL": 32,
                        "TEXCOORD_0": 33
                    },
                    "indices": 34,
                    "material": 0
                }
            ]
        },
        {
            "name": "Cylinder.024",
            "primitives": [
                {
                    "attributes": {
                        "POSITION": 35,
                        "NORMAL": 36,
                        "TEXCOORD_0": 37
                    },
                    "indices": 38,
                    "material": 0
                }
            ]
        }
    ],
    "textures": [
        {
            "sampler": 0,
            "source": 0
        },
        {
            "sampler": 0,
            "source": 0
        },
        {
            "sampler": 0,
            "source": 0
        },
        {
            "sampler": 0,
            "source": 0
        },
        {
            "sampler": 0,
            "source": 0
        },
        {
            "sampler": 0,
            "source": 0
        }
    ],
    "images": [
        {
            "bufferView": 4,
            "mimeType": "image/png",
            "name": "texture_gradient"
        }
    ],
    "accessors": [
        {
            "bufferView": 0,
            "componentType": 5126,
            "count": 495,
            "max": [4.8696675300598145, 14.301104545593262, 1.855784296989441],
            "min": [-7.21663761138916, 0, -4.263148784637451],
            "type": "VEC3"
        },
        {
            "bufferView": 1,
            "componentType": 5126,
            "count": 495,
            "type": "VEC3"
        },
        {
            "bufferView": 2,
            "componentType": 5126,
            "count": 495,
            "type": "VEC2"
        },
        {
            "bufferView": 3,
            "componentType": 5123,
            "count": 696,
            "type": "SCALAR"
        },
        {
            "bufferView": 5,
            "componentType": 5126,
            "count": 4,
            "max": [23.830039978027344, 0, 23.830041885375977],
            "min": [-23.830039978027344, 0, -23.830041885375977],
            "type": "VEC3"
        },
        {
            "bufferView": 6,
            "componentType": 5126,
            "count": 4,
            "type": "VEC3"
        },
        {
            "bufferView": 7,
            "componentType": 5126,
            "count": 4,
            "type": "VEC2"
        },
        {
            "bufferView": 8,
            "componentType": 5123,
            "count": 6,
            "type": "SCALAR"
        },
        {
            "bufferView": 9,
            "componentType": 5126,
            "count": 634,
            "max": [3.916187286376953, 10.98141098022461, 3.684375047683716],
            "min": [-3.7490744590759277, 0, -3.8950767517089844],
            "type": "VEC3"
        },
        {
            "bufferView": 10,
            "componentType": 5126,
            "count": 634,
            "type": "VEC3"
        },
        {
            "bufferView": 11,
            "componentType": 5126,
            "count": 634,
            "type": "VEC2"
        },
        {
            "bufferView": 12,
            "componentType": 5123,
            "count": 906,
            "type": "SCALAR"
        },
        {
            "bufferView": 13,
            "componentType": 5126,
            "count": 2282,
            "max": [2.9469895362854004, 4.251132011413574, 2.656024694442749],
            "min": [-3.8884541988372803, -0.0024276874028146267, -4.063846111297607],
            "type": "VEC3"
        },
        {
            "bufferView": 14,
            "componentType": 5126,
            "count": 2282,
            "type": "VEC3"
        },
        {
            "bufferView": 15,
            "componentType": 5126,
            "count": 2282,
            "type": "VEC2"
        },
        {
            "bufferView": 16,
            "componentType": 5123,
            "count": 2658,
            "type": "SCALAR"
        },
        {
            "bufferView": 17,
            "componentType": 5126,
            "count": 762,
            "max": [5.079797744750977, 18.25551986694336, 5.0340895652771],
            "min": [-5.497369766235352, 0, -5.2268900871276855],
            "type": "VEC3"
        },
        {
            "bufferView": 18,
            "componentType": 5126,
            "count": 762,
            "type": "VEC3"
        },
        {
            "bufferView": 19,
            "componentType": 5126,
            "count": 762,
            "type": "VEC2"
        },
        {
            "bufferView": 20,
            "componentType": 5123,
            "count": 1098,
            "type": "SCALAR"
        },
        {
            "bufferView": 21,
            "componentType": 5126,
            "count": 527,
            "max": [0.9111775159835815, 1.2237619161605835, 0.9174168109893799],
            "min": [-0.9311774969100952, 0, -1.0063633918762207],
            "type": "VEC3"
        },
        {
            "bufferView": 22,
            "componentType": 5126,
            "count": 527,
            "type": "VEC3"
        },
        {
            "bufferView": 23,
            "componentType": 5126,
            "count": 527,
            "type": "VEC2"
        },
        {
            "bufferView": 24,
            "componentType": 5123,
            "count": 726,
            "type": "SCALAR"
        },
        {
            "bufferView": 25,
            "componentType": 5126,
            "count": 527,
            "max": [0.9111775159835815, 1.2237619161605835, 0.9174168109893799],
            "min": [-0.9311774969100952, 0, -1.0063633918762207],
            "type": "VEC3"
        },
        {
            "bufferView": 26,
            "componentType": 5126,
            "count": 527,
            "type": "VEC3"
        },
        {
            "bufferView": 27,
            "componentType": 5126,
            "count": 527,
            "type": "VEC2"
        },
        {
            "bufferView": 28,
            "componentType": 5126,
            "count": 305,
            "max": [1.6082075834274292, 3.5802085399627686, 1.3464926481246948],
            "min": [-1.6488231420516968, 0, -1.526889443397522],
            "type": "VEC3"
        },
        {
            "bufferView": 29,
            "componentType": 5126,
            "count": 305,
            "type": "VEC3"
        },
        {
            "bufferView": 30,
            "componentType": 5126,
            "count": 305,
            "type": "VEC2"
        },
        {
            "bufferView": 31,
            "componentType": 5123,
            "count": 444,
            "type": "SCALAR"
        },
        {
            "bufferView": 32,
            "componentType": 5126,
            "count": 226,
            "max": [4.210550785064697, 2.1325976848602295, 1.1793830394744873],
            "min": [-4.097026348114014, -0.0601762980222702, -1.0811383724212646],
            "type": "VEC3"
        },
        {
            "bufferView": 33,
            "componentType": 5126,
            "count": 226,
            "type": "VEC3"
        },
        {
            "bufferView": 34,
            "componentType": 5126,
            "count": 226,
            "type": "VEC2"
        },
        {
            "bufferView": 35,
            "componentType": 5123,
            "count": 336,
            "type": "SCALAR"
        },
        {
            "bufferView": 36,
            "componentType": 5126,
            "count": 202,
            "max": [1.1383540630340576, 1.0866243839263916, 0.9568695425987244],
            "min": [-4.190387725830078, 0.004288597498089075, -0.9626347422599792],
            "type": "VEC3"
        },
        {
            "bufferView": 37,
            "componentType": 5126,
            "count": 202,
            "type": "VEC3"
        },
        {
            "bufferView": 38,
            "componentType": 5126,
            "count": 202,
            "type": "VEC2"
        },
        {
            "bufferView": 39,
            "componentType": 5123,
            "count": 282,
            "type": "SCALAR"
        }
    ],
    "bufferViews": [
        {
            "buffer": 0,
            "byteLength": 5940,
            "byteOffset": 0
        },
        {
            "buffer": 0,
            "byteLength": 5940,
            "byteOffset": 5940
        },
        {
            "buffer": 0,
            "byteLength": 3960,
            "byteOffset": 11880
        },
        {
            "buffer": 0,
            "byteLength": 1392,
            "byteOffset": 15840
        },
        {
            "buffer": 0,
            "byteLength": 4163,
            "byteOffset": 17232
        },
        {
            "buffer": 0,
            "byteLength": 48,
            "byteOffset": 21396
        },
        {
            "buffer": 0,
            "byteLength": 48,
            "byteOffset": 21444
        },
        {
            "buffer": 0,
            "byteLength": 32,
            "byteOffset": 21492
        },
        {
            "buffer": 0,
            "byteLength": 12,
            "byteOffset": 21524
        },
        {
            "buffer": 0,
            "byteLength": 7608,
            "byteOffset": 21536
        },
        {
            "buffer": 0,
            "byteLength": 7608,
            "byteOffset": 29144
        },
        {
            "buffer": 0,
            "byteLength": 5072,
            "byteOffset": 36752
        },
        {
            "buffer": 0,
            "byteLength": 1812,
            "byteOffset": 41824
        },
        {
            "buffer": 0,
            "byteLength": 27384,
            "byteOffset": 43636
        },
        {
            "buffer": 0,
            "byteLength": 27384,
            "byteOffset": 71020
        },
        {
            "buffer": 0,
            "byteLength": 18256,
            "byteOffset": 98404
        },
        {
            "buffer": 0,
            "byteLength": 5316,
            "byteOffset": 116660
        },
        {
            "buffer": 0,
            "byteLength": 9144,
            "byteOffset": 121976
        },
        {
            "buffer": 0,
            "byteLength": 9144,
            "byteOffset": 131120
        },
        {
            "buffer": 0,
            "byteLength": 6096,
            "byteOffset": 140264
        },
        {
            "buffer": 0,
            "byteLength": 2196,
            "byteOffset": 146360
        },
        {
            "buffer": 0,
            "byteLength": 6324,
            "byteOffset": 148556
        },
        {
            "buffer": 0,
            "byteLength": 6324,
            "byteOffset": 154880
        },
        {
            "buffer": 0,
            "byteLength": 4216,
            "byteOffset": 161204
        },
        {
            "buffer": 0,
            "byteLength": 1452,
            "byteOffset": 165420
        },
        {
            "buffer": 0,
            "byteLength": 6324,
            "byteOffset": 166872
        },
        {
            "buffer": 0,
            "byteLength": 6324,
            "byteOffset": 173196
        },
        {
            "buffer": 0,
            "byteLength": 4216,
            "byteOffset": 179520
        },
        {
            "buffer": 0,
            "byteLength": 3660,
            "byteOffset": 183736
        },
        {
            "buffer": 0,
            "byteLength": 3660,
            "byteOffset": 187396
        },
        {
            "buffer": 0,
            "byteLength": 2440,
            "byteOffset": 191056
        },
        {
            "buffer": 0,
            "byteLength": 888,
            "byteOffset": 193496
        },
        {
            "buffer": 0,
            "byteLength": 2712,
            "byteOffset": 194384
        },
        {
            "buffer": 0,
            "byteLength": 2712,
            "byteOffset": 197096
        },
        {
            "buffer": 0,
            "byteLength": 1808,
            "byteOffset": 199808
        },
        {
            "buffer": 0,
            "byteLength": 672,
            "byteOffset": 201616
        },
        {
            "buffer": 0,
            "byteLength": 2424,
            "byteOffset": 202288
        },
        {
            "buffer": 0,
            "byteLength": 2424,
            "byteOffset": 204712
        },
        {
            "buffer": 0,
            "byteLength": 1616,
            "byteOffset": 207136
        },
        {
            "buffer": 0,
            "byteLength": 564,
            "byteOffset": 208752
        }
    ],
    "samplers": [
        {
            "magFilter": 9729,
            "minFilter": 9987
        }
    ],
    "buffers": [
        {
            "byteLength": 209316,
            "uri": "data:application/octet-stream;base64,"
        }
    ]
}
