{
    "asset": {
        "generator": "Khronos glTF Blender I/O v3.2.40",
        "version": "2.0"
    },
    "scene": 0,
    "scenes": [
        {
            "name": "Scene",
            "nodes": [0, 1, 2, 3, 4, 5, 6, 7, 8, 9]
        }
    ],
    "nodes": [
        {
            "mesh": 0,
            "name": "Tree_average_regular",
            "rotation": [0, -0.7660292387008667, 0, 0.6428056955337524],
            "scale": [0.41963839530944824, 0.41963839530944824, 0.41963839530944824],
            "translation": [-6.409261703491211, 0, 6.415576934814453]
        },
        {
            "mesh": 1,
            "name": "Tree_average_lush",
            "rotation": [0, -0.8233097791671753, 0, 0.5675923228263855],
            "scale": [0.41963839530944824, 0.41963839530944824, 0.41963839530944824],
            "translation": [5.081247329711914, 0, -3.579265594482422]
        },
        {
            "mesh": 2,
            "name": "Tree_small_regular",
            "scale": [0.41963839530944824, 0.41963839530944824, 0.41963839530944824],
            "translation": [7.115077972412109, 0, -8.892807006835938]
        },
        {
            "mesh": 3,
            "name": "Tree_small_bare",
            "scale": [0.41963839530944824, 0.41963839530944824, 0.41963839530944824],
            "translation": [-4.688358306884766, 0, -7.906272888183594]
        },
        {
            "mesh": 4,
            "name": "Tree_Spruce_tiny_01",
            "scale": [0.41963839530944824, 0.41963839530944824, 0.41963839530944824],
            "translation": [2.435565948486328, 0, 7.719219207763672]
        },
        {
            "mesh": 5,
            "name": "SimpleGround.002",
            "scale": [0.41963839530944824, 0.41963839530944824, 0.41963839530944824]
        },
        {
            "mesh": 6,
            "name": "Tree_Spruce_tiny_02.002",
            "rotation": [0, -0.1084340512752533, 0, 0.9941036701202393],
            "scale": [0.41963839530944824, 0.41963839530944824, 0.41963839530944824],
            "translation": [0.45470237731933594, 0, -0.8835697174072266]
        },
        {
            "mesh": 7,
            "name": "Bush_group_small",
            "scale": [0.41963839530944824, 0.41963839530944824, 0.41963839530944824],
            "translation": [-0.9146804809570312, 0, -2.2612266540527344]
        },
        {
            "mesh": 8,
            "name": "Stump_average_hollow",
            "rotation": [0, -0.9972121119499207, 0, 0.07461909204721451],
            "scale": [0.41963839530944824, 0.41963839530944824, 0.41963839530944824],
            "translation": [-4.06268310546875, 0, -2.7478065490722656]
        },
        {
            "mesh": 9,
            "name": "Stone_group_average",
            "scale": [0.41963839530944824, 0.41963839530944824, 0.41963839530944824],
            "translation": [3.7659759521484375, 0, -3.2610836029052734]
        }
    ],
    "materials": [
        {
            "doubleSided": true,
            "name": "AllColors_Material",
            "pbrMetallicRoughness": {
                "baseColorTexture": {
                    "index": 0
                },
                "metallicFactor": 0,
                "roughnessFactor": 0.4000000059604645
            }
        },
        {
            "doubleSided": true,
            "name": "Grass.001",
            "pbrMetallicRoughness": {
                "baseColorFactor": [0.17788811028003693, 0.4178849160671234, 0.038204483687877655, 1],
                "metallicFactor": 0,
                "roughnessFactor": 0.75
            }
        },
        {
            "doubleSided": true,
            "name": "AllColors_Material.020",
            "pbrMetallicRoughness": {
                "baseColorTexture": {
                    "index": 1
                },
                "metallicFactor": 0,
                "roughnessFactor": 0.4000000059604645
            }
        }
    ],
    "meshes": [
        {
            "name": "Cube.002",
            "primitives": [
                {
                    "attributes": {
                        "POSITION": 0,
                        "NORMAL": 1,
                        "TEXCOORD_0": 2
                    },
                    "indices": 3,
                    "material": 0
                }
            ]
        },
        {
            "name": "Cube.004",
            "primitives": [
                {
                    "attributes": {
                        "POSITION": 4,
                        "NORMAL": 5,
                        "TEXCOORD_0": 6
                    },
                    "indices": 7,
                    "material": 0
                }
            ]
        },
        {
            "name": "Cube.005",
            "primitives": [
                {
                    "attributes": {
                        "POSITION": 8,
                        "NORMAL": 9,
                        "TEXCOORD_0": 10
                    },
                    "indices": 11,
                    "material": 0
                }
            ]
        },
        {
            "name": "Cube.007",
            "primitives": [
                {
                    "attributes": {
                        "POSITION": 12,
                        "NORMAL": 13,
                        "TEXCOORD_0": 14
                    },
                    "indices": 15,
                    "material": 0
                }
            ]
        },
        {
            "name": "Cylinder.012",
            "primitives": [
                {
                    "attributes": {
                        "POSITION": 16,
                        "NORMAL": 17,
                        "TEXCOORD_0": 18
                    },
                    "indices": 19,
                    "material": 0
                }
            ]
        },
        {
            "name": "Plane.008",
            "primitives": [
                {
                    "attributes": {
                        "POSITION": 20,
                        "NORMAL": 21,
                        "TEXCOORD_0": 22
                    },
                    "indices": 23,
                    "material": 1
                }
            ]
        },
        {
            "name": "Cylinder.006",
            "primitives": [
                {
                    "attributes": {
                        "POSITION": 24,
                        "NORMAL": 25,
                        "TEXCOORD_0": 26
                    },
                    "indices": 27,
                    "material": 2
                }
            ]
        },
        {
            "name": "Plane.140",
            "primitives": [
                {
                    "attributes": {
                        "POSITION": 28,
                        "NORMAL": 29,
                        "TEXCOORD_0": 30
                    },
                    "indices": 31,
                    "material": 0
                }
            ]
        },
        {
            "name": "Cube.016",
            "primitives": [
                {
                    "attributes": {
                        "POSITION": 32,
                        "NORMAL": 33,
                        "TEXCOORD_0": 34
                    },
                    "indices": 35,
                    "material": 0
                }
            ]
        },
        {
            "name": "Icosphere.022",
            "primitives": [
                {
                    "attributes": {
                        "POSITION": 36,
                        "NORMAL": 37,
                        "TEXCOORD_0": 38
                    },
                    "indices": 39,
                    "material": 0
                }
            ]
        }
    ],
    "textures": [
        {
            "sampler": 0,
            "source": 0
        },
        {
            "sampler": 0,
            "source": 0
        }
    ],
    "images": [
        {
            "bufferView": 4,
            "mimeType": "image/png",
            "name": "texture_gradient"
        }
    ],
    "accessors": [
        {
            "bufferView": 0,
            "componentType": 5126,
            "count": 2164,
            "max": [6.572398662567139, 14.620043754577637, 6.418869495391846],
            "min": [-8.115511894226074, -0.0017659016884863377, -5.61820125579834],
            "type": "VEC3"
        },
        {
            "bufferView": 1,
            "componentType": 5126,
            "count": 2164,
            "type": "VEC3"
        },
        {
            "bufferView": 2,
            "componentType": 5126,
            "count": 2164,
            "type": "VEC2"
        },
        {
            "bufferView": 3,
            "componentType": 5123,
            "count": 2424,
            "type": "SCALAR"
        },
        {
            "bufferView": 5,
            "componentType": 5126,
            "count": 2164,
            "max": [6.653200149536133, 14.659798622131348, 6.713106632232666],
            "min": [-8.017291069030762, -0.0017659016884863377, -6.528043746948242],
            "type": "VEC3"
        },
        {
            "bufferView": 6,
            "componentType": 5126,
            "count": 2164,
            "type": "VEC3"
        },
        {
            "bufferView": 7,
            "componentType": 5126,
            "count": 2164,
            "type": "VEC2"
        },
        {
            "bufferView": 8,
            "componentType": 5123,
            "count": 2424,
            "type": "SCALAR"
        },
        {
            "bufferView": 9,
            "componentType": 5126,
            "count": 506,
            "max": [1.3897686004638672, 7.6979899406433105, 1.1415719985961914],
            "min": [-0.9090965390205383, 0, -1.2076061964035034],
            "type": "VEC3"
        },
        {
            "bufferView": 10,
            "componentType": 5126,
            "count": 506,
            "type": "VEC3"
        },
        {
            "bufferView": 11,
            "componentType": 5126,
            "count": 506,
            "type": "VEC2"
        },
        {
            "bufferView": 12,
            "componentType": 5123,
            "count": 588,
            "type": "SCALAR"
        },
        {
            "bufferView": 13,
            "componentType": 5126,
            "count": 128,
            "max": [0.6738243103027344, 4.441537857055664, 0.3660212755203247],
            "min": [-0.28103771805763245, 0, -0.2373480498790741],
            "type": "VEC3"
        },
        {
            "bufferView": 14,
            "componentType": 5126,
            "count": 128,
            "type": "VEC3"
        },
        {
            "bufferView": 15,
            "componentType": 5126,
            "count": 128,
            "type": "VEC2"
        },
        {
            "bufferView": 16,
            "componentType": 5123,
            "count": 174,
            "type": "SCALAR"
        },
        {
            "bufferView": 17,
            "componentType": 5126,
            "count": 634,
            "max": [2.886451244354248, 11.005311965942383, 2.757803440093994],
            "min": [-2.543914794921875, 0, -2.743320941925049],
            "type": "VEC3"
        },
        {
            "bufferView": 18,
            "componentType": 5126,
            "count": 634,
            "type": "VEC3"
        },
        {
            "bufferView": 19,
            "componentType": 5126,
            "count": 634,
            "type": "VEC2"
        },
        {
            "bufferView": 20,
            "componentType": 5123,
            "count": 906,
            "type": "SCALAR"
        },
        {
            "bufferView": 21,
            "componentType": 5126,
            "count": 4,
            "max": [23.830039978027344, 0, 23.830041885375977],
            "min": [-23.830039978027344, 0, -23.830041885375977],
            "type": "VEC3"
        },
        {
            "bufferView": 22,
            "componentType": 5126,
            "count": 4,
            "type": "VEC3"
        },
        {
            "bufferView": 23,
            "componentType": 5126,
            "count": 4,
            "type": "VEC2"
        },
        {
            "bufferView": 24,
            "componentType": 5123,
            "count": 6,
            "type": "SCALAR"
        },
        {
            "bufferView": 25,
            "componentType": 5126,
            "count": 634,
            "max": [3.916187286376953, 10.98141098022461, 3.684375047683716],
            "min": [-3.7490744590759277, 0, -3.8950767517089844],
            "type": "VEC3"
        },
        {
            "bufferView": 26,
            "componentType": 5126,
            "count": 634,
            "type": "VEC3"
        },
        {
            "bufferView": 27,
            "componentType": 5126,
            "count": 634,
            "type": "VEC2"
        },
        {
            "bufferView": 28,
            "componentType": 5123,
            "count": 906,
            "type": "SCALAR"
        },
        {
            "bufferView": 29,
            "componentType": 5126,
            "count": 1532,
            "max": [1.5619479417800903, 2.004701852798462, 1.2168339490890503],
            "min": [-1.4533895254135132, -0.0012823028955608606, -1.582034945487976],
            "type": "VEC3"
        },
        {
            "bufferView": 30,
            "componentType": 5126,
            "count": 1532,
            "type": "VEC3"
        },
        {
            "bufferView": 31,
            "componentType": 5126,
            "count": 1532,
            "type": "VEC2"
        },
        {
            "bufferView": 32,
            "componentType": 5123,
            "count": 1788,
            "type": "SCALAR"
        },
        {
            "bufferView": 33,
            "componentType": 5126,
            "count": 426,
            "max": [1.4353034496307373, 1.083666205406189, 1.3424715995788574],
            "min": [-1.5634558200836182, 0, -1.4866793155670166],
            "type": "VEC3"
        },
        {
            "bufferView": 34,
            "componentType": 5126,
            "count": 426,
            "type": "VEC3"
        },
        {
            "bufferView": 35,
            "componentType": 5126,
            "count": 426,
            "type": "VEC2"
        },
        {
            "bufferView": 36,
            "componentType": 5123,
            "count": 654,
            "type": "SCALAR"
        },
        {
            "bufferView": 37,
            "componentType": 5126,
            "count": 612,
            "max": [1.4949947595596313, 1.1113239526748657, 1.0936354398727417],
            "min": [-1.4443141222000122, -5.4774805903434753e-5, -1.8042562007904053],
            "type": "VEC3"
        },
        {
            "bufferView": 38,
            "componentType": 5126,
            "count": 612,
            "type": "VEC3"
        },
        {
            "bufferView": 39,
            "componentType": 5126,
            "count": 612,
            "type": "VEC2"
        },
        {
            "bufferView": 40,
            "componentType": 5123,
            "count": 648,
            "type": "SCALAR"
        }
    ],
    "bufferViews": [
        {
            "buffer": 0,
            "byteLength": 25968,
            "byteOffset": 0
        },
        {
            "buffer": 0,
            "byteLength": 25968,
            "byteOffset": 25968
        },
        {
            "buffer": 0,
            "byteLength": 17312,
            "byteOffset": 51936
        },
        {
            "buffer": 0,
            "byteLength": 4848,
            "byteOffset": 69248
        },
        {
            "buffer": 0,
            "byteLength": 4163,
            "byteOffset": 74096
        },
        {
            "buffer": 0,
            "byteLength": 25968,
            "byteOffset": 78260
        },
        {
            "buffer": 0,
            "byteLength": 25968,
            "byteOffset": 104228
        },
        {
            "buffer": 0,
            "byteLength": 17312,
            "byteOffset": 130196
        },
        {
            "buffer": 0,
            "byteLength": 4848,
            "byteOffset": 147508
        },
        {
            "buffer": 0,
            "byteLength": 6072,
            "byteOffset": 152356
        },
        {
            "buffer": 0,
            "byteLength": 6072,
            "byteOffset": 158428
        },
        {
            "buffer": 0,
            "byteLength": 4048,
            "byteOffset": 164500
        },
        {
            "buffer": 0,
            "byteLength": 1176,
            "byteOffset": 168548
        },
        {
            "buffer": 0,
            "byteLength": 1536,
            "byteOffset": 169724
        },
        {
            "buffer": 0,
            "byteLength": 1536,
            "byteOffset": 171260
        },
        {
            "buffer": 0,
            "byteLength": 1024,
            "byteOffset": 172796
        },
        {
            "buffer": 0,
            "byteLength": 348,
            "byteOffset": 173820
        },
        {
            "buffer": 0,
            "byteLength": 7608,
            "byteOffset": 174168
        },
        {
            "buffer": 0,
            "byteLength": 7608,
            "byteOffset": 181776
        },
        {
            "buffer": 0,
            "byteLength": 5072,
            "byteOffset": 189384
        },
        {
            "buffer": 0,
            "byteLength": 1812,
            "byteOffset": 194456
        },
        {
            "buffer": 0,
            "byteLength": 48,
            "byteOffset": 196268
        },
        {
            "buffer": 0,
            "byteLength": 48,
            "byteOffset": 196316
        },
        {
            "buffer": 0,
            "byteLength": 32,
            "byteOffset": 196364
        },
        {
            "buffer": 0,
            "byteLength": 12,
            "byteOffset": 196396
        },
        {
            "buffer": 0,
            "byteLength": 7608,
            "byteOffset": 196408
        },
        {
            "buffer": 0,
            "byteLength": 7608,
            "byteOffset": 204016
        },
        {
            "buffer": 0,
            "byteLength": 5072,
            "byteOffset": 211624
        },
        {
            "buffer": 0,
            "byteLength": 1812,
            "byteOffset": 216696
        },
        {
            "buffer": 0,
            "byteLength": 18384,
            "byteOffset": 218508
        },
        {
            "buffer": 0,
            "byteLength": 18384,
            "byteOffset": 236892
        },
        {
            "buffer": 0,
            "byteLength": 12256,
            "byteOffset": 255276
        },
        {
            "buffer": 0,
            "byteLength": 3576,
            "byteOffset": 267532
        },
        {
            "buffer": 0,
            "byteLength": 5112,
            "byteOffset": 271108
        },
        {
            "buffer": 0,
            "byteLength": 5112,
            "byteOffset": 276220
        },
        {
            "buffer": 0,
            "byteLength": 3408,
            "byteOffset": 281332
        },
        {
            "buffer": 0,
            "byteLength": 1308,
            "byteOffset": 284740
        },
        {
            "buffer": 0,
            "byteLength": 7344,
            "byteOffset": 286048
        },
        {
            "buffer": 0,
            "byteLength": 7344,
            "byteOffset": 293392
        },
        {
            "buffer": 0,
            "byteLength": 4896,
            "byteOffset": 300736
        },
        {
            "buffer": 0,
            "byteLength": 1296,
            "byteOffset": 305632
        }
    ],
    "samplers": [
        {
            "magFilter": 9729,
            "minFilter": 9987
        }
    ],
    "buffers": [
        {
            "byteLength": 306928,
            "uri": "data:application/octet-stream;base64,"
        }
    ]
}
