{
    "asset": {
        "generator": "Khronos glTF Blender I/O v3.2.40",
        "version": "2.0"
    },
    "scene": 0,
    "scenes": [
        {
            "name": "Scene",
            "nodes": [0, 1, 2, 3, 4, 5, 6, 7, 8]
        }
    ],
    "nodes": [
        {
            "mesh": 0,
            "name": "Tree_Spruce_small_02",
            "scale": [0.41963839530944824, 0.41963839530944824, 0.41963839530944824],
            "translation": [-3.227248430252075, 0, -1.8889808654785156]
        },
        {
            "mesh": 1,
            "name": "Tree_Spruce_tiny_02",
            "scale": [0.41963839530944824, 0.41963839530944824, 0.41963839530944824],
            "translation": [7.280154228210449, 0, -7.212833404541016]
        },
        {
            "mesh": 2,
            "name": "Tree_average_regular.001",
            "rotation": [0, -0.1069209948182106, 0, 0.9942675232887268],
            "scale": [0.41963836550712585, 0.41963839530944824, 0.41963836550712585],
            "translation": [7.010216236114502, 0, 1.8020153045654297]
        },
        {
            "mesh": 3,
            "name": "SimpleGround.001",
            "scale": [0.41963839530944824, 0.41963839530944824, 0.41963839530944824]
        },
        {
            "mesh": 4,
            "name": "Stump_average_low.001",
            "scale": [0.41963839530944824, 0.41963839530944824, 0.41963839530944824],
            "translation": [-4, 0, -7]
        },
        {
            "mesh": 5,
            "name": "Bush_average.001",
            "scale": [0.41963839530944824, 0.41963839530944824, 0.41963839530944824],
            "translation": [-6.795820236206055, 0, 4.433341979980469]
        },
        {
            "mesh": 6,
            "name": "Stone_group_average_mossy.001",
            "rotation": [0, 0.9430043697357178, 0, 0.3327804505825043],
            "scale": [0.41963839530944824, 0.41963839530944824, 0.41963839530944824],
            "translation": [3, 0, -4]
        },
        {
            "mesh": 7,
            "name": "Bush_average_bare.001",
            "scale": [0.41963839530944824, 0.41963839530944824, 0.41963839530944824],
            "translation": [8.900656700134277, 0, 8]
        },
        {
            "mesh": 8,
            "name": "Stump_average_high.001",
            "scale": [0.41963839530944824, 0.41963839530944824, 0.41963839530944824],
            "translation": [0.46495485305786133, 0, 3.214763641357422]
        }
    ],
    "materials": [
        {
            "doubleSided": true,
            "name": "AllColors_Material",
            "pbrMetallicRoughness": {
                "baseColorTexture": {
                    "index": 0
                },
                "metallicFactor": 0,
                "roughnessFactor": 0.4000000059604645
            }
        },
        {
            "doubleSided": true,
            "name": "AllColors_Material.003",
            "pbrMetallicRoughness": {
                "baseColorTexture": {
                    "index": 1
                },
                "metallicFactor": 0,
                "roughnessFactor": 0.4000000059604645
            }
        },
        {
            "doubleSided": true,
            "name": "Grass",
            "pbrMetallicRoughness": {
                "baseColorFactor": [0.17788811028003693, 0.4178849160671234, 0.038204483687877655, 1],
                "metallicFactor": 0,
                "roughnessFactor": 0.75
            }
        },
        {
            "doubleSided": true,
            "name": "AllColors_Material.005",
            "pbrMetallicRoughness": {
                "baseColorTexture": {
                    "index": 2
                },
                "metallicFactor": 0,
                "roughnessFactor": 0.4000000059604645
            }
        },
        {
            "doubleSided": true,
            "name": "AllColors_Material.006",
            "pbrMetallicRoughness": {
                "baseColorTexture": {
                    "index": 3
                },
                "metallicFactor": 0,
                "roughnessFactor": 0.4000000059604645
            }
        },
        {
            "doubleSided": true,
            "name": "AllColors_Material.007",
            "pbrMetallicRoughness": {
                "baseColorTexture": {
                    "index": 4
                },
                "metallicFactor": 0,
                "roughnessFactor": 0.4000000059604645
            }
        },
        {
            "doubleSided": true,
            "name": "AllColors_Material.008",
            "pbrMetallicRoughness": {
                "baseColorTexture": {
                    "index": 5
                },
                "metallicFactor": 0,
                "roughnessFactor": 0.4000000059604645
            }
        },
        {
            "doubleSided": true,
            "name": "AllColors_Material.009",
            "pbrMetallicRoughness": {
                "baseColorTexture": {
                    "index": 6
                },
                "metallicFactor": 0,
                "roughnessFactor": 0.4000000059604645
            }
        }
    ],
    "meshes": [
        {
            "name": "Cylinder.003",
            "primitives": [
                {
                    "attributes": {
                        "POSITION": 0,
                        "NORMAL": 1,
                        "TEXCOORD_0": 2
                    },
                    "indices": 3,
                    "material": 0
                }
            ]
        },
        {
            "name": "Cylinder.014",
            "primitives": [
                {
                    "attributes": {
                        "POSITION": 4,
                        "NORMAL": 5,
                        "TEXCOORD_0": 6
                    },
                    "indices": 7,
                    "material": 0
                }
            ]
        },
        {
            "name": "Cube.003",
            "primitives": [
                {
                    "attributes": {
                        "POSITION": 8,
                        "NORMAL": 9,
                        "TEXCOORD_0": 10
                    },
                    "indices": 11,
                    "material": 1
                }
            ]
        },
        {
            "name": "Plane.004",
            "primitives": [
                {
                    "attributes": {
                        "POSITION": 12,
                        "NORMAL": 13,
                        "TEXCOORD_0": 14
                    },
                    "indices": 15,
                    "material": 2
                }
            ]
        },
        {
            "name": "Cube.006",
            "primitives": [
                {
                    "attributes": {
                        "POSITION": 16,
                        "NORMAL": 17,
                        "TEXCOORD_0": 18
                    },
                    "indices": 19,
                    "material": 3
                }
            ]
        },
        {
            "name": "Plane.006",
            "primitives": [
                {
                    "attributes": {
                        "POSITION": 20,
                        "NORMAL": 21,
                        "TEXCOORD_0": 22
                    },
                    "indices": 23,
                    "material": 4
                }
            ]
        },
        {
            "name": "Icosphere.001",
            "primitives": [
                {
                    "attributes": {
                        "POSITION": 24,
                        "NORMAL": 25,
                        "TEXCOORD_0": 26
                    },
                    "indices": 27,
                    "material": 5
                }
            ]
        },
        {
            "name": "Plane.007",
            "primitives": [
                {
                    "attributes": {
                        "POSITION": 28,
                        "NORMAL": 29,
                        "TEXCOORD_0": 30
                    },
                    "indices": 31,
                    "material": 6
                }
            ]
        },
        {
            "name": "Cube.008",
            "primitives": [
                {
                    "attributes": {
                        "POSITION": 32,
                        "NORMAL": 33,
                        "TEXCOORD_0": 34
                    },
                    "indices": 35,
                    "material": 7
                }
            ]
        }
    ],
    "textures": [
        {
            "sampler": 0,
            "source": 0
        },
        {
            "sampler": 0,
            "source": 0
        },
        {
            "sampler": 0,
            "source": 0
        },
        {
            "sampler": 0,
            "source": 0
        },
        {
            "sampler": 0,
            "source": 0
        },
        {
            "sampler": 0,
            "source": 0
        },
        {
            "sampler": 0,
            "source": 0
        }
    ],
    "images": [
        {
            "bufferView": 4,
            "mimeType": "image/png",
            "name": "texture_gradient"
        }
    ],
    "accessors": [
        {
            "bufferView": 0,
            "componentType": 5126,
            "count": 762,
            "max": [5.307240009307861, 18.245336532592773, 5.592296123504639],
            "min": [-5.814762115478516, 0, -5.647213935852051],
            "type": "VEC3"
        },
        {
            "bufferView": 1,
            "componentType": 5126,
            "count": 762,
            "type": "VEC3"
        },
        {
            "bufferView": 2,
            "componentType": 5126,
            "count": 762,
            "type": "VEC2"
        },
        {
            "bufferView": 3,
            "componentType": 5123,
            "count": 1098,
            "type": "SCALAR"
        },
        {
            "bufferView": 5,
            "componentType": 5126,
            "count": 634,
            "max": [3.916187286376953, 10.98141098022461, 3.684375047683716],
            "min": [-3.7490744590759277, 0, -3.8950767517089844],
            "type": "VEC3"
        },
        {
            "bufferView": 6,
            "componentType": 5126,
            "count": 634,
            "type": "VEC3"
        },
        {
            "bufferView": 7,
            "componentType": 5126,
            "count": 634,
            "type": "VEC2"
        },
        {
            "bufferView": 8,
            "componentType": 5123,
            "count": 906,
            "type": "SCALAR"
        },
        {
            "bufferView": 9,
            "componentType": 5126,
            "count": 2164,
            "max": [6.572398662567139, 14.620043754577637, 6.418869495391846],
            "min": [-8.115511894226074, -0.0017659016884863377, -5.61820125579834],
            "type": "VEC3"
        },
        {
            "bufferView": 10,
            "componentType": 5126,
            "count": 2164,
            "type": "VEC3"
        },
        {
            "bufferView": 11,
            "componentType": 5126,
            "count": 2164,
            "type": "VEC2"
        },
        {
            "bufferView": 12,
            "componentType": 5123,
            "count": 2424,
            "type": "SCALAR"
        },
        {
            "bufferView": 13,
            "componentType": 5126,
            "count": 4,
            "max": [23.830039978027344, 0, 23.830041885375977],
            "min": [-23.830039978027344, 0, -23.830041885375977],
            "type": "VEC3"
        },
        {
            "bufferView": 14,
            "componentType": 5126,
            "count": 4,
            "type": "VEC3"
        },
        {
            "bufferView": 15,
            "componentType": 5126,
            "count": 4,
            "type": "VEC2"
        },
        {
            "bufferView": 16,
            "componentType": 5123,
            "count": 6,
            "type": "SCALAR"
        },
        {
            "bufferView": 17,
            "componentType": 5126,
            "count": 306,
            "max": [1.3020251989364624, 1.0735756158828735, 1.2702542543411255],
            "min": [-1.578264594078064, 0, -1.4607640504837036],
            "type": "VEC3"
        },
        {
            "bufferView": 18,
            "componentType": 5126,
            "count": 306,
            "type": "VEC3"
        },
        {
            "bufferView": 19,
            "componentType": 5126,
            "count": 306,
            "type": "VEC2"
        },
        {
            "bufferView": 20,
            "componentType": 5123,
            "count": 462,
            "type": "SCALAR"
        },
        {
            "bufferView": 21,
            "componentType": 5126,
            "count": 854,
            "max": [2.10170841217041, 4.078708648681641, 2.106435537338257],
            "min": [-2.57452654838562, -0.0008178208954632282, -2.3749427795410156],
            "type": "VEC3"
        },
        {
            "bufferView": 22,
            "componentType": 5126,
            "count": 854,
            "type": "VEC3"
        },
        {
            "bufferView": 23,
            "componentType": 5126,
            "count": 854,
            "type": "VEC2"
        },
        {
            "bufferView": 24,
            "componentType": 5123,
            "count": 1026,
            "type": "SCALAR"
        },
        {
            "bufferView": 25,
            "componentType": 5126,
            "count": 944,
            "max": [1.5150595903396606, 1.1292577981948853, 1.1110013723373413],
            "min": [-1.454095721244812, -0.016325850039720535, -1.8215636014938354],
            "type": "VEC3"
        },
        {
            "bufferView": 26,
            "componentType": 5126,
            "count": 944,
            "type": "VEC3"
        },
        {
            "bufferView": 27,
            "componentType": 5126,
            "count": 944,
            "type": "VEC2"
        },
        {
            "bufferView": 28,
            "componentType": 5123,
            "count": 1146,
            "type": "SCALAR"
        },
        {
            "bufferView": 29,
            "componentType": 5126,
            "count": 1248,
            "max": [1.976590633392334, 3.359971761703491, 1.4766535758972168],
            "min": [-2.2868268489837646, 0, -1.7986335754394531],
            "type": "VEC3"
        },
        {
            "bufferView": 30,
            "componentType": 5126,
            "count": 1248,
            "type": "VEC3"
        },
        {
            "bufferView": 31,
            "componentType": 5126,
            "count": 1248,
            "type": "VEC2"
        },
        {
            "bufferView": 32,
            "componentType": 5123,
            "count": 1728,
            "type": "SCALAR"
        },
        {
            "bufferView": 33,
            "componentType": 5126,
            "count": 305,
            "max": [1.6082075834274292, 3.5802085399627686, 1.3464926481246948],
            "min": [-1.6488231420516968, 0, -1.526889443397522],
            "type": "VEC3"
        },
        {
            "bufferView": 34,
            "componentType": 5126,
            "count": 305,
            "type": "VEC3"
        },
        {
            "bufferView": 35,
            "componentType": 5126,
            "count": 305,
            "type": "VEC2"
        },
        {
            "bufferView": 36,
            "componentType": 5123,
            "count": 444,
            "type": "SCALAR"
        }
    ],
    "bufferViews": [
        {
            "buffer": 0,
            "byteLength": 9144,
            "byteOffset": 0
        },
        {
            "buffer": 0,
            "byteLength": 9144,
            "byteOffset": 9144
        },
        {
            "buffer": 0,
            "byteLength": 6096,
            "byteOffset": 18288
        },
        {
            "buffer": 0,
            "byteLength": 2196,
            "byteOffset": 24384
        },
        {
            "buffer": 0,
            "byteLength": 4163,
            "byteOffset": 26580
        },
        {
            "buffer": 0,
            "byteLength": 7608,
            "byteOffset": 30744
        },
        {
            "buffer": 0,
            "byteLength": 7608,
            "byteOffset": 38352
        },
        {
            "buffer": 0,
            "byteLength": 5072,
            "byteOffset": 45960
        },
        {
            "buffer": 0,
            "byteLength": 1812,
            "byteOffset": 51032
        },
        {
            "buffer": 0,
            "byteLength": 25968,
            "byteOffset": 52844
        },
        {
            "buffer": 0,
            "byteLength": 25968,
            "byteOffset": 78812
        },
        {
            "buffer": 0,
            "byteLength": 17312,
            "byteOffset": 104780
        },
        {
            "buffer": 0,
            "byteLength": 4848,
            "byteOffset": 122092
        },
        {
            "buffer": 0,
            "byteLength": 48,
            "byteOffset": 126940
        },
        {
            "buffer": 0,
            "byteLength": 48,
            "byteOffset": 126988
        },
        {
            "buffer": 0,
            "byteLength": 32,
            "byteOffset": 127036
        },
        {
            "buffer": 0,
            "byteLength": 12,
            "byteOffset": 127068
        },
        {
            "buffer": 0,
            "byteLength": 3672,
            "byteOffset": 127080
        },
        {
            "buffer": 0,
            "byteLength": 3672,
            "byteOffset": 130752
        },
        {
            "buffer": 0,
            "byteLength": 2448,
            "byteOffset": 134424
        },
        {
            "buffer": 0,
            "byteLength": 924,
            "byteOffset": 136872
        },
        {
            "buffer": 0,
            "byteLength": 10248,
            "byteOffset": 137796
        },
        {
            "buffer": 0,
            "byteLength": 10248,
            "byteOffset": 148044
        },
        {
            "buffer": 0,
            "byteLength": 6832,
            "byteOffset": 158292
        },
        {
            "buffer": 0,
            "byteLength": 2052,
            "byteOffset": 165124
        },
        {
            "buffer": 0,
            "byteLength": 11328,
            "byteOffset": 167176
        },
        {
            "buffer": 0,
            "byteLength": 11328,
            "byteOffset": 178504
        },
        {
            "buffer": 0,
            "byteLength": 7552,
            "byteOffset": 189832
        },
        {
            "buffer": 0,
            "byteLength": 2292,
            "byteOffset": 197384
        },
        {
            "buffer": 0,
            "byteLength": 14976,
            "byteOffset": 199676
        },
        {
            "buffer": 0,
            "byteLength": 14976,
            "byteOffset": 214652
        },
        {
            "buffer": 0,
            "byteLength": 9984,
            "byteOffset": 229628
        },
        {
            "buffer": 0,
            "byteLength": 3456,
            "byteOffset": 239612
        },
        {
            "buffer": 0,
            "byteLength": 3660,
            "byteOffset": 243068
        },
        {
            "buffer": 0,
            "byteLength": 3660,
            "byteOffset": 246728
        },
        {
            "buffer": 0,
            "byteLength": 2440,
            "byteOffset": 250388
        },
        {
            "buffer": 0,
            "byteLength": 888,
            "byteOffset": 252828
        }
    ],
    "samplers": [
        {
            "magFilter": 9729,
            "minFilter": 9987
        }
    ],
    "buffers": [
        {
            "byteLength": 253716,
            "uri": "data:application/octet-stream;base64,"
        }
    ]
}
