<?xml version="1.0" encoding="UTF-8"?><svg id="b" xmlns="http://www.w3.org/2000/svg" viewBox="0 0 356.21 198.58"><defs><style>.d{fill:#009245;}.e{fill:#c69c6d;}.f{fill:#42210b;}</style></defs><g id="c"><g><path class="d" d="m147.13,181.52l-107.28-7.24c-19.06-1.29-34.54-16.71-36.84-36.69L.29,113.99c-2.67-23.19,13.19-44.19,35.23-46.63l104.86-11.62c16.11-1.78,30.35,11.01,31.24,28.07l3.55,68.42c.86,16.65-12.26,30.35-28.03,29.28Z"/><path class="d" d="m209.08,181.52l107.28-7.24c19.06-1.29,34.54-16.71,36.84-36.69l2.72-23.6c2.67-23.19-13.19-44.19-35.23-46.63l-104.86-11.62c-16.11-1.78-30.35,11.01-31.24,28.07l-3.55,68.42c-.86,16.65,12.26,30.35,28.03,29.28Z"/><path class="e" d="m157.89,35.39l14.96-32.49c1.71-3.57,7.12-3.94,9.02-.61l17.2,30.27"/><g><circle class="f" cx="178.5" cy="108.08" r="90"/><path d="m178.5,18.58c49.35,0,89.5,40.15,89.5,89.5s-40.15,89.5-89.5,89.5-89.5-40.15-89.5-89.5S129.15,18.58,178.5,18.58m0-1c-49.98,0-90.5,40.52-90.5,90.5s40.52,90.5,90.5,90.5,90.5-40.52,90.5-90.5S228.48,17.58,178.5,17.58h0Z"/></g></g></g></svg>