<svg width="512" height="512" xmlns="http://www.w3.org/2000/svg" version="1.1" xml:space="preserve">
 <g>
  <title>Layer 1</title>
  <g id="svg_1">
   <g id="svg_2">
    <g id="svg_3">
     <path d="m503.467,153.6l-145.067,0l0,-145.067c0,-4.713 -3.82,-8.533 -8.533,-8.533l-187.734,0c-4.713,0 -8.533,3.82 -8.533,8.533l0,145.067l-145.067,0c-4.713,0 -8.533,3.821 -8.533,8.533l0,187.733c0,4.713 3.82,8.533 8.533,8.533l145.067,0l0,145.067c0,4.713 3.82,8.533 8.533,8.533l187.733,0c4.713,0 8.533,-3.821 8.533,-8.533l0,-145.066l145.067,0c4.713,0 8.533,-3.82 8.533,-8.533l0,-187.734c0.001,-4.712 -3.819,-8.533 -8.532,-8.533zm-8.534,187.733l-145.066,0c-4.713,0 -8.533,3.82 -8.533,8.533l0,145.067l-170.667,0l0,-145.066c0,-4.713 -3.82,-8.533 -8.533,-8.533l-145.067,0l0,-170.667l145.067,0c4.713,0 8.533,-3.82 8.533,-8.533l0,-145.067l170.667,0l0,145.067c0,4.713 3.82,8.533 8.533,8.533l145.067,0l0,170.666l-0.001,0z" id="svg_4"/>
     <path d="m256,34.133c-4.713,0 -8.533,3.82 -8.533,8.533l0,25.6c0,4.713 3.82,8.533 8.533,8.533s8.533,-3.821 8.533,-8.533l0,-25.6c0,-4.712 -3.82,-8.533 -8.533,-8.533z" id="svg_5"/>
     <path d="m256,102.4c-4.713,0 -8.533,3.82 -8.533,8.533l0,25.6c0,4.713 3.82,8.533 8.533,8.533s8.533,-3.82 8.533,-8.533l0,-25.6c0,-4.712 -3.82,-8.533 -8.533,-8.533z" id="svg_6"/>
     <path d="m256,170.667c-4.713,0 -8.533,3.82 -8.533,8.533l0,25.6c0,4.713 3.82,8.533 8.533,8.533s8.533,-3.82 8.533,-8.533l0,-25.6c0,-4.713 -3.82,-8.533 -8.533,-8.533z" id="svg_7"/>
     <path d="m256,238.933c-4.713,0 -8.533,3.82 -8.533,8.533l0,25.6c0,4.713 3.82,8.533 8.533,8.533s8.533,-3.82 8.533,-8.533l0,-25.6c0,-4.712 -3.82,-8.533 -8.533,-8.533z" id="svg_8"/>
     <path d="m256,307.2c-4.713,0 -8.533,3.821 -8.533,8.533l0,25.6c0,4.713 3.82,8.533 8.533,8.533s8.533,-3.82 8.533,-8.533l0,-25.6c0,-4.712 -3.82,-8.533 -8.533,-8.533z" id="svg_9"/>
     <path d="m256,375.467c-4.713,0 -8.533,3.821 -8.533,8.533l0,25.6c0,4.713 3.82,8.533 8.533,8.533s8.533,-3.82 8.533,-8.533l0,-25.6c0,-4.713 -3.82,-8.533 -8.533,-8.533z" id="svg_10"/>
     <path d="m256,443.733c-4.713,0 -8.533,3.82 -8.533,8.533l0,17.067c0,4.713 3.82,8.533 8.533,8.533s8.533,-3.82 8.533,-8.533l0,-17.067c0,-4.712 -3.82,-8.533 -8.533,-8.533z" id="svg_11"/>
     <path d="m443.733,264.533l25.6,0c4.713,0 8.533,-3.82 8.533,-8.533c0,-4.713 -3.82,-8.533 -8.533,-8.533l-25.6,0c-4.713,0 -8.533,3.821 -8.533,8.533c0,4.713 3.821,8.533 8.533,8.533z" id="svg_12"/>
     <path d="m375.467,264.533l25.6,0c4.713,0 8.533,-3.82 8.533,-8.533c0,-4.713 -3.82,-8.533 -8.533,-8.533l-25.6,0c-4.713,0 -8.533,3.821 -8.533,8.533c-0.001,4.713 3.82,8.533 8.533,8.533z" id="svg_13"/>
     <path d="m332.8,247.467l-25.6,0c-4.713,0 -8.533,3.821 -8.533,8.533c0,4.713 3.82,8.533 8.533,8.533l25.6,0c4.713,0 8.533,-3.82 8.533,-8.533c0,-4.713 -3.82,-8.533 -8.533,-8.533z" id="svg_14"/>
     <path d="m196.267,247.467l-25.6,0c-4.713,0 -8.533,3.821 -8.533,8.533c0,4.713 3.82,8.533 8.533,8.533l25.6,0c4.713,0 8.533,-3.82 8.533,-8.533c0,-4.713 -3.821,-8.533 -8.533,-8.533z" id="svg_15"/>
     <path d="m128,247.467l-25.6,0c-4.713,0 -8.533,3.821 -8.533,8.533c0,4.713 3.82,8.533 8.533,8.533l25.6,0c4.713,0 8.533,-3.82 8.533,-8.533c0,-4.713 -3.82,-8.533 -8.533,-8.533z" id="svg_16"/>
     <path d="m59.733,247.467l-17.066,0c-4.713,0 -8.533,3.821 -8.533,8.533c0,4.713 3.82,8.533 8.533,8.533l17.067,0c4.713,0 8.533,-3.82 8.533,-8.533c0,-4.713 -3.821,-8.533 -8.534,-8.533z" id="svg_17"/>
    </g>
   </g>
  </g>
  <g id="svg_18"/>
  <g id="svg_19"/>
  <g id="svg_20"/>
  <g id="svg_21"/>
  <g id="svg_22"/>
  <g id="svg_23"/>
  <g id="svg_24"/>
  <g id="svg_25"/>
  <g id="svg_26"/>
  <g id="svg_27"/>
  <g id="svg_28"/>
  <g id="svg_29"/>
  <g id="svg_30"/>
  <g id="svg_31"/>
  <g id="svg_32"/>
  <rect id="svg_33" height="20" width="209" y="150.33333" x="151" stroke="#000" fill="#000000"/>
  <rect id="svg_34" height="46" width="48" y="171.33333" x="232" stroke="#ffffff" fill="#ffffff"/>
  <rect id="svg_35" height="157.33333" width="312.66667" y="-4" x="112" stroke="#ffffff" fill="#ffffff"/>
  <g id="svg_42">
   <rect id="svg_38" height="54.9994" width="30.333" y="357.99327" x="358.65993" stroke="#000000" fill="#ffffff"/>
   <path id="svg_39" d="m372.9931,376.65973c-4.05152,0 -7.33325,-3.28173 -7.33325,-7.33325c0,-4.05152 3.28173,-7.33325 7.33325,-7.33325c4.05152,0 7.33325,3.28173 7.33325,7.33325c0,4.05152 -3.28173,7.33325 -7.33325,7.33325z" opacity="undefined" stroke="#000000" fill="#ff0000"/>
   <ellipse ry="7.33325" rx="7.33325" id="svg_40" cy="385.99296" cx="373.32643" stroke="#000000" fill="#ffff00"/>
   <path id="svg_41" d="m373.32643,410.65936c-4.05152,0 -7.33325,-3.28173 -7.33325,-7.33325c0,-4.05152 3.28173,-7.33325 7.33325,-7.33325c4.05152,0 7.33325,3.28173 7.33325,7.33325c0,4.05152 -3.28173,7.33325 -7.33325,7.33325z" opacity="undefined" stroke="#000000" fill="#00ff00"/>
  </g>
  <g transform="rotate(90 125.829 373.826)" id="svg_48">
   <rect id="svg_44" height="54.9994" width="30.333" y="346.32673" x="110.66265" stroke="#000000" fill="#ffffff"/>
   <path id="svg_45" d="m124.99582,364.99319c-4.05152,0 -7.33325,-3.28173 -7.33325,-7.33325c0,-4.05153 3.28173,-7.33326 7.33325,-7.33326c4.05152,0 7.33325,3.28173 7.33325,7.33326c0,4.05152 -3.28173,7.33325 -7.33325,7.33325z" opacity="undefined" stroke="#000000" fill="#ff0000"/>
   <ellipse ry="7.33325" rx="7.33325" id="svg_46" cy="374.32642" cx="125.32915" stroke="#000000" fill="#ffff00"/>
   <path id="svg_47" d="m125.32915,398.99282c-4.05152,0 -7.33325,-3.28174 -7.33325,-7.33326c0,-4.05152 3.28173,-7.33325 7.33325,-7.33325c4.05152,0 7.33325,3.28173 7.33325,7.33325c0,4.05152 -3.28173,7.33326 -7.33325,7.33326z" opacity="undefined" stroke="#000000" fill="#00ff00"/>
  </g>
  <g transform="rotate(-90 370.493 138.163)" id="svg_53">
   <rect id="svg_49" height="54.9994" width="30.333" y="110.66283" x="355.32686" stroke="#000000" fill="#ffffff"/>
   <path id="svg_50" d="m369.66004,129.32929c-4.05152,0 -7.33325,-3.28173 -7.33325,-7.33325c0,-4.05153 3.28173,-7.33326 7.33325,-7.33326c4.05152,0 7.33325,3.28173 7.33325,7.33326c0,4.05152 -3.28173,7.33325 -7.33325,7.33325z" opacity="undefined" stroke="#000000" fill="#ff0000"/>
   <ellipse ry="7.33325" rx="7.33325" id="svg_51" cy="138.66252" cx="369.99337" stroke="#000000" fill="#ffff00"/>
   <path id="svg_52" d="m369.99337,163.32892c-4.05152,0 -7.33325,-3.28174 -7.33325,-7.33326c0,-4.05152 3.28173,-7.33325 7.33325,-7.33325c4.05152,0 7.33325,3.28173 7.33325,7.33325c0,4.05152 -3.28173,7.33326 -7.33325,7.33326z" opacity="undefined" stroke="#000000" fill="#00ff00"/>
  </g>
 </g>

</svg>