<?xml version="1.0" encoding="iso-8859-1"?>
<!-- Generator: Adobe Illustrator 19.0.0, SVG Export Plug-In . SVG Version: 6.00 Build 0)  -->
<svg version="1.1" id="Layer_1" xmlns="http://www.w3.org/2000/svg" xmlns:xlink="http://www.w3.org/1999/xlink" x="0px" y="0px"
	 viewBox="0 0 512 512" style="enable-background:new 0 0 512 512;" xml:space="preserve">
<g transform="translate(0 -1)">
	<g>
		<g>
			<path d="M68.267,402.067c-4.713,0-8.533,3.82-8.533,8.533v17.067c0,4.713,3.82,8.533,8.533,8.533s8.533-3.82,8.533-8.533V410.6
				C76.8,405.887,72.979,402.067,68.267,402.067z"/>
			<path d="M81.514,221.199c-4.45-1.553-9.316,0.796-10.868,5.245c-4.186,11.994-7.2,24.403-8.986,37.086
				c-0.657,4.667,2.593,8.983,7.26,9.64c4.667,0.657,8.983-2.593,9.64-7.26c1.63-11.576,4.38-22.898,8.2-33.843
				C88.312,227.618,85.964,222.752,81.514,221.199z"/>
			<path d="M68.267,310.85c-4.713,0-8.533,3.82-8.533,8.533v36.489c0,4.713,3.82,8.533,8.533,8.533s8.533-3.821,8.533-8.533v-36.489
				C76.8,314.671,72.979,310.85,68.267,310.85z"/>
			<path d="M122.68,147.095c-9.347,8.656-17.839,18.201-25.346,28.492c-2.777,3.807-1.942,9.146,1.865,11.923
				c3.808,2.777,9.146,1.942,11.923-1.865c6.857-9.4,14.615-18.12,23.154-26.027c3.458-3.202,3.665-8.601,0.463-12.059
				S126.138,143.893,122.68,147.095z"/>
			<path d="M263.074,111.93h36.489c4.713,0,8.533-3.82,8.533-8.533s-3.82-8.533-8.533-8.533h-36.489
				c-4.713,0-8.533,3.82-8.533,8.533S258.361,111.93,263.074,111.93z"/>
			<path d="M205.539,101.413c-12.35,3.277-24.315,7.752-35.745,13.349c-4.233,2.073-5.984,7.184-3.911,11.417
				c2.073,4.233,7.184,5.984,11.417,3.911c10.431-5.108,21.348-9.191,32.617-12.181c4.555-1.209,7.268-5.881,6.06-10.436
				C214.767,102.918,210.094,100.205,205.539,101.413z"/>
			<path d="M354.287,111.93h36.489c4.713,0,8.533-3.82,8.533-8.533s-3.82-8.533-8.533-8.533h-36.489
				c-4.713,0-8.533,3.82-8.533,8.533S349.574,111.93,354.287,111.93z"/>
			<path d="M443.733,111.933H460.8c4.713,0,8.533-3.82,8.533-8.533s-3.82-8.533-8.533-8.533h-17.067
				c-4.713,0-8.533,3.82-8.533,8.533S439.021,111.933,443.733,111.933z"/>
			<path d="M503.467,35.133H256c-141.383,0-256,114.617-256,256v179.2c0,4.713,3.82,8.533,8.533,8.533H128
				c4.713,0,8.533-3.82,8.533-8.533v-179.2c0-65.977,53.489-119.467,119.467-119.467h247.467c4.713,0,8.533-3.82,8.533-8.533V43.667
				C512,38.954,508.18,35.133,503.467,35.133z M494.933,154.6H256c-75.403,0-136.533,61.13-136.533,136.533V461.8h-102.4V291.133
				C17.067,159.176,124.043,52.2,256,52.2h238.933V154.6z"/>
		</g>
	</g>
</g>
<g>
</g>
<g>
</g>
<g>
</g>
<g>
</g>
<g>
</g>
<g>
</g>
<g>
</g>
<g>
</g>
<g>
</g>
<g>
</g>
<g>
</g>
<g>
</g>
<g>
</g>
<g>
</g>
<g>
</g>
</svg>
