<?xml version="1.0" standalone="no"?>
<!DOCTYPE svg PUBLIC "-//W3C//DTD SVG 20010904//EN"
 "http://www.w3.org/TR/2001/REC-SVG-20010904/DTD/svg10.dtd">
<svg version="1.0" xmlns="http://www.w3.org/2000/svg"
 width="2150.000000pt" height="2150.000000pt" viewBox="0 0 2150.000000 2150.000000"
 preserveAspectRatio="xMidYMid meet">

<g transform="translate(0.000000,2150.000000) scale(0.100000,-0.100000)"
fill="#000000" stroke="none">
<path d="M14180 15013 c-1014 -20 -1874 -181 -2735 -510 -1238 -474 -2318
-1251 -3190 -2293 -116 -139 -328 -422 -441 -590 -795 -1178 -1246 -2529
-1313 -3935 -6 -116 -11 -1690 -13 -3765 l-3 -3565 27 -57 c37 -79 98 -142
177 -181 l66 -32 3995 0 3995 0 66 32 c79 39 140 102 177 181 l27 57 3 3062 2
3063 3063 2 3062 3 57 27 c79 37 142 98 181 177 l32 66 0 3995 0 3995 -27 57
c-37 79 -98 142 -177 181 l-66 32 -3420 0 c-1881 1 -3476 0 -3545 -2z m6520
-2208 l0 -1495 -613 0 c-698 0 -676 2 -757 -80 -131 -130 -92 -349 74 -426
l51 -24 623 0 622 0 0 -1790 0 -1790 -3057 -2 c-2906 -3 -3060 -4 -3103 -21
-97 -38 -178 -119 -218 -219 -16 -40 -17 -243 -20 -3100 l-2 -3058 -1738 0
-1737 0 3 345 c3 320 1 349 -16 388 -45 100 -135 160 -245 159 -75 0 -121 -17
-177 -68 -85 -77 -85 -76 -88 -443 -2 -198 1 -335 7 -352 l10 -29 -1560 0
-1559 0 0 3080 c0 2457 3 3080 13 3080 9 0 12 80 13 368 0 407 14 608 65 966
260 1823 1236 3472 2714 4586 913 688 2010 1151 3129 1320 613 92 805 96 4614
98 l2952 2 0 -1495z"/>
<path d="M16590 11301 c-50 -16 -89 -41 -127 -85 -46 -53 -63 -101 -63 -182 0
-73 25 -129 80 -182 75 -74 57 -72 759 -72 l626 0 50 24 c103 47 162 148 153
259 -8 98 -57 174 -143 220 -40 22 -45 22 -675 24 -349 1 -646 -2 -660 -6z"/>
<path d="M14862 11104 c-308 -64 -1069 -362 -1185 -464 -76 -67 -103 -206 -57
-302 47 -101 163 -168 270 -155 27 3 108 34 191 72 262 122 531 223 814 305
169 49 219 77 262 149 101 168 -1 376 -197 403 -19 3 -63 -1 -98 -8z"/>
<path d="M12380 9736 c-57 -15 -71 -25 -182 -127 -238 -218 -694 -751 -750
-877 -24 -53 -25 -152 -3 -205 21 -50 80 -114 129 -139 57 -29 141 -35 206
-13 64 21 106 62 224 218 135 179 261 322 482 547 185 188 203 210 218 260 20
67 20 93 0 161 -22 75 -98 151 -173 173 -64 19 -89 19 -151 2z"/>
<path d="M12802 7410 c-10 -17 -10 -20 3 -20 8 0 15 9 15 20 0 11 -1 20 -3 20
-1 0 -8 -9 -15 -20z"/>
<path d="M10785 7346 c-101 -48 -134 -104 -215 -371 -107 -353 -210 -839 -210
-985 1 -228 283 -345 448 -187 55 52 71 97 102 280 48 291 109 538 202 827 44
137 49 162 45 218 -14 181 -209 295 -372 218z"/>
<path d="M10471 4533 c-62 -22 -134 -97 -155 -160 -15 -45 -16 -113 -14 -679
3 -623 3 -629 25 -669 28 -54 100 -119 149 -136 126 -43 270 15 328 133 l26
52 0 629 c0 454 -3 641 -12 669 -15 50 -79 123 -132 150 -54 28 -156 33 -215
11z"/>
</g>
</svg>
