<?xml version="1.0" encoding="iso-8859-1"?>
<!-- Generator: Adobe Illustrator 19.0.0, SVG Export Plug-In . SVG Version: 6.00 Build 0)  -->
<svg version="1.1" id="Layer_1" xmlns="http://www.w3.org/2000/svg" x="0px" y="0px"
     viewBox="0 0 512 512" style="enable-background:new 0 0 512 512;" xml:space="preserve">
<g transform="translate(0 -1)">
	<g>
		<g>
			<path d="M503.467,154.6H358.4V9.533C358.4,4.82,354.58,1,349.867,1H162.133c-4.713,0-8.533,3.82-8.533,8.533V154.6H8.533
				C3.82,154.6,0,158.421,0,163.133v187.733c0,4.713,3.82,8.533,8.533,8.533H153.6v145.067c0,4.713,3.82,8.533,8.533,8.533h187.733
				c4.713,0,8.533-3.821,8.533-8.533V359.4h145.067c4.713,0,8.533-3.82,8.533-8.533V163.133C512,158.421,508.18,154.6,503.467,154.6
				z M494.933,342.333H349.867c-4.713,0-8.533,3.82-8.533,8.533v145.067H170.667V350.867c0-4.713-3.82-8.533-8.533-8.533H17.067
				V171.667h145.067c4.713,0,8.533-3.82,8.533-8.533V18.067h170.667v145.067c0,4.713,3.82,8.533,8.533,8.533h145.067V342.333z"/>
			<path d="M256,35.133c-4.713,0-8.533,3.82-8.533,8.533v25.6c0,4.713,3.82,8.533,8.533,8.533s8.533-3.821,8.533-8.533v-25.6
				C264.533,38.954,260.713,35.133,256,35.133z"/>
			<path d="M256,103.4c-4.713,0-8.533,3.82-8.533,8.533v25.6c0,4.713,3.82,8.533,8.533,8.533s8.533-3.82,8.533-8.533v-25.6
				C264.533,107.221,260.713,103.4,256,103.4z"/>
			<path d="M256,171.667c-4.713,0-8.533,3.82-8.533,8.533v25.6c0,4.713,3.82,8.533,8.533,8.533s8.533-3.82,8.533-8.533v-25.6
				C264.533,175.487,260.713,171.667,256,171.667z"/>
			<path d="M256,239.933c-4.713,0-8.533,3.82-8.533,8.533v25.6c0,4.713,3.82,8.533,8.533,8.533s8.533-3.82,8.533-8.533v-25.6
				C264.533,243.754,260.713,239.933,256,239.933z"/>
			<path d="M256,308.2c-4.713,0-8.533,3.821-8.533,8.533v25.6c0,4.713,3.82,8.533,8.533,8.533s8.533-3.82,8.533-8.533v-25.6
				C264.533,312.021,260.713,308.2,256,308.2z"/>
			<path d="M256,376.467c-4.713,0-8.533,3.821-8.533,8.533v25.6c0,4.713,3.82,8.533,8.533,8.533s8.533-3.82,8.533-8.533V385
				C264.533,380.287,260.713,376.467,256,376.467z"/>
			<path d="M256,444.733c-4.713,0-8.533,3.82-8.533,8.533v17.067c0,4.713,3.82,8.533,8.533,8.533s8.533-3.82,8.533-8.533v-17.067
				C264.533,448.554,260.713,444.733,256,444.733z"/>
			<path d="M443.733,265.533h25.6c4.713,0,8.533-3.82,8.533-8.533c0-4.713-3.82-8.533-8.533-8.533h-25.6
				c-4.713,0-8.533,3.821-8.533,8.533C435.2,261.713,439.021,265.533,443.733,265.533z"/>
			<path d="M375.467,265.533h25.6c4.713,0,8.533-3.82,8.533-8.533c0-4.713-3.82-8.533-8.533-8.533h-25.6
				c-4.713,0-8.533,3.821-8.533,8.533C366.933,261.713,370.754,265.533,375.467,265.533z"/>
			<path d="M332.8,248.467h-25.6c-4.713,0-8.533,3.821-8.533,8.533c0,4.713,3.82,8.533,8.533,8.533h25.6
				c4.713,0,8.533-3.82,8.533-8.533C341.333,252.287,337.513,248.467,332.8,248.467z"/>
			<path d="M196.267,248.467h-25.6c-4.713,0-8.533,3.821-8.533,8.533c0,4.713,3.82,8.533,8.533,8.533h25.6
				c4.713,0,8.533-3.82,8.533-8.533C204.8,252.287,200.979,248.467,196.267,248.467z"/>
			<path d="M128,248.467h-25.6c-4.713,0-8.533,3.821-8.533,8.533c0,4.713,3.82,8.533,8.533,8.533H128
				c4.713,0,8.533-3.82,8.533-8.533C136.533,252.287,132.713,248.467,128,248.467z"/>
			<path d="M59.733,248.467H42.667c-4.713,0-8.533,3.821-8.533,8.533c0,4.713,3.82,8.533,8.533,8.533h17.067
				c4.713,0,8.533-3.82,8.533-8.533C68.267,252.287,64.446,248.467,59.733,248.467z"/>
		</g>
	</g>
</g>
<g>
</g>
<g>
</g>
<g>
</g>
<g>
</g>
<g>
</g>
<g>
</g>
<g>
</g>
<g>
</g>
<g>
</g>
<g>
</g>
<g>
</g>
<g>
</g>
<g>
</g>
<g>
</g>
<g>
</g>
</svg>
