<svg width="512" height="512" xmlns="http://www.w3.org/2000/svg" version="1.1" xml:space="preserve">
 <g>
  <title>Layer 1</title>
  <g id="svg_1">
   <g id="svg_2">
    <g id="svg_3">
     <path d="m503.467,153.6l-145.067,0l0,-145.067c0,-4.713 -3.82,-8.533 -8.533,-8.533l-187.734,0c-4.713,0 -8.533,3.82 -8.533,8.533l0,145.067l-145.067,0c-4.713,0 -8.533,3.821 -8.533,8.533l0,187.733c0,4.713 3.82,8.533 8.533,8.533l145.067,0l0,145.067c0,4.713 3.82,8.533 8.533,8.533l187.733,0c4.713,0 8.533,-3.821 8.533,-8.533l0,-145.066l145.067,0c4.713,0 8.533,-3.82 8.533,-8.533l0,-187.734c0.001,-4.712 -3.819,-8.533 -8.532,-8.533zm-8.534,187.733l-145.066,0c-4.713,0 -8.533,3.82 -8.533,8.533l0,145.067l-170.667,0l0,-145.066c0,-4.713 -3.82,-8.533 -8.533,-8.533l-145.067,0l0,-170.667l145.067,0c4.713,0 8.533,-3.82 8.533,-8.533l0,-145.067l170.667,0l0,145.067c0,4.713 3.82,8.533 8.533,8.533l145.067,0l0,170.666l-0.001,0z" id="svg_4"/>
     <path d="m256,34.133c-4.713,0 -8.533,3.82 -8.533,8.533l0,25.6c0,4.713 3.82,8.533 8.533,8.533s8.533,-3.821 8.533,-8.533l0,-25.6c0,-4.712 -3.82,-8.533 -8.533,-8.533z" id="svg_5"/>
     <path d="m256,102.4c-4.713,0 -8.533,3.82 -8.533,8.533l0,25.6c0,4.713 3.82,8.533 8.533,8.533s8.533,-3.82 8.533,-8.533l0,-25.6c0,-4.712 -3.82,-8.533 -8.533,-8.533z" id="svg_6"/>
     <path d="m256,170.667c-4.713,0 -8.533,3.82 -8.533,8.533l0,25.6c0,4.713 3.82,8.533 8.533,8.533s8.533,-3.82 8.533,-8.533l0,-25.6c0,-4.713 -3.82,-8.533 -8.533,-8.533z" id="svg_7"/>
     <path d="m256,238.933c-4.713,0 -8.533,3.82 -8.533,8.533l0,25.6c0,4.713 3.82,8.533 8.533,8.533s8.533,-3.82 8.533,-8.533l0,-25.6c0,-4.712 -3.82,-8.533 -8.533,-8.533z" id="svg_8"/>
     <path d="m256,307.2c-4.713,0 -8.533,3.821 -8.533,8.533l0,25.6c0,4.713 3.82,8.533 8.533,8.533s8.533,-3.82 8.533,-8.533l0,-25.6c0,-4.712 -3.82,-8.533 -8.533,-8.533z" id="svg_9"/>
     <path d="m256,375.467c-4.713,0 -8.533,3.821 -8.533,8.533l0,25.6c0,4.713 3.82,8.533 8.533,8.533s8.533,-3.82 8.533,-8.533l0,-25.6c0,-4.713 -3.82,-8.533 -8.533,-8.533z" id="svg_10"/>
     <path d="m256,443.733c-4.713,0 -8.533,3.82 -8.533,8.533l0,17.067c0,4.713 3.82,8.533 8.533,8.533s8.533,-3.82 8.533,-8.533l0,-17.067c0,-4.712 -3.82,-8.533 -8.533,-8.533z" id="svg_11"/>
     <path d="m443.733,264.533l25.6,0c4.713,0 8.533,-3.82 8.533,-8.533c0,-4.713 -3.82,-8.533 -8.533,-8.533l-25.6,0c-4.713,0 -8.533,3.821 -8.533,8.533c0,4.713 3.821,8.533 8.533,8.533z" id="svg_12"/>
     <path d="m375.467,264.533l25.6,0c4.713,0 8.533,-3.82 8.533,-8.533c0,-4.713 -3.82,-8.533 -8.533,-8.533l-25.6,0c-4.713,0 -8.533,3.821 -8.533,8.533c-0.001,4.713 3.82,8.533 8.533,8.533z" id="svg_13"/>
     <path d="m332.8,247.467l-25.6,0c-4.713,0 -8.533,3.821 -8.533,8.533c0,4.713 3.82,8.533 8.533,8.533l25.6,0c4.713,0 8.533,-3.82 8.533,-8.533c0,-4.713 -3.82,-8.533 -8.533,-8.533z" id="svg_14"/>
     <path d="m196.267,247.467l-25.6,0c-4.713,0 -8.533,3.821 -8.533,8.533c0,4.713 3.82,8.533 8.533,8.533l25.6,0c4.713,0 8.533,-3.82 8.533,-8.533c0,-4.713 -3.821,-8.533 -8.533,-8.533z" id="svg_15"/>
     <path d="m128,247.467l-25.6,0c-4.713,0 -8.533,3.821 -8.533,8.533c0,4.713 3.82,8.533 8.533,8.533l25.6,0c4.713,0 8.533,-3.82 8.533,-8.533c0,-4.713 -3.82,-8.533 -8.533,-8.533z" id="svg_16"/>
     <path d="m59.733,247.467l-17.066,0c-4.713,0 -8.533,3.821 -8.533,8.533c0,4.713 3.82,8.533 8.533,8.533l17.067,0c4.713,0 8.533,-3.82 8.533,-8.533c0,-4.713 -3.821,-8.533 -8.534,-8.533z" id="svg_17"/>
    </g>
   </g>
  </g>
  <g id="svg_18"/>
  <g id="svg_19"/>
  <g id="svg_20"/>
  <g id="svg_21"/>
  <g id="svg_22"/>
  <g id="svg_23"/>
  <g id="svg_24"/>
  <g id="svg_25"/>
  <g id="svg_26"/>
  <g id="svg_27"/>
  <g id="svg_28"/>
  <g id="svg_29"/>
  <g id="svg_30"/>
  <g id="svg_31"/>
  <g id="svg_32"/>
  <rect id="svg_33" height="20" width="209" y="150.33333" x="151" stroke="#000" fill="#000000"/>
  <rect id="svg_34" height="46" width="48" y="171.33333" x="232" stroke="#ffffff" fill="#ffffff"/>
  <rect id="svg_35" height="157.33333" width="312.66667" y="-4" x="112" stroke="#ffffff" fill="#ffffff"/>
 </g>

</svg>