<svg width="512" height="512" xmlns="http://www.w3.org/2000/svg" xml:space="preserve" version="1.1">

 <g>
  <title>Layer 1</title>
  <g id="svg_1">
   <g id="svg_2">
    <g id="svg_3">
     <path id="svg_4" d="m503.467,153.6l-145.067,0l0,-145.067c0,-4.713 -3.82,-8.533 -8.533,-8.533l-187.734,0c-4.713,0 -8.533,3.82 -8.533,8.533l0,145.067l-145.067,0c-4.713,0 -8.533,3.821 -8.533,8.533l0,187.733c0,4.713 3.82,8.533 8.533,8.533l145.067,0l0,145.067c0,4.713 3.82,8.533 8.533,8.533l187.733,0c4.713,0 8.533,-3.821 8.533,-8.533l0,-145.066l145.067,0c4.713,0 8.533,-3.82 8.533,-8.533l0,-187.734c0.001,-4.712 -3.819,-8.533 -8.532,-8.533zm-8.534,187.733l-145.066,0c-4.713,0 -8.533,3.82 -8.533,8.533l0,145.067l-170.667,0l0,-145.066c0,-4.713 -3.82,-8.533 -8.533,-8.533l-145.067,0l0,-170.667l145.067,0c4.713,0 8.533,-3.82 8.533,-8.533l0,-145.067l170.667,0l0,145.067c0,4.713 3.82,8.533 8.533,8.533l145.067,0l0,170.666l-0.001,0z"/>
     <path id="svg_5" d="m256,34.133c-4.713,0 -8.533,3.82 -8.533,8.533l0,25.6c0,4.713 3.82,8.533 8.533,8.533s8.533,-3.821 8.533,-8.533l0,-25.6c0,-4.712 -3.82,-8.533 -8.533,-8.533z"/>
     <path id="svg_6" d="m256,102.4c-4.713,0 -8.533,3.82 -8.533,8.533l0,25.6c0,4.713 3.82,8.533 8.533,8.533s8.533,-3.82 8.533,-8.533l0,-25.6c0,-4.712 -3.82,-8.533 -8.533,-8.533z"/>
     <path id="svg_7" d="m256,170.667c-4.713,0 -8.533,3.82 -8.533,8.533l0,25.6c0,4.713 3.82,8.533 8.533,8.533s8.533,-3.82 8.533,-8.533l0,-25.6c0,-4.713 -3.82,-8.533 -8.533,-8.533z"/>
     <path id="svg_8" d="m256,238.933c-4.713,0 -8.533,3.82 -8.533,8.533l0,25.6c0,4.713 3.82,8.533 8.533,8.533s8.533,-3.82 8.533,-8.533l0,-25.6c0,-4.712 -3.82,-8.533 -8.533,-8.533z"/>
     <path id="svg_9" d="m256,307.2c-4.713,0 -8.533,3.821 -8.533,8.533l0,25.6c0,4.713 3.82,8.533 8.533,8.533s8.533,-3.82 8.533,-8.533l0,-25.6c0,-4.712 -3.82,-8.533 -8.533,-8.533z"/>
     <path id="svg_10" d="m256,375.467c-4.713,0 -8.533,3.821 -8.533,8.533l0,25.6c0,4.713 3.82,8.533 8.533,8.533s8.533,-3.82 8.533,-8.533l0,-25.6c0,-4.713 -3.82,-8.533 -8.533,-8.533z"/>
     <path id="svg_11" d="m256,443.733c-4.713,0 -8.533,3.82 -8.533,8.533l0,17.067c0,4.713 3.82,8.533 8.533,8.533s8.533,-3.82 8.533,-8.533l0,-17.067c0,-4.712 -3.82,-8.533 -8.533,-8.533z"/>
     <path id="svg_12" d="m443.733,264.533l25.6,0c4.713,0 8.533,-3.82 8.533,-8.533c0,-4.713 -3.82,-8.533 -8.533,-8.533l-25.6,0c-4.713,0 -8.533,3.821 -8.533,8.533c0,4.713 3.821,8.533 8.533,8.533z"/>
     <path id="svg_13" d="m375.467,264.533l25.6,0c4.713,0 8.533,-3.82 8.533,-8.533c0,-4.713 -3.82,-8.533 -8.533,-8.533l-25.6,0c-4.713,0 -8.533,3.821 -8.533,8.533c-0.001,4.713 3.82,8.533 8.533,8.533z"/>
     <path id="svg_14" d="m332.8,247.467l-25.6,0c-4.713,0 -8.533,3.821 -8.533,8.533c0,4.713 3.82,8.533 8.533,8.533l25.6,0c4.713,0 8.533,-3.82 8.533,-8.533c0,-4.713 -3.82,-8.533 -8.533,-8.533z"/>
     <path id="svg_15" d="m196.267,247.467l-25.6,0c-4.713,0 -8.533,3.821 -8.533,8.533c0,4.713 3.82,8.533 8.533,8.533l25.6,0c4.713,0 8.533,-3.82 8.533,-8.533c0,-4.713 -3.821,-8.533 -8.533,-8.533z"/>
     <path id="svg_16" d="m128,247.467l-25.6,0c-4.713,0 -8.533,3.821 -8.533,8.533c0,4.713 3.82,8.533 8.533,8.533l25.6,0c4.713,0 8.533,-3.82 8.533,-8.533c0,-4.713 -3.82,-8.533 -8.533,-8.533z"/>
     <path id="svg_17" d="m59.733,247.467l-17.066,0c-4.713,0 -8.533,3.821 -8.533,8.533c0,4.713 3.82,8.533 8.533,8.533l17.067,0c4.713,0 8.533,-3.82 8.533,-8.533c0,-4.713 -3.821,-8.533 -8.534,-8.533z"/>
    </g>
   </g>
  </g>
  <g id="svg_18"/>
  <g id="svg_19"/>
  <g id="svg_20"/>
  <g id="svg_21"/>
  <g id="svg_22"/>
  <g id="svg_23"/>
  <g id="svg_24"/>
  <g id="svg_25"/>
  <g id="svg_26"/>
  <g id="svg_27"/>
  <g id="svg_28"/>
  <g id="svg_29"/>
  <g id="svg_30"/>
  <g id="svg_31"/>
  <g id="svg_32"/>
  <path id="svg_38" d="m374,110" opacity="NaN" stroke="#000" fill="#fff"/>
  <g id="svg_55">
   <g id="svg_54">
    <g id="svg_53">
     <path id="svg_39" d="m503.467,153.6l-145.067,0l0,-145.067c0,-4.713 -3.82,-8.533 -8.533,-8.533l-187.734,0c-4.713,0 -8.533,3.82 -8.533,8.533l0,145.067l-145.067,0c-4.713,0 -8.533,3.821 -8.533,8.533l0,187.733c0,4.713 3.82,8.533 8.533,8.533l145.067,0l0,145.067c0,4.713 3.82,8.533 8.533,8.533l187.733,0c4.713,0 8.533,-3.821 8.533,-8.533l0,-145.066l145.067,0c4.713,0 8.533,-3.82 8.533,-8.533l0,-187.734c0.001,-4.712 -3.819,-8.533 -8.532,-8.533zm-8.534,187.733l-145.066,0c-4.713,0 -8.533,3.82 -8.533,8.533l0,145.067l-170.667,0l0,-145.066c0,-4.713 -3.82,-8.533 -8.533,-8.533l-145.067,0l0,-170.667l145.067,0c4.713,0 8.533,-3.82 8.533,-8.533l0,-145.067l170.667,0l0,145.067c0,4.713 3.82,8.533 8.533,8.533l145.067,0l0,170.666l-0.001,0z"/>
     <path id="svg_40" d="m256,34.133c-4.713,0 -8.533,3.82 -8.533,8.533l0,25.6c0,4.713 3.82,8.533 8.533,8.533s8.533,-3.821 8.533,-8.533l0,-25.6c0,-4.712 -3.82,-8.533 -8.533,-8.533z"/>
     <path id="svg_41" d="m256,102.4c-4.713,0 -8.533,3.82 -8.533,8.533l0,25.6c0,4.713 3.82,8.533 8.533,8.533s8.533,-3.82 8.533,-8.533l0,-25.6c0,-4.712 -3.82,-8.533 -8.533,-8.533z"/>
     <path id="svg_42" d="m256,170.667c-4.713,0 -8.533,3.82 -8.533,8.533l0,25.6c0,4.713 3.82,8.533 8.533,8.533s8.533,-3.82 8.533,-8.533l0,-25.6c0,-4.713 -3.82,-8.533 -8.533,-8.533z"/>
     <path id="svg_43" d="m256,238.933c-4.713,0 -8.533,3.82 -8.533,8.533l0,25.6c0,4.713 3.82,8.533 8.533,8.533s8.533,-3.82 8.533,-8.533l0,-25.6c0,-4.712 -3.82,-8.533 -8.533,-8.533z"/>
     <path id="svg_44" d="m256,307.2c-4.713,0 -8.533,3.821 -8.533,8.533l0,25.6c0,4.713 3.82,8.533 8.533,8.533s8.533,-3.82 8.533,-8.533l0,-25.6c0,-4.712 -3.82,-8.533 -8.533,-8.533z"/>
     <path id="svg_45" d="m256,375.467c-4.713,0 -8.533,3.821 -8.533,8.533l0,25.6c0,4.713 3.82,8.533 8.533,8.533s8.533,-3.82 8.533,-8.533l0,-25.6c0,-4.713 -3.82,-8.533 -8.533,-8.533z"/>
     <path id="svg_46" d="m256,443.733c-4.713,0 -8.533,3.82 -8.533,8.533l0,17.067c0,4.713 3.82,8.533 8.533,8.533s8.533,-3.82 8.533,-8.533l0,-17.067c0,-4.712 -3.82,-8.533 -8.533,-8.533z"/>
     <path id="svg_47" d="m443.733,264.533l25.6,0c4.713,0 8.533,-3.82 8.533,-8.533c0,-4.713 -3.82,-8.533 -8.533,-8.533l-25.6,0c-4.713,0 -8.533,3.821 -8.533,8.533c0,4.713 3.821,8.533 8.533,8.533z"/>
     <path id="svg_48" d="m375.467,264.533l25.6,0c4.713,0 8.533,-3.82 8.533,-8.533c0,-4.713 -3.82,-8.533 -8.533,-8.533l-25.6,0c-4.713,0 -8.533,3.821 -8.533,8.533c-0.001,4.713 3.82,8.533 8.533,8.533z"/>
     <path id="svg_49" d="m332.8,247.467l-25.6,0c-4.713,0 -8.533,3.821 -8.533,8.533c0,4.713 3.82,8.533 8.533,8.533l25.6,0c4.713,0 8.533,-3.82 8.533,-8.533c0,-4.713 -3.82,-8.533 -8.533,-8.533z"/>
     <path id="svg_50" d="m196.267,247.467l-25.6,0c-4.713,0 -8.533,3.821 -8.533,8.533c0,4.713 3.82,8.533 8.533,8.533l25.6,0c4.713,0 8.533,-3.82 8.533,-8.533c0,-4.713 -3.821,-8.533 -8.533,-8.533z"/>
     <path id="svg_51" d="m128,247.467l-25.6,0c-4.713,0 -8.533,3.821 -8.533,8.533c0,4.713 3.82,8.533 8.533,8.533l25.6,0c4.713,0 8.533,-3.82 8.533,-8.533c0,-4.713 -3.82,-8.533 -8.533,-8.533z"/>
     <path id="svg_52" d="m59.733,247.467l-17.066,0c-4.713,0 -8.533,3.821 -8.533,8.533c0,4.713 3.82,8.533 8.533,8.533l17.067,0c4.713,0 8.533,-3.82 8.533,-8.533c0,-4.713 -3.821,-8.533 -8.534,-8.533z"/>
    </g>
   </g>
  </g>
  <path id="svg_60" d="m374,110" opacity="NaN" stroke="#000" fill="#fff"/>
  <rect id="svg_148" height="53" width="31" y="359" x="359" stroke="#000" fill="#fff"/>
  <ellipse ry="5.5" rx="5.5" id="svg_151" cy="401.5" cx="375.5" stroke="#000" fill="#00ff00"/>
  <ellipse ry="5.5" rx="5.5" id="svg_152" cy="385.5" cx="375.5" stroke="#000" fill="#ffff00"/>
  <ellipse stroke="#000" ry="5.5" rx="5.5" id="svg_153" cy="370.5" cx="375.5" fill="#ff0000"/>
  <g transform="rotate(-90 385.5 138.5)" id="svg_154">
   <rect id="svg_33" height="53" width="31" y="112" x="370" stroke="#000" fill="#fff"/>
   <ellipse ry="5.5" rx="5.5" id="svg_36" cy="139.5" cx="384.5" stroke="#000" fill="#ffff00"/>
   <ellipse ry="5.5" rx="5.5" id="svg_37" cy="154.5" cx="384.5" stroke="#000" fill="#00ff00"/>
   <ellipse ry="5.5" rx="5.5" id="svg_149" cy="123.5" cx="384.5" stroke="#000" fill="#ff0000"/>
  </g>
  <g transform="rotate(-180 137.5 128.5)" id="svg_159">
   <rect id="svg_155" height="53" width="31" y="102" x="122" stroke="#000" fill="#fff"/>
   <ellipse ry="5.5" rx="5.5" id="svg_156" cy="129.5" cx="136.5" stroke="#000" fill="#ffff00"/>
   <ellipse ry="5.5" rx="5.5" id="svg_157" cy="144.5" cx="136.5" stroke="#000" fill="#00ff00"/>
   <ellipse ry="5.5" rx="5.5" id="svg_158" cy="113.5" cx="136.5" stroke="#000" fill="#ff0000"/>
  </g>
  <g transform="rotate(-90 126.5 374.5)" id="svg_164">
   <rect id="svg_160" height="53" width="31" y="348" x="111" stroke="#000" fill="#fff"/>
   <ellipse ry="5.5" rx="5.5" id="svg_161" cy="375.5" cx="125.5" stroke="#000" fill="#ffff00"/>
   <ellipse ry="5.5" rx="5.5" id="svg_162" cy="390.5" cx="125.5" stroke="#000" fill="#00ff00"/>
   <ellipse ry="5.5" rx="5.5" id="svg_163" cy="359.5" cx="125.5" stroke="#000" fill="#ff0000"/>
  </g>
 </g>
</svg>