<?xml version="1.0" encoding="UTF-8"?><svg id="a" xmlns="http://www.w3.org/2000/svg" viewBox="0 0 370.41 370.41"><defs><style>.b{fill:none;}.c{fill:#aaa;}.d{fill:#d6d6d6;}</style></defs><g><path d="m305.05,201.47c-1.19,1.39-2.82.77-4.15.65-10.62-.95-21.14-2.4-31.29-5.91-14.35-4.97-27.21-12.34-38.56-22.54-4.26-3.83-8.29-7.86-12.41-12.83-1.52,8.71-2.87,16.53-4.25,24.35-1.34,7.64-2.7,15.28-4.08,22.91-.86,4.76-1.75,9.52-2.66,14.28-.34,1.76.7,2.81,1.85,3.76,9.89,8.18,19.79,16.35,29.69,24.52,1.07.88,1.68,2.08,2.13,3.35,8.5,23.74,16.96,47.5,25.49,71.23,2.52,7.01,4.98,14.06,7.97,20.86,1.43,3.25-.1,4.25-2.41,5.1-7.09,2.61-14.21,5.14-21.34,7.62-5.18,1.81-5.12,1.73-7.09-3.71-9.43-25.96-19.16-51.81-28.17-77.92-2.12-6.14-6.4-9.61-10.74-13.38-6.92-6.01-14.09-11.74-21.14-17.59-7.25-6.01-14.59-11.92-21.69-18.1-6.3-5.48-12.16-11.42-14.08-20.02-.43-1.91-.33-3.94-.47-5.91-.36-1.26-.36-2.52,0-3.78.83-10.33,3.32-20.39,4.93-30.59.76-4.78,1.85-9.52,2.62-14.3.15-.93.71-2.34-.57-2.97-1.09-.54-1.68.66-2.51,1.11-9.04,4.97-13.35,14.15-19.23,21.87-7.05,9.27-13.63,18.89-20.43,28.34-.85,1.18-1.77,1.43-3.12.43-7.31-5.43-14.7-10.76-22.05-16.14-1.52-1.11-1.72-1.94-.34-3.79,8.54-11.49,17.04-23.03,25.12-34.85,6.44-9.41,14.2-17.21,23.59-23.67,13.43-9.25,26.45-19.1,39.82-28.44,6.17-4.31,13.01-5.82,20.82-5.14,11.47,1,20.67,5.7,28.37,13.9,5.09,5.42,7.88,12.21,9.79,19.17,3.83,13.95,13.28,23.37,24.26,31.58,10.94,8.18,23.28,12.9,36.94,14.43,3.07.34,6.13.25,9.17.65.96,1.88.44,3.89.42,5.83-.07,8.54.36,17.09-.21,25.63Z"/><path d="m94,333.22c7.66-9.29,15.16-18.48,22.77-27.59,7.08-8.47,14.1-16.99,21.48-25.19,4.19-4.65,5.12-10.53,7.21-15.96,2.5-6.49,4.76-13.09,6.72-19.77.89-3.03,2.44-2.01,3.65-1.02,6.62,5.44,12.85,11.4,19.74,16.46,5.15,3.78,6.51,7.1,3.04,12.96-3.83,6.48-5.74,14.09-9.98,20.34-3.97,5.84-8.97,10.98-13.51,16.44-7.27,8.75-14.49,17.54-21.78,26.26-4.4,5.27-8.92,10.44-13.34,15.7-1.04,1.23-2.06,1.95-3.51.7-7.54-6.48-15.07-12.96-22.49-19.33Z"/><path d="m248.81,49.6c.25,18.32-14.51,32.47-31.8,32.47-17.41,0-32.23-14.26-31.79-33.25.39-17.07,13.73-30.88,31.75-30.81,17.15.07,31.45,11.62,31.85,31.58Z"/></g><path class="c" d="m305.05,201.47c-.07-10.49-.14-20.97-.21-31.46.93.32.83,1.13.83,1.85,0,9.32,0,18.64,0,27.95,0,.63-.06,1.24-.63,1.66Z"/><path class="d" d="m147.66,198.41c0,1.26,0,2.52,0,3.78-.95-1.26-.92-2.52,0-3.78Z"/><rect class="b" width="370.41" height="370.41"/></svg>