{
    "asset" : {
        "generator" : "Khronos glTF Blender I/O v3.3.32",
        "version" : "2.0"
    },
    "extensionsUsed" : [
        "KHR_materials_transmission",
        "KHR_materials_ior"
    ],
    "scene" : 0,
    "scenes" : [
        {
            "name" : "Scene",
            "nodes" : [
                0,
                1
            ]
        }
    ],
    "nodes" : [
        {
            "mesh" : 0,
            "name" : "Garage",
            "scale" : [
                2.867058515548706,
                2.867058515548706,
                2.867058515548706
            ],
            "translation" : [
                -0.04275989532470703,
                2.4409284591674805,
                -11.479426383972168
            ]
        },
        {
            "mesh" : 1,
            "name" : "Garage Text",
            "rotation" : [
                0.5,
                -0.5,
                0.5,
                0.5
            ],
            "translation" : [
                -3.254824161529541,
                8.056487083435059,
                31.771160125732422
            ]
        }
    ],
    "materials" : [
        {
            "doubleSided" : true,
            "name" : "Building.005",
            "pbrMetallicRoughness" : {
                "baseColorFactor" : [
                    0.8000000715255737,
                    0.5100448131561279,
                    0.2224000245332718,
                    1
                ],
                "metallicFactor" : 0,
                "roughnessFactor" : 0.5
            }
        },
        {
            "doubleSided" : true,
            "extensions" : {
                "KHR_materials_transmission" : {
                    "transmissionFactor" : 1
                },
                "KHR_materials_ior" : {
                    "ior" : 1.4500000476837158
                }
            },
            "name" : "Window.005",
            "pbrMetallicRoughness" : {
                "baseColorFactor" : [
                    0.5277180075645447,
                    0.5277180075645447,
                    0.5277180075645447,
                    1
                ],
                "metallicFactor" : 0,
                "roughnessFactor" : 0.20000000298023224
            }
        },
        {
            "doubleSided" : true,
            "name" : "Concrete.005",
            "pbrMetallicRoughness" : {
                "baseColorFactor" : [
                    0.09083760529756546,
                    0.09083760529756546,
                    0.09083760529756546,
                    1
                ],
                "metallicFactor" : 0,
                "roughnessFactor" : 0.681347131729126
            }
        }
    ],
    "meshes" : [
        {
            "name" : "Cube.004",
            "primitives" : [
                {
                    "attributes" : {
                        "POSITION" : 0,
                        "NORMAL" : 1,
                        "TEXCOORD_0" : 2
                    },
                    "indices" : 3,
                    "material" : 0
                },
                {
                    "attributes" : {
                        "POSITION" : 4,
                        "NORMAL" : 5,
                        "TEXCOORD_0" : 6
                    },
                    "indices" : 7,
                    "material" : 1
                },
                {
                    "attributes" : {
                        "POSITION" : 8,
                        "NORMAL" : 9,
                        "TEXCOORD_0" : 10
                    },
                    "indices" : 11,
                    "material" : 2
                }
            ]
        },
        {
            "name" : "Garage",
            "primitives" : [
                {
                    "attributes" : {
                        "POSITION" : 12,
                        "NORMAL" : 13,
                        "TEXCOORD_0" : 14
                    },
                    "indices" : 15
                }
            ]
        }
    ],
    "accessors" : [
        {
            "bufferView" : 0,
            "componentType" : 5126,
            "count" : 120,
            "max" : [
                3.8555643558502197,
                2.4905552864074707,
                17.802345275878906
            ],
            "min" : [
                -1.2548807859420776,
                -0.35529500246047974,
                13.97453784942627
            ],
            "type" : "VEC3"
        },
        {
            "bufferView" : 1,
            "componentType" : 5126,
            "count" : 120,
            "type" : "VEC3"
        },
        {
            "bufferView" : 2,
            "componentType" : 5126,
            "count" : 120,
            "type" : "VEC2"
        },
        {
            "bufferView" : 3,
            "componentType" : 5123,
            "count" : 228,
            "type" : "SCALAR"
        },
        {
            "bufferView" : 4,
            "componentType" : 5126,
            "count" : 12,
            "max" : [
                4.011490821838379,
                2.378227710723877,
                17.802345275878906
            ],
            "min" : [
                -0.989382266998291,
                1.9596134424209595,
                14.091340065002441
            ],
            "type" : "VEC3"
        },
        {
            "bufferView" : 5,
            "componentType" : 5126,
            "count" : 12,
            "type" : "VEC3"
        },
        {
            "bufferView" : 6,
            "componentType" : 5126,
            "count" : 12,
            "type" : "VEC2"
        },
        {
            "bufferView" : 7,
            "componentType" : 5123,
            "count" : 18,
            "type" : "SCALAR"
        },
        {
            "bufferView" : 8,
            "componentType" : 5126,
            "count" : 915,
            "max" : [
                4.102670669555664,
                2.8193185329437256,
                17.86943817138672
            ],
            "min" : [
                -1.225956916809082,
                -0.8495252132415771,
                10.53242301940918
            ],
            "type" : "VEC3"
        },
        {
            "bufferView" : 9,
            "componentType" : 5126,
            "count" : 915,
            "type" : "VEC3"
        },
        {
            "bufferView" : 10,
            "componentType" : 5126,
            "count" : 915,
            "type" : "VEC2"
        },
        {
            "bufferView" : 11,
            "componentType" : 5123,
            "count" : 1950,
            "type" : "SCALAR"
        },
        {
            "bufferView" : 12,
            "componentType" : 5126,
            "count" : 14334,
            "max" : [
                4.622406482696533,
                0.06999999284744263,
                0.40802744030952454
            ],
            "min" : [
                0.039915356785058975,
                -0.06999999284744263,
                -1.1456178426742554
            ],
            "type" : "VEC3"
        },
        {
            "bufferView" : 13,
            "componentType" : 5126,
            "count" : 14334,
            "type" : "VEC3"
        },
        {
            "bufferView" : 14,
            "componentType" : 5126,
            "count" : 14334,
            "type" : "VEC2"
        },
        {
            "bufferView" : 15,
            "componentType" : 5123,
            "count" : 61908,
            "type" : "SCALAR"
        }
    ],
    "bufferViews" : [
        {
            "buffer" : 0,
            "byteLength" : 1440,
            "byteOffset" : 0,
            "target" : 34962
        },
        {
            "buffer" : 0,
            "byteLength" : 1440,
            "byteOffset" : 1440,
            "target" : 34962
        },
        {
            "buffer" : 0,
            "byteLength" : 960,
            "byteOffset" : 2880,
            "target" : 34962
        },
        {
            "buffer" : 0,
            "byteLength" : 456,
            "byteOffset" : 3840,
            "target" : 34963
        },
        {
            "buffer" : 0,
            "byteLength" : 144,
            "byteOffset" : 4296,
            "target" : 34962
        },
        {
            "buffer" : 0,
            "byteLength" : 144,
            "byteOffset" : 4440,
            "target" : 34962
        },
        {
            "buffer" : 0,
            "byteLength" : 96,
            "byteOffset" : 4584,
            "target" : 34962
        },
        {
            "buffer" : 0,
            "byteLength" : 36,
            "byteOffset" : 4680,
            "target" : 34963
        },
        {
            "buffer" : 0,
            "byteLength" : 10980,
            "byteOffset" : 4716,
            "target" : 34962
        },
        {
            "buffer" : 0,
            "byteLength" : 10980,
            "byteOffset" : 15696,
            "target" : 34962
        },
        {
            "buffer" : 0,
            "byteLength" : 7320,
            "byteOffset" : 26676,
            "target" : 34962
        },
        {
            "buffer" : 0,
            "byteLength" : 3900,
            "byteOffset" : 33996,
            "target" : 34963
        },
        {
            "buffer" : 0,
            "byteLength" : 172008,
            "byteOffset" : 37896,
            "target" : 34962
        },
        {
            "buffer" : 0,
            "byteLength" : 172008,
            "byteOffset" : 209904,
            "target" : 34962
        },
        {
            "buffer" : 0,
            "byteLength" : 114672,
            "byteOffset" : 381912,
            "target" : 34962
        },
        {
            "buffer" : 0,
            "byteLength" : 123816,
            "byteOffset" : 496584,
            "target" : 34963
        }
    ],
    "buffers" : [
        {
            "byteLength" : 620400,
            "uri" : "data:application/octet-stream;base64,"
        }
    ]
}
