{
    "asset" : {
        "generator" : "Khronos glTF Blender I/O v3.3.32",
        "version" : "2.0"
    },
    "scene" : 0,
    "scenes" : [
        {
            "name" : "Scene",
            "nodes" : [
                0,
                1
            ]
        }
    ],
    "nodes" : [
        {
            "mesh" : 0,
            "name" : "Taxistand",
            "scale" : [
                1.3430036306381226,
                1.3430036306381226,
                1.3430036306381226
            ],
            "translation" : [
                -29.483638763427734,
                2.794644832611084,
                50.714698791503906
            ]
        },
        {
            "mesh" : 1,
            "name" : "Taxistand - Text",
            "rotation" : [
                0.5,
                -0.5,
                0.5,
                0.5
            ],
            "translation" : [
                -21.510032653808594,
                9.207295417785645,
                57.56684875488281
            ]
        }
    ],
    "materials" : [
        {
            "doubleSided" : true,
            "name" : "Concrete.007",
            "pbrMetallicRoughness" : {
                "baseColorFactor" : [
                    0.09083760529756546,
                    0.09083760529756546,
                    0.09083760529756546,
                    1
                ],
                "metallicFactor" : 0,
                "roughnessFactor" : 0.681347131729126
            }
        }
    ],
    "meshes" : [
        {
            "name" : "Cube.008",
            "primitives" : [
                {
                    "attributes" : {
                        "POSITION" : 0,
                        "NORMAL" : 1,
                        "TEXCOORD_0" : 2
                    },
                    "indices" : 3,
                    "material" : 0
                }
            ]
        },
        {
            "name" : "Garage.002",
            "primitives" : [
                {
                    "attributes" : {
                        "POSITION" : 4,
                        "NORMAL" : 5,
                        "TEXCOORD_0" : 6
                    },
                    "indices" : 7
                }
            ]
        }
    ],
    "accessors" : [
        {
            "bufferView" : 0,
            "componentType" : 5126,
            "count" : 120,
            "max" : [
                10.05047607421875,
                4.764804840087891,
                13.959636688232422
            ],
            "min" : [
                3.8245723247528076,
                -2.0870423316955566,
                -0.07875674962997437
            ],
            "type" : "VEC3"
        },
        {
            "bufferView" : 1,
            "componentType" : 5126,
            "count" : 120,
            "type" : "VEC3"
        },
        {
            "bufferView" : 2,
            "componentType" : 5126,
            "count" : 120,
            "type" : "VEC2"
        },
        {
            "bufferView" : 3,
            "componentType" : 5123,
            "count" : 180,
            "type" : "SCALAR"
        },
        {
            "bufferView" : 4,
            "componentType" : 5126,
            "count" : 1492,
            "max" : [
                4.235000133514404,
                0.09999999403953552,
                0.02250000089406967
            ],
            "min" : [
                0.042500004172325134,
                -0.09999999403953552,
                -1.7050001621246338
            ],
            "type" : "VEC3"
        },
        {
            "bufferView" : 5,
            "componentType" : 5126,
            "count" : 1492,
            "type" : "VEC3"
        },
        {
            "bufferView" : 6,
            "componentType" : 5126,
            "count" : 1492,
            "type" : "VEC2"
        },
        {
            "bufferView" : 7,
            "componentType" : 5123,
            "count" : 2904,
            "type" : "SCALAR"
        }
    ],
    "bufferViews" : [
        {
            "buffer" : 0,
            "byteLength" : 1440,
            "byteOffset" : 0,
            "target" : 34962
        },
        {
            "buffer" : 0,
            "byteLength" : 1440,
            "byteOffset" : 1440,
            "target" : 34962
        },
        {
            "buffer" : 0,
            "byteLength" : 960,
            "byteOffset" : 2880,
            "target" : 34962
        },
        {
            "buffer" : 0,
            "byteLength" : 360,
            "byteOffset" : 3840,
            "target" : 34963
        },
        {
            "buffer" : 0,
            "byteLength" : 17904,
            "byteOffset" : 4200,
            "target" : 34962
        },
        {
            "buffer" : 0,
            "byteLength" : 17904,
            "byteOffset" : 22104,
            "target" : 34962
        },
        {
            "buffer" : 0,
            "byteLength" : 11936,
            "byteOffset" : 40008,
            "target" : 34962
        },
        {
            "buffer" : 0,
            "byteLength" : 5808,
            "byteOffset" : 51944,
            "target" : 34963
        }
    ],
    "buffers" : [
        {
            "byteLength" : 57752,
            "uri" : "data:application/octet-stream;base64,"
        }
    ]
}
